<?xml version="1.0" encoding="utf-8"?>
<!-- Generator: Adobe Illustrator 25.1.0, SVG Export Plug-In . SVG Version: 6.00 Build 0)  -->
<svg version="1.1" xmlns="http://www.w3.org/2000/svg" xmlns:xlink="http://www.w3.org/1999/xlink" x="0px" y="0px"
	 viewBox="0 0 191.5 80" style="enable-background:new 0 0 191.5 80;" xml:space="preserve">
<style type="text/css">
	.st0{fill:#000091;}
	.st1{fill:#E1000F;}
	.st2{fill:#9D9D9C;}
	.st3{fill:#2FAC66;}
	.st4{fill:#E20E18;}
	.st5{fill:#FFFFFF;}
	.st6{fill:#253574;}
	.st7{fill:#FFE910;}
</style>
<g id="Calque_1">
</g>
<g id="Calque_2">
	<g>
		<path class="st0" d="M155.4,21.3c0.2-0.2,0.5-0.5,0.7-0.8h0c0.4-0.5,0.9-1,1.4-1.4c0.2-0.1,0.3-0.3,0.5-0.4c0,0,0-0.1,0.1-0.2
			c-0.2,0.1-0.3,0.3-0.5,0.3c0,0-0.1,0,0-0.1c0.2-0.1,0.3-0.2,0.5-0.3c0,0,0,0,0,0c0,0,0,0,0-0.1c-0.5-0.1-1,0.3-1.4,0.6
			c-0.1,0-0.2,0-0.2,0c-0.6,0.2-1.1,0.8-1.7,1c0,0,0,0,0-0.1c-0.3,0.1-0.5,0.2-0.8,0.3c-0.4,0.1-0.7,0-1.1,0c-0.5,0.1-1,0.2-1.5,0.3
			c0,0,0,0,0,0c-0.3,0.1-0.5,0.2-0.8,0.3c0,0,0,0,0,0c0,0,0,0.1-0.1,0.1c-0.1,0.1-0.2,0.2-0.3,0.3c-0.3,0.1-0.5,0.4-0.7,0.5
			c0,0,0,0-0.1,0c-0.2,0.2-0.4,0.4-0.7,0.7c0,0-0.1,0-0.1,0c0,0,0,0,0,0c0,0,0,0,0,0c0-0.1,0.1-0.1,0.1-0.2c0-0.1,0.1-0.1,0.1-0.2
			c0.1-0.1,0.1-0.2,0.2-0.3c0,0,0,0,0-0.1c0,0,0,0-0.1,0c0.2-0.2,0.5-0.4,0.7-0.5c0,0,0,0,0,0c0,0-0.1,0,0,0c0,0,0-0.1,0.1-0.1
			c0,0,0,0,0,0c0,0,0,0,0,0c-0.1,0-0.1,0.1-0.2,0.1c-0.1,0.1-0.2,0.3-0.3,0.3c0,0,0,0-0.1,0c0,0,0,0,0,0c0,0,0,0,0,0c0,0,0,0,0,0
			c0,0,0,0,0,0c0,0,0,0,0,0c0,0,0,0,0,0c0,0,0,0,0,0c0,0,0,0,0-0.1c0,0,0,0,0,0c0,0,0-0.1,0.1-0.1c0,0,0,0,0,0c0,0,0-0.1,0-0.1
			c0,0,0-0.1,0-0.1c0.1-0.1,0.2-0.2,0.3-0.3h0c0.2-0.1,0.3-0.2,0.5-0.3c0,0,0,0,0.1-0.1c-0.2,0.1-0.5,0.2-0.7,0.3c0,0-0.1,0-0.1,0
			c0,0,0,0-0.1,0c0,0,0,0,0,0c0-0.1,0.2-0.1,0.3-0.2c0,0,0.1,0,0.1,0c1.4-1.1,3.2-0.8,4.8-1.4c0.1-0.1,0.3-0.2,0.4-0.3
			c0.2-0.1,0.4-0.3,0.6-0.4c0.3-0.3,0.6-0.5,0.7-1c0,0,0-0.1,0-0.1c-0.5,0.6-1.2,1.1-1.9,1.4c-0.9,0.5-1.9,0.4-2.8,0.5
			c0-0.1,0.1-0.1,0.2-0.1c0-0.1,0.1-0.2,0.2-0.3c0,0,0.1,0,0.1,0c0,0,0-0.1,0.1-0.1c0.1,0,0.2,0,0.2,0c-0.1-0.2-0.4,0.1-0.6,0
			c0.1-0.1,0-0.2,0.1-0.3c0,0,0.1,0,0.2,0c0-0.1,0.1-0.2,0.1-0.2c0.6-0.4,1.2-0.7,1.8-1c-0.1,0-0.2,0.1-0.3,0c0.1,0,0-0.1,0.1-0.1
			c0.5-0.1,0.8-0.4,1.3-0.5c-0.2,0-0.3,0.1-0.5,0c0.1,0,0.1-0.1,0.3-0.1c0,0,0-0.1,0-0.1c0,0,0,0,0.1,0c0,0-0.1,0-0.1,0
			c0-0.1,0.2,0,0.3-0.1c0,0-0.1,0-0.1,0c0.1-0.2,0.3-0.2,0.5-0.3c0-0.1-0.2,0-0.2-0.1c0,0,0,0,0.1,0c0,0,0,0-0.1,0
			c-0.1,0,0-0.1,0-0.2c0.3-0.3,0.3-0.7,0.4-1c0,0-0.1,0-0.1,0c-0.4,0.5-1.1,0.6-1.7,0.8c0,0-0.2,0-0.2,0c-0.2,0.1-0.5,0.1-0.7,0
			c-0.2-0.1-0.3-0.2-0.4-0.3c-0.3-0.2-0.7-0.4-1.1-0.5c-1.1-0.3-2.2-0.5-3.3-0.5c0.5-0.3,1-0.3,1.5-0.4c0.7-0.2,1.4-0.5,2.2-0.4
			c-0.1,0-0.3,0-0.4,0c-0.6,0-1.2,0.1-1.8,0.3c-0.4,0.1-0.8,0.3-1.2,0.3c-0.3,0.1-0.4,0.3-0.7,0.3c0,0,0-0.1,0-0.1
			c0.4-0.5,0.9-1,1.6-1.1c0.8-0.1,1.5,0,2.2,0.1c0.5,0,1.1,0.2,1.6,0.3c0.2,0,0.3,0.3,0.4,0.4c0.3,0.1,0.5,0,0.8,0.2
			c0-0.1,0-0.2,0-0.3c0.2-0.2,0.4,0,0.5,0c0.3-0.2-0.3-0.6-0.5-0.9c0,0,0-0.1,0-0.1c0.3,0.3,0.6,0.6,1,0.8c0.2,0.1,0.7,0.2,0.6,0
			c-0.2-0.5-0.6-0.8-1-1.3c0,0,0-0.1,0-0.2c-0.1,0-0.1,0-0.1-0.1c0,0,0-0.1,0-0.2c-0.2-0.1-0.1-0.3-0.2-0.4c-0.1-0.2,0-0.5-0.1-0.8
			c-0.1-0.3-0.1-0.5-0.2-0.7c-0.1-0.7-0.3-1.4-0.4-2c-0.1-0.8,0.5-1.4,0.8-2.2c0.3-0.5,0.6-1,1.2-1.4c0.1-0.5,0.5-0.9,0.8-1.4
			c0.3-0.4,0.9-0.7,1.3-0.8c0.6-0.3,1.1-0.4,1.1-0.4h-29v22.3h20.5c0.8-0.6,1.6-0.9,2.7-1.4C153.8,22.2,155,21.7,155.4,21.3z
			 M149,18.2c-0.1,0-0.3,0-0.2,0c0-0.2,0.3-0.2,0.5-0.3c0.1,0,0.2-0.1,0.3-0.1c0.1,0.1,0.2,0.1,0.3,0.2
			C149.6,18.2,149.3,18.1,149,18.2z M142.5,17.3C142.5,17.3,142.5,17.3,142.5,17.3c0.5-0.8,0.9-1.5,1.3-2.2c0.5-0.3,1-0.7,1.4-1.2
			c0.7-0.8,1.5-1.4,2.4-1.9c0.3-0.1,0.8-0.1,1.1,0c-0.1,0.2-0.3,0.1-0.5,0.3c0,0-0.1,0-0.1,0c0,0,0-0.1,0-0.1
			c-0.4,0.5-1,0.7-1.4,1.2c-0.3,0.4-0.4,1-1,1.1c-0.2,0,0-0.1,0-0.1C144.4,15.2,143.5,16.2,142.5,17.3z M146,14.5
			c0,0.1-0.1,0.1-0.1,0.2c0,0.1-0.1,0.1-0.2,0.2c0,0-0.1,0-0.1,0C145.7,14.7,145.8,14.5,146,14.5C146,14.4,146,14.5,146,14.5z
			 M148,20.8c0,0-0.1,0.1-0.1,0.1c0.1,0,0.1,0,0.1,0.1c-0.1,0.1-0.2,0.2-0.3,0.2c0,0,0,0-0.1,0c-0.1,0.1-0.1,0.1-0.2,0.1
			c-0.1,0-0.3,0-0.2-0.1c0.1-0.1,0.2-0.2,0.3-0.3c0.1-0.1,0.1-0.1,0.2-0.2c0,0,0.1-0.1,0.1-0.1C147.8,20.8,148,20.8,148,20.8z
			 M147.2,20.5C147.2,20.5,147.2,20.5,147.2,20.5c-0.2,0.1-0.3,0.2-0.5,0.3c-0.2,0.1-0.4,0.2-0.6,0.3c0,0,0,0,0,0c0,0,0,0-0.1,0
			c-0.2,0.1-0.3,0.2-0.4,0.3c0,0,0,0-0.1,0.1c0,0,0,0,0,0c0,0,0,0,0,0c0,0,0,0-0.1,0.1c0,0,0,0,0,0c0,0,0,0,0,0c0,0-0.1,0.1-0.1,0.1
			c0,0,0,0-0.1,0.1c0,0-0.1,0-0.1,0c0,0,0,0,0,0c0,0,0,0-0.1,0c0,0,0,0-0.1,0c0,0,0,0,0,0c0,0,0,0,0,0c-0.1,0-0.1,0.1-0.2,0.1
			c-0.1,0.1-0.2,0.2-0.2,0.3c0,0,0,0,0,0c0,0,0,0,0,0c0,0,0,0,0,0c0,0,0,0,0,0c0,0,0,0,0,0c0,0,0,0,0,0c0,0,0,0,0,0c0,0,0,0,0,0
			c0,0,0,0,0,0c0,0,0,0,0,0c0,0,0,0,0-0.1c0,0,0,0,0,0c0,0,0,0,0,0c0,0,0.1-0.1,0.1-0.2c0,0,0,0,0,0c0,0,0,0,0-0.1
			c0,0,0-0.1,0.1-0.1c0,0,0,0,0,0c0-0.1,0.1-0.1,0.1-0.2c0,0,0,0,0,0c0,0,0,0,0,0c0,0,0-0.1,0.1-0.1c0,0,0-0.1,0-0.1c0,0,0,0,0,0
			c0,0,0,0,0,0c0,0,0,0,0,0c0,0,0-0.1,0-0.1c0,0,0,0,0,0c0,0,0,0,0,0c0,0,0,0,0,0l0,0c0,0,0,0,0,0c0,0,0,0,0-0.1c0,0,0,0,0,0
			c0-0.1,0.1-0.2,0.2-0.2c0,0,0,0,0,0c-0.1,0-0.1,0.1-0.2,0.1c0,0-0.1,0-0.1-0.1c0,0,0.1-0.1,0.1-0.1c0,0,0,0,0,0
			c0.1-0.1,0.1-0.2,0.2-0.2c0,0,0.1-0.1,0.1-0.1c0,0,0,0,0,0c0,0,0.1-0.1,0.1-0.1c0,0,0,0,0,0c0.4-0.4,1.1-0.4,1.6-0.6
			c0.2-0.1,0.5,0,0.7,0c0.1,0,0.3,0,0.4,0.1C147.9,20.1,147.5,20.3,147.2,20.5z M148.1,17.6c0,0,0.1,0,0.2-0.1c-0.1,0-0.2,0-0.3,0
			c0,0,0,0,0-0.1c-0.2,0-0.5,0.1-0.7,0.2c-0.3,0.1-0.5,0.3-0.9,0.4c-0.5,0.2-0.8,0.5-1.4,0.7c0,0,0,0,0-0.1c0-0.1,0.2-0.2,0.3-0.3
			c0,0,0-0.1,0-0.1c0.3-0.5,0.8-0.7,1.2-1.1c0,0,0-0.1,0-0.1c0.1-0.2,0.3-0.3,0.4-0.5c0-0.1,0.2-0.3,0.4-0.4c0,0-0.1,0-0.1-0.1
			c-0.2,0-0.3,0.1-0.5,0c0.1-0.1,0.2-0.1,0.3-0.2c0,0-0.1,0-0.1-0.1c0-0.1,0.1-0.2,0.2-0.2c0.2,0,0.4,0,0.5-0.2
			c-0.3,0-0.6,0.1-0.9-0.1c0.2-0.5,0.5-1,1.1-1.3c0,0,0.1,0,0.1,0c0,0.2-0.1,0.4-0.3,0.4c0.3,0.1,0.7,0.1,1,0.3c0,0.1-0.1,0-0.2,0
			c0.2,0.1,0.5,0,0.7,0.2c-0.1,0.1-0.3,0-0.4,0c1.3,0.4,2.7,0.7,3.8,1.5c-0.9,0.5-1.9,0.7-2.9,0.9c-0.1,0-0.2,0-0.3,0
			c0,0,0,0.1,0,0.1c-0.2,0-0.3,0-0.4,0.1C148.4,17.6,148.2,17.7,148.1,17.6z"/>
		<g>
			<path class="st1" d="M191.5,1.6h-24c0,0,0,0,0.2,0.1c0.2,0.1,0.4,0.2,0.6,0.3c0.3,0.2,0.6,0.4,0.8,0.7c0.1,0.1,0.2,0.4,0.1,0.5
				c-0.1,0.2-0.1,0.5-0.3,0.6C168.6,4,168.3,4,168,3.9c-0.2,0-0.3,0-0.5-0.1c0.6,0.3,1.2,0.5,1.6,1.1c0,0.1,0.2,0.1,0.4,0.1
				c0,0,0,0.1,0,0.1c-0.1,0.1-0.2,0.1-0.1,0.3c0,0,0.1,0,0.1,0c0.2-0.1,0.2-0.5,0.5-0.4c0.2,0.1,0.3,0.4,0.2,0.6
				c-0.2,0.2-0.3,0.3-0.5,0.4c0,0.1,0,0.2,0,0.3c0.1,0.2,0.2,0.3,0.2,0.5c0.1,0.3,0.2,0.6,0.3,0.9c0.2,0.6,0.3,1.3,0.3,1.9
				c0,0.3-0.2,0.6,0,1c0.1,0.3,0.3,0.6,0.5,0.9c0.2,0.3,0.3,0.4,0.5,0.7c0.3,0.4,0.7,0.8,0.5,1.4c-0.1,0.3-0.6,0.3-0.9,0.4
				c-0.3,0.2,0,0.5,0.1,0.8c0.2,0.4-0.3,0.6-0.5,0.8c0.1,0.1,0.3,0.1,0.3,0.2c0,0.2,0.3,0.3,0.1,0.5c-0.2,0.3-0.7,0.4-0.4,0.8
				c0.2,0.3,0.1,0.6,0,0.9c-0.1,0.4-0.5,0.5-0.8,0.6c-0.3,0.1-0.5,0.1-0.8,0c-0.1,0-0.2-0.1-0.3-0.1c-0.7-0.1-1.4-0.3-2.2-0.3
				c-0.2,0-0.4,0.1-0.6,0.2c-0.2,0.1-0.4,0.3-0.5,0.5c0,0,0,0,0,0c0,0-0.1,0.1-0.1,0.1c0,0,0,0-0.1,0.1c0,0,0,0,0,0
				c-0.1,0.2-0.2,0.3-0.3,0.5c0,0,0,0,0,0c0,0,0,0,0,0.1c-0.1,0.3-0.2,0.5-0.3,0.8c-0.3,1-0.2,1.8,0,2c0.1,0.1,1.4,0.5,2.3,0.9
				c0.4,0.2,0.7,0.3,1,0.5h23.6V1.6z"/>
		</g>
		<path class="st2" d="M168.9,9.7c0.2,0,0.4,0,0.4,0.1c-0.1,0.3-0.6,0.4-0.8,0.8h-0.1c-0.1,0.1-0.1,0.3-0.2,0.3c-0.1,0-0.3,0-0.4,0
			c0.2,0.2,0.4,0.3,0.6,0.3c0,0,0.1,0.1,0.1,0.2c0,0,0,0,0.1,0c0,0,0.1,0,0.1,0v0.2c-0.1,0.2-0.3,0.1-0.5,0.1c0.3,0.1,0.7,0.1,1,0
			c0.3-0.1,0-0.5,0.2-0.7c-0.1,0,0-0.1-0.1-0.1c0.1-0.1,0.2-0.2,0.3-0.3c0.1,0,0.2,0,0.3-0.1c0-0.1-0.2-0.1-0.1-0.2
			c0.3-0.2,0.5-0.4,0.4-0.7c0-0.1-0.4-0.1-0.6-0.2c-0.2-0.1-0.5,0-0.7,0c-0.2,0-0.4,0.1-0.6,0.2c-0.3,0.1-0.5,0.3-0.8,0.4
			c0.3-0.1,0.6-0.2,0.9-0.3C168.4,9.7,168.6,9.6,168.9,9.7z"/>
	</g>
	<g>
		<path class="st1" d="M130.8,54.4c0.5,0.7,1.2,1.1,2,1.1c0.7,0,1.1-0.4,1.1-0.9c0-1.5-4-0.9-4-4c0-1.5,1.3-2.6,3-2.6
			c1.3,0,2.5,0.6,3.1,1.5l-1.4,1.3c-0.4-0.6-1-1-1.7-1c-0.6,0-1,0.3-1,0.8c0,1.5,4,0.9,4,3.9c0,1.8-1.5,2.8-3.1,2.8
			c-1.5,0-2.6-0.6-3.4-1.6L130.8,54.4z"/>
		<path class="st1" d="M141.7,57.3c-3,0-4.8-2.1-4.8-4.6c0-2.5,1.6-4.6,4.4-4.6c2.4,0,3.9,1.6,3.9,3.8c0,0.5-0.1,0.9-0.1,1.2h-6
			c0.1,1.4,1.1,2.2,2.6,2.2c0.9,0,1.7-0.4,2.2-1l1.5,1.2C144.6,56.6,143.3,57.3,141.7,57.3z M139.2,51.5h3.9c0-0.9-0.7-1.6-1.8-1.6
			C140.2,49.8,139.5,50.3,139.2,51.5z"/>
		<path class="st1" d="M147,48.4h2.2v0.9c0.6-0.6,1.3-1,2.3-1c0.3,0,0.5,0.1,0.7,0.1v2.3c-0.3-0.1-0.6-0.1-1-0.1
			c-1.1,0-1.7,0.6-2.1,1.1v5.4H147V48.4z"/>
		<path class="st1" d="M154.8,48.4l2.2,6.1l2.2-6.1h2.3l-3.1,8.6h-2.8l-3.1-8.6H154.8z"/>
		<path class="st1" d="M162.2,45.5c0-0.8,0.6-1.4,1.4-1.4c0.8,0,1.4,0.6,1.4,1.4c0,0.8-0.6,1.4-1.4,1.4
			C162.9,46.9,162.2,46.2,162.2,45.5z M162.6,48.4h2.2v8.6h-2.2V48.4z"/>
		<path class="st1" d="M172.9,54.2l1.7,1.3c-0.8,1.1-2.1,1.7-3.6,1.7c-3,0-4.7-2.1-4.7-4.6c0-2.5,1.8-4.6,4.7-4.6
			c1.6,0,2.8,0.7,3.6,1.7l-1.7,1.3c-0.4-0.6-1.1-1-1.9-1c-1.4,0-2.4,1.1-2.4,2.6c0,1.5,1,2.6,2.5,2.6
			C171.9,55.2,172.5,54.8,172.9,54.2z"/>
		<path class="st1" d="M180.1,57.3c-3,0-4.8-2.1-4.8-4.6c0-2.5,1.6-4.6,4.4-4.6c2.4,0,3.9,1.6,3.9,3.8c0,0.5-0.1,0.9-0.1,1.2h-6
			c0.1,1.4,1.1,2.2,2.6,2.2c0.9,0,1.7-0.4,2.2-1l1.5,1.2C183,56.6,181.7,57.3,180.1,57.3z M177.6,51.5h3.9c0-0.9-0.7-1.6-1.8-1.6
			C178.6,49.8,177.9,50.3,177.6,51.5z"/>
		<path class="st1" d="M186,54.4c0.5,0.7,1.2,1.1,2,1.1c0.7,0,1.1-0.4,1.1-0.9c0-1.5-4-0.9-4-4c0-1.5,1.3-2.6,3-2.6
			c1.3,0,2.5,0.6,3.1,1.5l-1.4,1.3c-0.4-0.6-1-1-1.7-1c-0.6,0-1,0.3-1,0.8c0,1.5,4,0.9,4,3.9c0,1.8-1.5,2.8-3.1,2.8
			c-1.5,0-2.6-0.6-3.4-1.6L186,54.4z"/>
	</g>
	<g>
		<path d="M151.3,76.5c0.2,0,0.3,0.1,0.3,0.5l-0.8,0.2C150.9,76.7,151.1,76.5,151.3,76.5 M151.8,77.8h-0.2c-0.2,0.2-0.4,0.4-0.7,0.4
			c-0.2,0-0.3-0.1-0.3-0.4c0-0.1,0-0.3,0-0.4L152,77c0.3-0.6-0.1-0.9-0.4-0.9c-0.6,0-1.4,1.1-1.4,2c0,0.4,0.2,0.6,0.5,0.6
			C151.1,78.7,151.5,78.4,151.8,77.8 M151.5,75.8l1-0.9v-0.1H152l-0.6,1H151.5z M148.6,76.5h0.4l-0.7,1.9c-0.1,0.2,0,0.3,0.2,0.3
			c0.4,0,1.1-0.4,1.3-0.9h-0.1c-0.2,0.2-0.5,0.4-0.8,0.5l0.7-1.8h0.7l0.1-0.3h-0.6l0.2-0.7h-0.3l-0.5,0.7l-0.6,0.1V76.5z M148,76.4
			c0.1-0.2-0.1-0.3-0.2-0.3c-0.4,0-0.9,0.4-1,0.8h0.1c0.1-0.2,0.3-0.4,0.5-0.4l-0.7,1.9c-0.1,0.2,0.1,0.3,0.2,0.3
			c0.4,0,0.8-0.4,1-0.8h-0.1c-0.1,0.2-0.3,0.4-0.5,0.4L148,76.4z M148.1,75.4c0.2,0,0.3-0.1,0.3-0.3c0-0.2-0.1-0.3-0.3-0.3
			c-0.2,0-0.3,0.1-0.3,0.3C147.8,75.3,148,75.4,148.1,75.4 M143.8,78.4c-0.1,0.2,0,0.4,0.2,0.4c0.1,0,0.2,0,0.2-0.2l0.5-1.4
			c0.2-0.3,0.7-0.6,0.9-0.6c0.1,0,0.1,0.1,0,0.3l-0.8,1.5c-0.1,0.2,0,0.3,0.2,0.3c0.4,0,0.9-0.4,1-0.8h-0.1
			c-0.1,0.2-0.3,0.4-0.5,0.4l0.7-1.4c0.1-0.2,0.1-0.3,0.1-0.5c0-0.2-0.1-0.4-0.4-0.4c-0.3,0-0.7,0.4-1.1,0.8v-0.4
			c0-0.3-0.1-0.5-0.3-0.5c-0.1,0-0.3,0.1-0.4,0.3v0c0.3,0,0.4,0.4,0.2,0.8L143.8,78.4z M143.8,76.7c0.1-0.3,0-0.6-0.2-0.6
			c-0.3,0-0.4,0.2-0.7,0.8v-0.4c0-0.3-0.1-0.5-0.3-0.5c-0.3,0-0.5,0.4-0.7,0.8h0.1c0.1-0.2,0.3-0.3,0.4-0.3c0.1,0,0.2,0.2,0,0.6
			l-0.5,1.2c-0.1,0.2,0,0.4,0.2,0.4c0.1,0,0.2,0,0.2-0.2l0.5-1.4c0.1-0.2,0.3-0.3,0.4-0.5H143.8z M140.8,76.5c0.2,0,0.3,0.1,0.3,0.5
			l-0.8,0.2C140.4,76.7,140.6,76.5,140.8,76.5 M141.3,77.8h-0.2c-0.2,0.2-0.4,0.4-0.7,0.4c-0.2,0-0.3-0.1-0.3-0.4c0-0.1,0-0.3,0-0.4
			l1.4-0.4c0.3-0.6-0.1-0.9-0.4-0.9c-0.6,0-1.4,1.1-1.4,2c0,0.4,0.2,0.6,0.5,0.6C140.6,78.7,141,78.4,141.3,77.8 M138.1,76.5h0.4
			l-0.7,1.9c-0.1,0.2,0,0.3,0.2,0.3c0.4,0,1.1-0.4,1.3-0.9h-0.1c-0.2,0.2-0.5,0.4-0.8,0.5l0.7-1.8h0.7l0.1-0.3h-0.6l0.2-0.7h-0.3
			l-0.5,0.7l-0.6,0.1V76.5z M135.7,78c0-0.6,0.7-1.4,1-1.4c0.1,0,0.2,0,0.2,0l-0.4,1c-0.2,0.3-0.6,0.6-0.7,0.6
			C135.7,78.2,135.7,78.2,135.7,78 M137.7,76l-0.2,0l-0.2,0.2h0c-1.1,0-2.1,1.2-2.1,2.2c0,0.3,0.2,0.4,0.4,0.4
			c0.3,0,0.6-0.4,0.9-0.8l0,0.2c0,0.4,0.1,0.7,0.3,0.7c0.3,0,0.5-0.4,0.7-0.8h-0.1c-0.1,0.2-0.3,0.3-0.4,0.3c-0.1,0-0.2-0.2,0-0.6
			L137.7,76z M135.3,76.7c0.1-0.3,0-0.6-0.2-0.6c-0.3,0-0.4,0.2-0.7,0.8v-0.4c0-0.3-0.1-0.5-0.3-0.5c-0.3,0-0.5,0.4-0.7,0.8h0.1
			c0.1-0.2,0.3-0.3,0.4-0.3c0.1,0,0.2,0.2,0,0.6l-0.5,1.2c-0.1,0.2,0,0.4,0.2,0.4c0.1,0,0.2,0,0.2-0.2l0.5-1.4
			c0.1-0.2,0.3-0.3,0.4-0.5H135.3z M131.6,78.7l0-0.2c-0.6-0.1-0.7-0.1-0.5-0.8l0.3-0.7h0.7c0.3,0,0.3,0.1,0.3,0.5h0.2l0.4-1.2h-0.2
			c-0.2,0.3-0.3,0.5-0.6,0.5h-0.7l0.4-1c0.1-0.3,0.2-0.4,0.6-0.4h0.3c0.5,0,0.5,0.1,0.5,0.6h0.2l0.2-0.8H131l0,0.2
			c0.5,0.1,0.6,0.2,0.3,0.8l-0.6,1.6c-0.2,0.7-0.3,0.7-0.9,0.8l0,0.2H131.6z"/>
		<path d="M144.8,70.4c0.2,0,0.3,0.1,0.3,0.5l-0.8,0.2C144.4,70.6,144.6,70.4,144.8,70.4 M145.3,71.7h-0.2c-0.2,0.2-0.4,0.4-0.7,0.4
			c-0.2,0-0.3-0.1-0.3-0.4c0-0.1,0-0.3,0-0.4l1.4-0.4c0.3-0.6-0.1-0.9-0.4-0.9c-0.6,0-1.4,1.1-1.4,2c0,0.4,0.2,0.6,0.5,0.6
			C144.6,72.6,145,72.3,145.3,71.7 M145,69.7l1-0.9v-0.1h-0.5l-0.6,1H145z M142.1,70.4h0.4l-0.7,1.9c-0.1,0.2,0,0.3,0.2,0.3
			c0.4,0,1.1-0.4,1.3-0.9h-0.1c-0.2,0.2-0.5,0.4-0.8,0.5l0.7-1.8h0.7l0.1-0.3h-0.6l0.2-0.7h-0.3l-0.5,0.7l-0.6,0.1V70.4z
			 M141.5,70.3c0.1-0.2-0.1-0.3-0.2-0.3c-0.4,0-0.9,0.4-1,0.8h0.1c0.1-0.2,0.3-0.4,0.5-0.4l-0.7,1.9c-0.1,0.2,0.1,0.3,0.2,0.3
			c0.4,0,0.8-0.4,1-0.8h-0.1c-0.1,0.2-0.3,0.4-0.5,0.4L141.5,70.3z M141.6,69.3c0.2,0,0.3-0.1,0.3-0.3c0-0.2-0.1-0.3-0.3-0.3
			c-0.2,0-0.3,0.1-0.3,0.3C141.3,69.2,141.4,69.3,141.6,69.3 M139,72.2l1.4-3.6l0-0.1l-0.9,0.1v0.1l0.2,0.1c0.2,0.1,0.1,0.2,0,0.6
			l-1.1,2.8c-0.1,0.2,0,0.3,0.2,0.3c0.4,0,0.8-0.4,1-0.8h-0.1C139.5,72,139.2,72.2,139,72.2 M136.4,71.9c0-0.6,0.7-1.4,1-1.4
			c0.1,0,0.2,0,0.2,0l-0.4,1c-0.2,0.3-0.6,0.6-0.7,0.6C136.5,72.1,136.4,72.1,136.4,71.9 M138.5,69.9l-0.2,0l-0.2,0.2h0
			c-1.1,0-2.1,1.2-2.1,2.2c0,0.3,0.2,0.4,0.4,0.4c0.3,0,0.6-0.4,0.9-0.8l0,0.2c0,0.4,0.1,0.7,0.3,0.7c0.3,0,0.5-0.4,0.7-0.8h-0.1
			c-0.1,0.2-0.3,0.3-0.4,0.3c-0.1,0-0.2-0.2,0-0.6L138.5,69.9z M133.5,73.1c0-0.3,0.2-0.4,0.6-0.6c0.1,0.1,0.3,0.1,0.5,0.2
			c0.4,0.1,0.5,0.2,0.5,0.3c0,0.2-0.4,0.4-1,0.4C133.7,73.5,133.5,73.4,133.5,73.1 M134.5,71.5c-0.2,0-0.2-0.1-0.2-0.3
			c0-0.4,0.2-1.1,0.6-1.1c0.2,0,0.2,0.1,0.2,0.3C135.1,70.9,134.9,71.5,134.5,71.5 M135.6,72.9c0-0.3-0.3-0.4-0.7-0.6
			c-0.4-0.1-0.6-0.2-0.6-0.3c0-0.1,0.1-0.2,0.2-0.3c0.6,0,1.1-0.6,1.1-1.1c0-0.1,0-0.2-0.1-0.3h0.5l0.1-0.3h-0.9
			c-0.1-0.1-0.2-0.1-0.3-0.1c-0.7,0-1.1,0.6-1.1,1.1c0,0.4,0.2,0.6,0.5,0.6c-0.3,0.1-0.5,0.3-0.5,0.5c0,0.1,0,0.2,0.1,0.3
			c-0.7,0.2-1,0.5-1,0.8c0,0.3,0.4,0.5,1,0.5C134.8,73.8,135.6,73.3,135.6,72.9 M132.2,70.8c0.3,0,0.3,0.1,0.3,0.5h0.2l0.4-1.2h-0.2
			c-0.2,0.3-0.3,0.5-0.6,0.5h-0.7l0.4-1c0.1-0.3,0.2-0.4,0.6-0.4h0.3c0.5,0,0.5,0.1,0.5,0.6h0.2l0.2-0.8H131l0,0.2
			c0.5,0.1,0.6,0.2,0.3,0.8l-0.6,1.6c-0.2,0.7-0.3,0.7-0.9,0.8l0,0.2h3l0.5-0.8H133c-0.3,0.3-0.8,0.6-1.4,0.6c-0.8,0-0.7,0-0.5-0.8
			l0.3-0.8H132.2z M132.6,68.8l1-0.7V68h-0.6l-0.5,0.8H132.6z"/>
		<path d="M144.5,64.3c0.2,0,0.3,0.1,0.3,0.5l-0.8,0.2C144,64.5,144.3,64.3,144.5,64.3 M144.9,65.6h-0.2c-0.2,0.2-0.4,0.4-0.7,0.4
			c-0.2,0-0.3-0.1-0.3-0.4c0-0.1,0-0.3,0-0.4l1.4-0.4c0.3-0.6-0.1-0.9-0.4-0.9c-0.6,0-1.4,1.1-1.4,2c0,0.4,0.2,0.6,0.5,0.6
			C144.3,66.6,144.6,66.2,144.9,65.6 M144.7,63.6l1-0.9v-0.1h-0.5l-0.6,1H144.7z M141.9,64.3h0.4l-0.7,1.9c-0.1,0.2,0,0.3,0.2,0.3
			c0.4,0,1.1-0.4,1.3-0.9h-0.1c-0.2,0.2-0.5,0.4-0.8,0.5l0.7-1.8h0.7l0.1-0.3h-0.6l0.2-0.7h-0.3l-0.5,0.7l-0.5,0.1V64.3z
			 M141.5,64.5c0.1-0.3,0-0.6-0.2-0.6c-0.3,0-0.4,0.2-0.7,0.8v-0.4c0-0.3-0.1-0.5-0.3-0.5c-0.3,0-0.5,0.4-0.7,0.8h0.1
			c0.1-0.2,0.3-0.3,0.4-0.3c0.1,0,0.2,0.2,0,0.6l-0.5,1.2c-0.1,0.2,0,0.4,0.2,0.4c0.1,0,0.2,0,0.2-0.2l0.5-1.4
			c0.1-0.2,0.3-0.3,0.4-0.5H141.5z M138.5,64.3c0.2,0,0.3,0.1,0.3,0.5l-0.8,0.2C138.1,64.5,138.3,64.3,138.5,64.3 M139,65.6h-0.2
			c-0.2,0.2-0.4,0.4-0.7,0.4c-0.2,0-0.3-0.1-0.3-0.4c0-0.1,0-0.3,0-0.4l1.4-0.4c0.3-0.6-0.1-0.9-0.4-0.9c-0.6,0-1.4,1.1-1.4,2
			c0,0.4,0.2,0.6,0.5,0.6C138.3,66.6,138.7,66.2,139,65.6 M135.7,66.2c-0.1,0-0.3-0.1-0.3-0.2c0,0,0.1-0.2,0.1-0.4l0.2-0.6
			c0.2-0.3,0.6-0.6,0.8-0.6c0.1,0,0.2,0.1,0.2,0.3C136.7,65.2,136.2,66.2,135.7,66.2 M137.2,64.4c0-0.4-0.1-0.5-0.4-0.5
			c-0.3,0-0.7,0.4-1,0.8l0.8-2.1l0-0.1l-0.9,0.1v0.1l0.2,0.1c0.2,0.1,0.1,0.2,0,0.6l-0.9,2.3c-0.1,0.2-0.1,0.4-0.1,0.4
			c0,0.2,0.3,0.5,0.6,0.5C136.1,66.6,137.2,65.4,137.2,64.4 M134.6,64.2c0.1-0.2-0.1-0.3-0.2-0.3c-0.4,0-0.9,0.4-1,0.8h0.1
			c0.1-0.2,0.3-0.4,0.5-0.4l-0.7,1.9c-0.1,0.2,0.1,0.3,0.2,0.3c0.4,0,0.8-0.4,1-0.8h-0.1c-0.1,0.2-0.3,0.4-0.5,0.4L134.6,64.2z
			 M134.7,63.2c0.2,0,0.3-0.1,0.3-0.3c0-0.2-0.1-0.3-0.3-0.3c-0.2,0-0.3,0.1-0.3,0.3C134.4,63.1,134.5,63.2,134.7,63.2 M132.7,62.9
			H131l0,0.2c0.5,0.1,0.6,0.2,0.3,0.8l-0.6,1.6c-0.2,0.7-0.3,0.7-0.9,0.8l0,0.2h2.7l0.6-1h-0.2c-0.3,0.4-0.7,0.8-1.3,0.8
			c-0.5,0-0.5-0.1-0.3-0.8l0.6-1.6c0.2-0.7,0.3-0.7,0.9-0.8L132.7,62.9z"/>
	</g>
	<g>
		<path class="st0" d="M130.1,29.5h6.9v2.1h-4.5v2.8h3.8v2.1h-3.8v5h-2.4V29.5z"/>
		<path class="st0" d="M138.5,32.8h2.2v0.9c0.6-0.6,1.3-1,2.3-1c0.3,0,0.5,0.1,0.7,0.1V35c-0.3-0.1-0.6-0.1-1-0.1
			c-1.1,0-1.7,0.6-2.1,1.1v5.4h-2.2V32.8z"/>
		<path class="st0" d="M144.5,39.1c0-1.3,1-2.3,2.9-2.6l2.6-0.4v-0.2c0-0.9-0.7-1.5-1.6-1.5c-0.8,0-1.5,0.4-1.9,1l-1.6-1.2
			c0.8-1.1,2-1.7,3.6-1.7c2.5,0,3.8,1.5,3.8,3.4v5.5H150v-0.8c-0.5,0.7-1.5,1.1-2.6,1.1C145.7,41.7,144.5,40.7,144.5,39.1z
			 M147.9,40c1,0,1.7-0.5,2.1-1.2v-1.2l-2,0.4c-0.9,0.2-1.3,0.5-1.3,1.1C146.7,39.6,147.1,40,147.9,40z"/>
		<path class="st0" d="M154.3,32.8h2.2v0.7c0.6-0.6,1.4-1,2.5-1c1.9,0,3.3,1.3,3.3,3.8v5.1h-2.2v-5c0-1.1-0.6-1.9-1.7-1.9
			c-1.1,0-1.7,0.7-2,1.3v5.6h-2.2V32.8z"/>
		<path class="st0" d="M170.4,38.7l1.7,1.3c-0.8,1.1-2.1,1.7-3.6,1.7c-3,0-4.7-2.1-4.7-4.6c0-2.5,1.8-4.6,4.7-4.6
			c1.6,0,2.8,0.7,3.6,1.7l-1.7,1.3c-0.4-0.6-1.1-1-1.9-1c-1.4,0-2.4,1.1-2.4,2.6c0,1.5,1,2.6,2.5,2.6
			C169.3,39.7,170,39.3,170.4,38.7z"/>
		<path class="st0" d="M177.5,41.7c-3,0-4.8-2.1-4.8-4.6c0-2.5,1.6-4.6,4.4-4.6c2.4,0,3.9,1.6,3.9,3.8c0,0.5-0.1,0.9-0.1,1.2h-6
			c0.1,1.4,1.1,2.2,2.6,2.2c0.9,0,1.7-0.4,2.2-1l1.5,1.2C180.4,41.1,179.1,41.7,177.5,41.7z M175.1,35.9h3.9c0-0.9-0.7-1.6-1.8-1.6
			C176.1,34.3,175.4,34.8,175.1,35.9z"/>
	</g>
	<g id="Calque_2_1_">
		<g>
			<path class="st3" d="M40,80C18,80,0,62.1,0,40C0,18,18,0,40,0s40,18,40,40C80,62.1,62.1,80,40,80z M40,2.2
				C19.2,2.2,2.2,19.2,2.2,40s17,37.8,37.8,37.8s37.8-17,37.8-37.8C77.8,19.2,60.9,2.2,40,2.2z"/>
			<path class="st3" d="M40,60.4c-11.2,0-20.4-9.1-20.4-20.4S28.8,19.6,40,19.6S60.4,28.8,60.4,40S51.2,60.4,40,60.4z M40,20.5
				c-10.8,0-19.5,8.8-19.5,19.5S29.2,59.6,40,59.6S59.6,50.8,59.6,40C59.6,29.2,50.8,20.5,40,20.5z"/>
			<g>
				<rect x="53.1" y="39.4" transform="matrix(0.5 -0.866 0.866 0.5 -7.394 73.2889)" class="st4" width="13.4" height="7.3"/>
				<rect x="46.8" y="35.8" transform="matrix(0.5 -0.866 0.866 0.5 -7.3926 66.0307)" class="st5" width="13.4" height="7.3"/>
				<rect x="40.5" y="32.2" transform="matrix(0.5 -0.866 0.866 0.5 -7.3913 58.7769)" class="st6" width="13.4" height="7.3"/>
				<path class="st6" d="M47.7,29.2l17.6,10.1l-6,10.3L41.7,39.5L47.7,29.2 M47.4,28.2l-6.7,11.6l18.9,10.9l6.7-11.6L47.4,28.2
					L47.4,28.2z"/>
				
					<rect x="28" y="38.7" transform="matrix(0.4999 -0.8661 0.8661 0.4999 -13.1664 55.3612)" class="st6" width="26.6" height="0.8"/>
				<rect x="15.7" y="32.7" transform="matrix(0.866 -0.5 0.5 0.866 -16.1294 18.5439)" class="st6" width="21.8" height="13.4"/>
				<polygon class="st7" points="28.5,43.9 28.8,43.4 29.3,43.5 28.9,43.1 29.2,42.6 28.7,42.9 28.3,42.5 28.4,43.1 27.9,43.3 
					28.4,43.4 				"/>
				<polygon class="st7" points="24.3,36.3 24.5,35.8 25.1,35.9 24.7,35.5 24.9,35 24.5,35.3 24,35 24.2,35.5 23.7,35.8 24.2,35.8 
									"/>
				<polygon class="st7" points="22.5,42.4 22.7,41.9 23.3,41.9 22.9,41.5 23.1,41.1 22.6,41.3 22.2,41 22.3,41.5 21.9,41.8 
					22.4,41.8 				"/>
				<polygon class="st7" points="30.3,37.8 30.6,37.3 31.1,37.4 30.7,37 31,36.5 30.5,36.8 30.1,36.4 30.2,37 29.7,37.2 30.2,37.3 
									"/>
				<polygon class="st7" points="26.6,35.7 26.8,35.2 27.4,35.3 27,34.9 27.2,34.4 26.8,34.7 26.3,34.3 26.4,34.9 26,35.1 
					26.5,35.2 				"/>
				<polygon class="st7" points="28.8,36.3 29,35.8 29.6,35.8 29.2,35.5 29.4,35 28.9,35.3 28.5,34.9 28.6,35.4 28.2,35.7 
					28.7,35.8 				"/>
				<polygon class="st7" points="30.8,40 31,39.5 31.6,39.5 31.2,39.2 31.4,38.7 30.9,39 30.5,38.6 30.6,39.1 30.1,39.4 30.7,39.5 
									"/>
				<polygon class="st7" points="30.2,42.2 30.4,41.7 31,41.8 30.5,41.4 30.8,40.9 30.3,41.2 29.9,40.8 30,41.4 29.5,41.6 
					30.1,41.7 				"/>
				<polygon class="st7" points="26.4,44.4 26.6,43.9 27.2,44 26.7,43.6 27,43.1 26.5,43.4 26.1,43 26.2,43.6 25.7,43.8 26.3,43.9 
									"/>
				<polygon class="st7" points="24.2,43.8 24.5,43.3 25,43.3 24.6,43 24.8,42.5 24.4,42.8 24,42.4 24.1,42.9 23.6,43.2 24.1,43.3 
									"/>
				<polygon class="st7" points="21.9,40.3 22.2,39.8 22.7,39.8 22.3,39.4 22.5,39 22.1,39.2 21.7,38.9 21.7,39.4 21.3,39.7 
					21.8,39.7 				"/>
				<polygon class="st7" points="22.5,38.1 22.7,37.6 23.2,37.7 22.8,37.3 23.1,36.8 22.6,37.1 22.2,36.7 22.3,37.3 21.8,37.5 
					22.4,37.6 				"/>
				<rect x="38.3" y="25.8" transform="matrix(0.866 -0.5 0.5 0.866 -14.3561 24.578)" class="st6" width="0.8" height="26.6"/>
			</g>
			<g>
				<g>
					<path class="st3" d="M9.9,25.5l2.9-5l1.4,0.8l-1.9,3.3l2,1.2l1.6-2.8l1.4,0.8l-1.6,2.8l3.7,2.1l-1,1.7L9.9,25.5z"/>
					<path class="st3" d="M16.1,16.5l2.3-1.9c1.7-1.4,3.4-1.4,4.6,0c0.8,0.9,0.9,2,0.4,3l5.2,1.4l-1.8,1.5l-4.6-1.4l-0.8,0.7
						l2.6,3.1l-1.5,1.3L16.1,16.5z M18.7,16.5l1.6,2l0.9-0.7c0.7-0.5,0.7-1.2,0.2-1.9c-0.5-0.6-1.2-0.7-1.8-0.1L18.7,16.5z"/>
					<path class="st3" d="M30.3,8l2.5-0.7L39,16l-2.1,0.5l-1.6-2.2l-3.8,1L31.3,18l-2.1,0.5L30.3,8z M34.3,12.8l-2.2-3.3l-0.4,3.9
						L34.3,12.8z"/>
					<path class="st3" d="M42.4,6.4l2.5,0.5l2.9,7.9l1.5-7l2,0.4l-2,9.7l-2.5-0.5l-2.9-7.9l-1.5,7l-2-0.4L42.4,6.4z"/>
					<path class="st3" d="M58.9,21.2l0.5,1.9c-1.5,0.4-3.1,0.1-4.5-1c-2.5-1.9-2.6-5.1-0.9-7.4s4.9-2.8,7.4-0.9
						c1.4,1.1,2.1,2.6,2,4.2l-2,0c0.1-1-0.3-2-1.2-2.7c-1.5-1.2-3.4-0.8-4.6,0.7c-1.2,1.5-1,3.4,0.4,4.6
						C56.9,21.4,58,21.5,58.9,21.2z"/>
					<path class="st3" d="M67.8,21.3l2.8,5l-1.5,0.8l-1.8-3.3l-2,1.1l1.5,2.8l-1.5,0.8l-1.5-2.8L61.6,27l1.8,3.3l-1.5,0.8l-2.8-5
						L67.8,21.3z"/>
				</g>
			</g>
			<g>
				<g>
					<path class="st3" d="M17.1,47.5l1.3,2.7c1,1.9,0.6,3.6-1.1,4.5c-1.1,0.5-2.1,0.4-3-0.3l-2.5,4.7l-1-2.1l2.4-4.1l-0.5-0.9
						l-3.6,1.8l-0.9-1.8L17.1,47.5z M16.5,50l-2.3,1.1l0.5,1c0.4,0.8,1,1,1.8,0.6c0.7-0.3,0.9-1,0.5-1.8L16.5,50z"/>
					<path class="st3" d="M21.5,55.3l4.1,4l-1.2,1.2l-2.7-2.6l-1.6,1.7l2.3,2.2L21.3,63l-2.3-2.2l-1.8,1.8l2.7,2.6l-1.2,1.2l-4.1-4
						L21.5,55.3z"/>
					<path class="st3" d="M27.4,60.4l1.8,0.9l-3.5,7.2l3.4,1.6l-0.8,1.6l-5.2-2.5L27.4,60.4z"/>
					<path class="st3" d="M36.8,63.7l2.6,0.2L42.3,74l-2.1-0.2l-0.7-2.6l-3.9-0.3l-1.2,2.5l-2.1-0.2L36.8,63.7z M39,69.5l-1-3.8
						l-1.7,3.6L39,69.5z"/>
					<path class="st3" d="M44,64l2.4-0.9l6.6,5.2l-2.5-6.7l1.9-0.7l3.4,9.3L53.4,71l-6.6-5.2l2.5,6.7l-1.9,0.7L44,64z"/>
					<path class="st3" d="M64,59.5l2-0.3c0.2,1.5-0.3,3.1-1.5,4.4c-2.2,2.2-5.4,2-7.4,0c-2-2-2.2-5.2,0-7.4c1.3-1.3,2.9-1.7,4.4-1.5
						l-0.3,2c-1-0.2-2,0.1-2.8,0.9c-1.3,1.3-1.2,3.3,0.1,4.6c1.3,1.3,3.3,1.4,4.6,0.1C63.9,61.5,64.2,60.5,64,59.5z"/>
					<path class="st3" d="M60.6,52.3L63,47l1.5,0.7L63,51.1l2.1,1l1.3-2.9l1.5,0.7l-1.3,2.9l2.3,1l1.5-3.4l1.5,0.7l-2.4,5.2
						L60.6,52.3z"/>
				</g>
			</g>
		</g>
	</g>
</g>
</svg>
