<?xml version="1.0" encoding="utf-8"?>
<!-- Generator: Adobe Illustrator 25.0.1, SVG Export Plug-In . SVG Version: 6.00 Build 0)  -->
<svg version="1.1" xmlns="http://www.w3.org/2000/svg" xmlns:xlink="http://www.w3.org/1999/xlink" x="0px" y="0px"
	 viewBox="0 0 266.62 210.58" style="enable-background:new 0 0 266.62 210.58;" xml:space="preserve">
<style type="text/css">
	.st0{fill:#E1000F;}
	.st1{fill:#FFFFFF;}
	.st2{fill:#000091;}
	.st3{fill:none;stroke:#000000;stroke-width:0.516;stroke-miterlimit:10;}
	.st4{fill:#9D9D9C;}
</style>
<g id="Calque_1">
	<g>
		<g>
			<g>
				<path d="M57.83,156.31l4.32,3.32c-2.47,3.36-6.49,5.52-11.39,5.52c-8.53,0-14.36-6.56-14.36-14.28s5.83-14.28,14.36-14.28
					c4.9,0,8.92,2.2,11.39,5.48l-4.32,3.36c-1.54-2.2-3.98-3.71-7.06-3.71c-5.1,0-8.72,3.98-8.72,9.15s3.63,9.15,8.72,9.15
					C53.85,160.01,56.28,158.51,57.83,156.31z"/>
				<path d="M92.57,150.86c0,7.72-5.83,14.28-14.32,14.28c-8.53,0-14.36-6.56-14.36-14.28s5.83-14.28,14.36-14.28
					C86.74,136.58,92.57,143.14,92.57,150.86z M86.93,150.86c0-5.17-3.63-9.15-8.69-9.15c-5.1,0-8.72,3.98-8.72,9.15
					s3.63,9.15,8.72,9.15C83.3,160.01,86.93,156.04,86.93,150.86z"/>
			</g>
			<g>
				<path d="M97.05,137.35h7.03l12.08,19.53v-19.53h5.48v27.02h-7.03l-12.08-19.53v19.53h-5.48V137.35z"/>
				<path d="M130.01,156.96c1.62,2.08,3.78,3.32,5.98,3.32c2.16,0,3.47-1.16,3.47-3.09c0-4.98-12.28-3.63-12.28-12.78
					c0-4.29,3.55-7.84,8.72-7.84c4.05,0,7.14,1.81,9.46,4.56l-4.02,3.63c-1.58-2.05-3.36-3.4-5.4-3.4c-1.93,0-3.2,1.24-3.2,2.86
					c0,4.9,12.28,3.51,12.28,12.78c-0.08,5.1-4.01,8.15-8.99,8.15c-4.56,0-7.61-1.66-10-4.52L130.01,156.96z"/>
			</g>
			<g>
				<path d="M149.97,137.35h15.75v4.56h-10.27v6.41h8.72v4.56h-8.72v6.95h10.27v4.56h-15.75V137.35z"/>
			</g>
			<g>
				<path d="M171.35,137.35h5.48v27.02h-5.48V137.35z"/>
			</g>
			<g>
				<path d="M183.63,137.35h5.48v22.04h10.27v4.98h-15.75V137.35z"/>
			</g>
			<g>
				<path d="M203.47,137.35h5.48v22.04h10.27v4.98h-15.75V137.35z"/>
			</g>
			<g>
				<path d="M223.27,137.35h15.75v4.56h-10.27v6.41h8.72v4.56h-8.72v6.95h10.27v4.56h-15.75V137.35z"/>
				<path d="M244.66,137.35h8.26c5.94,0,9.61,3.05,9.61,8.07c0,3.28-1.58,5.71-4.36,6.99l8.45,11.97h-6.45l-7.22-10.92h-2.82v10.92
					h-5.48V137.35z M250.14,141.91v6.99h3.09c2.32,0,3.67-1.35,3.67-3.55c0-2.05-1.35-3.44-3.67-3.44H250.14z"/>
			</g>
			<g>
				<path d="M36.79,176.46h7.03l12.08,19.53v-19.53h5.48v27.02h-7.03l-12.08-19.53v19.53h-5.48V176.46z"/>
				<path d="M84.23,176.46h5.48v16.45c0,7.1-4.17,11.35-10.96,11.35c-6.76,0-10.93-4.25-10.93-11.35v-16.45h5.48v16.91
					c0,3.63,2.05,5.75,5.48,5.75c3.36,0,5.44-2.12,5.44-5.75V176.46z"/>
				<path d="M96.16,176.46h6.83l6.6,11.35l6.6-11.35h6.83v27.02h-5.48V184.1l-6.02,10.11h-3.86l-6.02-10.11v19.38h-5.48V176.46z"/>
				<path d="M130.2,176.46h15.75v4.56h-10.27v6.41h8.72v4.56h-8.72v6.95h10.27v4.56H130.2V176.46z M135.53,174.14l4.36-5.21h5.64
					l-5.02,5.21H135.53z"/>
				<path d="M151.93,176.46h8.26c5.94,0,9.61,3.05,9.61,8.07c0,3.28-1.58,5.71-4.36,6.99l8.45,11.97h-6.45l-7.22-10.92h-2.82v10.92
					h-5.48V176.46z M157.42,181.01V188h3.09c2.32,0,3.67-1.35,3.67-3.55c0-2.05-1.35-3.44-3.67-3.44H157.42z"/>
				<path d="M177.02,176.46h5.48v27.02h-5.48V176.46z"/>
				<path d="M218.06,205.37c0.58,0,1.35-0.08,1.93-0.31v4.63c-0.89,0.35-1.66,0.5-2.86,0.5c-3.01,0-5.79-1.24-8.45-3.55l-3.2-2.86
					c-1.16,0.31-2.39,0.46-3.71,0.46c-8.53,0-14.36-6.56-14.36-14.28s5.83-14.28,14.36-14.28c8.49,0,14.32,6.56,14.32,14.28
					c0,4.52-2.01,8.65-5.33,11.27l1.62,1.54C214.47,204.68,216.32,205.37,218.06,205.37z M210.45,189.97c0-5.17-3.63-9.15-8.69-9.15
					c-5.1,0-8.72,3.98-8.72,9.15s3.63,9.15,8.72,9.15C206.83,199.12,210.45,195.14,210.45,189.97z"/>
				<path d="M236.59,176.46h5.48v16.45c0,7.1-4.17,11.35-10.96,11.35c-6.76,0-10.93-4.25-10.93-11.35v-16.45h5.48v16.91
					c0,3.63,2.05,5.75,5.48,5.75c3.36,0,5.44-2.12,5.44-5.75V176.46z"/>
				<path d="M248.51,176.46h15.75v4.56h-10.27v6.41h8.72v4.56h-8.72v6.95h10.27v4.56h-15.75V176.46z"/>
			</g>
			<polygon class="st0" points="72.13,0.08 36.4,20.7 36.4,61.96 70.22,120.32 74.04,120.32 107.86,61.96 107.86,20.7 			"/>
			<polygon class="st1" points="82.34,35.43 95.89,35.43 95.89,27.62 72.13,13.9 48.37,27.62 48.37,55.05 72.13,68.77 95.89,55.05 
				95.89,47.23 82.34,47.23 			"/>
			<polygon class="st2" points="82.34,47.23 82.34,35.43 72.13,29.53 61.91,35.43 61.91,47.23 72.13,53.13 			"/>
			<line class="st3" x1="0.39" y1="0.08" x2="0.39" y2="203.46"/>
		</g>
	</g>
</g>
<g id="Calque_2">
</g>
</svg>
