<?xml version="1.0" encoding="utf-8"?>
<!-- Generator: Adobe Illustrator 25.0.0, SVG Export Plug-In . SVG Version: 6.00 Build 0)  -->
<svg version="1.1" xmlns="http://www.w3.org/2000/svg" xmlns:xlink="http://www.w3.org/1999/xlink" x="0px" y="0px"
	 viewBox="0 0 180.8 180.8" style="enable-background:new 0 0 180.8 180.8;" xml:space="preserve">
<style type="text/css">
	.st0{fill:#2FAC66;}
	.st1{fill:#E20E18;}
	.st2{fill:#FFFFFF;}
	.st3{fill:#253574;}
	.st4{fill:#FFE910;}
</style>
<g id="Calque_1">
	<g>
		
			<text transform="matrix(1 0 0 1 -1028.6794 -115.7748)" style="fill:#878787; font-family:'Marianne-Regular'; font-size:6.9571px;">Logotype</text>
	</g>
	<g>
		
			<text transform="matrix(1 0 0 1 -1028.679 -145.9211)" style="fill:#575756; font-family:'Marianne-Regular'; font-size:12.9818px;">France Relance</text>
	</g>
	<rect x="-657.3" y="-132.5" class="st0" width="363.5" height="465.9"/>
	<g>
		<text transform="matrix(1 0 0 1 -645.7325 -115.7745)" class="st2" style="font-family:'Marianne-Regular'; font-size:6.9571px;">Logotype négatif</text>
	</g>
</g>
<g id="Calque_2">
	<g>
		<path class="st0" d="M-864.1,180.8c-49.9,0-90.4-40.6-90.4-90.4c0-49.9,40.6-90.4,90.4-90.4c49.9,0,90.4,40.6,90.4,90.4
			C-773.7,140.3-814.2,180.8-864.1,180.8z M-864.1,5c-47.1,0-85.4,38.3-85.4,85.4c0,47.1,38.3,85.4,85.4,85.4
			c47.1,0,85.4-38.3,85.4-85.4C-778.6,43.3-817,5-864.1,5z"/>
		<path class="st0" d="M-864.1,136.4c-25.4,0-46-20.6-46-46s20.6-46,46-46s46,20.6,46,46S-838.7,136.4-864.1,136.4z M-864.1,46.2
			c-24.4,0-44.2,19.8-44.2,44.2c0,24.4,19.8,44.2,44.2,44.2s44.2-19.8,44.2-44.2C-819.9,66.1-839.7,46.2-864.1,46.2z"/>
		<g>
			
				<rect x="-834.6" y="89.1" transform="matrix(0.5 -0.866 0.866 0.5 -493.9615 -661.0268)" class="st1" width="30.3" height="16.4"/>
			
				<rect x="-848.8" y="80.9" transform="matrix(0.5 -0.866 0.866 0.5 -493.9615 -677.4268)" class="st2" width="30.3" height="16.4"/>
			<rect x="-863" y="72.7" transform="matrix(0.5 -0.866 0.866 0.5 -493.9618 -693.8264)" class="st3" width="30.3" height="16.4"/>
			<path class="st3" d="M-846.8,66l39.7,22.9l-13.5,23.3l-39.7-22.9L-846.8,66 M-847.4,63.7l-15.1,26.2l42.6,24.6l15.1-26.2
				L-847.4,63.7L-847.4,63.7z"/>
			
				<rect x="-891.2" y="87.4" transform="matrix(0.4999 -0.8661 0.8661 0.4999 -507.133 -701.616)" class="st3" width="60.2" height="1.9"/>
			
				<rect x="-919.1" y="73.8" transform="matrix(0.866 -0.5 0.5 0.866 -164.3194 -435.3514)" class="st3" width="49.2" height="30.3"/>
			<polygon class="st4" points="-890,99.2 -889.5,98.1 -888.3,98.2 -889.2,97.4 -888.6,96.3 -889.7,96.9 -890.6,96.1 -890.4,97.3 
				-891.5,97.9 -890.2,98 			"/>
			<polygon class="st4" points="-899.6,82.1 -899,81 -897.8,81.1 -898.7,80.3 -898.2,79.2 -899.3,79.8 -900.2,79 -899.9,80.2 
				-901,80.8 -899.8,80.9 			"/>
			<polygon class="st4" points="-903.7,95.7 -903.2,94.6 -901.9,94.7 -902.8,93.9 -902.3,92.8 -903.3,93.4 -904.3,92.6 -904,93.8 
				-905.1,94.4 -903.9,94.5 			"/>
			<polygon class="st4" points="-886,85.4 -885.4,84.3 -884.2,84.4 -885.1,83.6 -884.5,82.5 -885.6,83.1 -886.5,82.3 -886.3,83.5 
				-887.4,84.2 -886.2,84.2 			"/>
			<polygon class="st4" points="-894.4,80.7 -893.9,79.5 -892.6,79.7 -893.5,78.8 -893,77.7 -894.1,78.4 -895,77.6 -894.8,78.8 
				-895.8,79.4 -894.6,79.5 			"/>
			<polygon class="st4" points="-889.4,82 -888.9,80.9 -887.7,81 -888.6,80.2 -888,79.1 -889.1,79.7 -890,78.9 -889.8,80.1 
				-890.9,80.7 -889.7,80.8 			"/>
			<polygon class="st4" points="-884.9,90.3 -884.4,89.2 -883.2,89.3 -884.1,88.5 -883.5,87.4 -884.6,88 -885.5,87.2 -885.3,88.4 
				-886.4,89.1 -885.2,89.1 			"/>
			<polygon class="st4" points="-886.3,95.4 -885.8,94.2 -884.6,94.4 -885.5,93.5 -884.9,92.4 -886,93 -886.9,92.3 -886.7,93.5 
				-887.8,94.1 -886.6,94.2 			"/>
			<polygon class="st4" points="-894.9,100.3 -894.4,99.2 -893.2,99.3 -894.1,98.5 -893.5,97.4 -894.6,98 -895.5,97.2 -895.3,98.4 
				-896.4,99 -895.2,99.1 			"/>
			<polygon class="st4" points="-899.8,98.9 -899.2,97.8 -898,97.9 -898.9,97.1 -898.4,96 -899.4,96.6 -900.4,95.8 -900.2,97 
				-901.2,97.6 -900,97.7 			"/>
			<polygon class="st4" points="-905,91 -904.5,89.9 -903.2,90 -904.1,89.1 -903.6,88 -904.6,88.7 -905.6,87.9 -905.4,89.1 
				-906.4,89.7 -905.2,89.8 			"/>
			<polygon class="st4" points="-903.7,86.1 -903.2,85 -902,85.1 -902.9,84.3 -902.3,83.2 -903.4,83.8 -904.4,83 -904.1,84.2 
				-905.2,84.8 -904,84.9 			"/>
			<rect x="-868" y="58.2" transform="matrix(0.866 -0.5 0.5 0.866 -160.3197 -421.719)" class="st3" width="1.9" height="60.2"/>
		</g>
		<g>
			<g>
				<path class="st0" d="M-932.2,57.6l6.5-11.3l3.3,1.9l-4.2,7.4l4.6,2.6l3.6-6.3l3.3,1.9l-3.6,6.3l8.3,4.7l-2.2,3.9L-932.2,57.6z"
					/>
				<path class="st0" d="M-918.1,37.2l5.2-4.4c3.8-3.1,7.7-3.1,10.4,0c1.7,2.1,2,4.5,0.9,6.7l11.7,3.1l-4.1,3.4l-10.4-3.1l-1.8,1.5
					l5.8,6.9l-3.5,2.9L-918.1,37.2z M-912.2,37.2l3.7,4.4l2-1.6c1.5-1.2,1.6-2.8,0.5-4.2c-1.1-1.3-2.7-1.5-4.1-0.2L-912.2,37.2z"/>
				<path class="st0" d="M-885.9,18.2l5.7-1.5l13.8,19.5l-4.7,1.2l-3.5-5.1l-8.6,2.3l-0.6,6.2l-4.7,1.2L-885.9,18.2z M-876.9,28.9
					l-5.1-7.3l-0.8,8.9L-876.9,28.9z"/>
				<path class="st0" d="M-858.7,14.5l5.7,1.2l6.5,17.8l3.3-15.8l4.4,0.9l-4.5,21.9l-5.7-1.2l-6.5-17.8l-3.3,15.8l-4.4-0.9
					L-858.7,14.5z"/>
				<path class="st0" d="M-821.4,48l1.1,4.4c-3.3,0.9-7,0.3-10.2-2.2c-5.5-4.4-6-11.6-2-16.6c3.9-5,11.1-6.3,16.6-1.9
					c3.2,2.5,4.7,6,4.6,9.4l-4.5,0c0.1-2.2-0.7-4.4-2.7-6c-3.3-2.6-7.7-1.9-10.3,1.5c-2.6,3.4-2.3,7.8,1,10.4
					C-825.9,48.3-823.5,48.6-821.4,48z"/>
				<path class="st0" d="M-801.3,48.1l6.3,11.4l-3.3,1.8l-4.1-7.4l-4.6,2.6l3.5,6.3l-3.3,1.8l-3.5-6.3l-5,2.8l4.1,7.4l-3.3,1.8
					l-6.3-11.4L-801.3,48.1z"/>
			</g>
		</g>
		<g>
			<g>
				<path class="st0" d="M-915.8,107.3l3,6.1c2.2,4.4,1.3,8.2-2.4,10.1c-2.4,1.2-4.8,0.9-6.8-0.7l-5.7,10.7l-2.4-4.8l5.4-9.4l-1-2.1
					l-8.1,4l-2-4.1L-915.8,107.3z M-917.2,113.1l-5.2,2.6l1.1,2.3c0.9,1.7,2.3,2.2,4,1.4c1.5-0.8,2-2.3,1.2-4L-917.2,113.1z"/>
				<path class="st0" d="M-905.8,125l9.4,9l-2.6,2.7l-6.1-5.9l-3.7,3.8l5.2,5l-2.6,2.7l-5.2-5l-4,4.1l6.1,5.9l-2.6,2.7l-9.4-9
					L-905.8,125z"/>
				<path class="st0" d="M-892.5,136.5l4.1,2l-8,16.4l7.6,3.7l-1.8,3.7l-11.7-5.7L-892.5,136.5z"/>
				<path class="st0" d="M-871.4,143.8l5.9,0.5l6.6,23l-4.8-0.4l-1.7-6l-8.9-0.7l-2.6,5.6l-4.8-0.4L-871.4,143.8z M-866.5,157
					l-2.4-8.6l-3.7,8.1L-866.5,157z"/>
				<path class="st0" d="M-855.2,144.5l5.5-2l14.9,11.7l-5.6-15.2l4.3-1.6l7.7,21l-5.4,2l-14.9-11.7l5.6,15.2l-4.3,1.6L-855.2,144.5
					z"/>
				<path class="st0" d="M-809.9,134.5l4.5-0.6c0.5,3.4-0.6,7-3.4,9.9c-5,5-12.2,4.5-16.7,0c-4.5-4.5-4.9-11.8,0.1-16.7
					c2.9-2.9,6.5-3.9,9.9-3.4l-0.6,4.5c-2.2-0.4-4.5,0.1-6.3,1.9c-3,3-2.8,7.4,0.2,10.4s7.5,3.2,10.4,0.3
					C-810.1,139-809.5,136.7-809.9,134.5z"/>
				<path class="st0" d="M-817.5,118.1l5.3-11.9l3.4,1.5l-3.5,7.7l4.8,2.2l3-6.6l3.4,1.5l-3,6.6l5.2,2.4l3.5-7.7l3.4,1.5l-5.3,11.9
					L-817.5,118.1z"/>
			</g>
		</g>
	</g>
	<g>
		<path class="st2" d="M-475.5,180.8c-49.9,0-90.4-40.6-90.4-90.4S-525.4,0-475.5,0c49.9,0,90.4,40.6,90.4,90.4
			S-425.7,180.8-475.5,180.8z M-475.5,5C-522.6,5-561,43.3-561,90.4s38.3,85.4,85.4,85.4c47.1,0,85.4-38.3,85.4-85.4
			S-428.4,5-475.5,5z"/>
		<path class="st2" d="M-475.5,136.4c-25.4,0-46-20.6-46-46c0-25.4,20.6-46,46-46s46,20.6,46,46
			C-429.5,115.8-450.2,136.4-475.5,136.4z M-475.5,46.2c-24.4,0-44.2,19.8-44.2,44.2s19.8,44.2,44.2,44.2s44.2-19.8,44.2-44.2
			S-451.2,46.2-475.5,46.2z"/>
		<g>
			<rect x="-446" y="89.1" transform="matrix(0.5 -0.866 0.866 0.5 -299.6792 -324.5239)" class="st1" width="30.3" height="16.4"/>
			
				<rect x="-460.2" y="80.9" transform="matrix(0.5 -0.866 0.866 0.5 -299.6792 -340.9239)" class="st2" width="30.3" height="16.4"/>
			
				<rect x="-474.4" y="72.7" transform="matrix(0.5 -0.866 0.866 0.5 -299.6796 -357.3235)" class="st3" width="30.3" height="16.4"/>
			<path class="st3" d="M-458.2,66l39.7,22.9l-13.5,23.3l-39.7-22.9L-458.2,66 M-458.8,63.7L-474,89.9l42.6,24.6l15.1-26.2
				L-458.8,63.7L-458.8,63.7z"/>
			
				<rect x="-502.6" y="87.4" transform="matrix(0.5001 -0.866 0.866 0.5001 -312.6802 -365.0411)" class="st3" width="60.2" height="1.9"/>
			
				<rect x="-530.6" y="73.8" transform="matrix(0.866 -0.5 0.5 0.866 -112.2629 -241.0732)" class="st3" width="49.2" height="30.3"/>
			<polygon class="st4" points="-501.4,99.2 -500.9,98.1 -499.7,98.2 -500.6,97.4 -500.1,96.3 -501.1,96.9 -502,96.1 -501.8,97.3 
				-502.9,97.9 -501.7,98 			"/>
			<polygon class="st4" points="-511,82.1 -510.5,81 -509.3,81.1 -510.2,80.3 -509.6,79.2 -510.7,79.8 -511.6,79 -511.4,80.2 
				-512.4,80.8 -511.3,80.9 			"/>
			<polygon class="st4" points="-515.1,95.7 -514.6,94.6 -513.4,94.7 -514.3,93.9 -513.7,92.8 -514.8,93.4 -515.7,92.6 -515.5,93.8 
				-516.6,94.4 -515.4,94.5 			"/>
			<polygon class="st4" points="-497.4,85.4 -496.9,84.3 -495.6,84.4 -496.5,83.6 -496,82.5 -497.1,83.1 -498,82.3 -497.8,83.5 
				-498.8,84.2 -497.6,84.2 			"/>
			<polygon class="st4" points="-505.8,80.7 -505.3,79.5 -504.1,79.7 -505,78.8 -504.4,77.7 -505.5,78.4 -506.4,77.6 -506.2,78.8 
				-507.3,79.4 -506.1,79.5 			"/>
			<polygon class="st4" points="-500.9,82 -500.3,80.9 -499.1,81 -500,80.2 -499.5,79.1 -500.5,79.7 -501.5,78.9 -501.3,80.1 
				-502.3,80.7 -501.1,80.8 			"/>
			<polygon class="st4" points="-496.4,90.3 -495.9,89.2 -494.6,89.3 -495.5,88.5 -495,87.4 -496,88 -497,87.2 -496.8,88.4 
				-497.8,89.1 -496.6,89.1 			"/>
			<polygon class="st4" points="-497.8,95.4 -497.2,94.2 -496,94.4 -496.9,93.5 -496.4,92.4 -497.4,93 -498.4,92.3 -498.2,93.5 
				-499.2,94.1 -498,94.2 			"/>
			<polygon class="st4" points="-506.4,100.3 -505.8,99.2 -504.6,99.3 -505.5,98.5 -505,97.4 -506,98 -507,97.2 -506.7,98.4 
				-507.8,99 -506.6,99.1 			"/>
			<polygon class="st4" points="-511.2,98.9 -510.7,97.8 -509.5,97.9 -510.4,97.1 -509.8,96 -510.9,96.6 -511.8,95.8 -511.6,97 
				-512.7,97.6 -511.5,97.7 			"/>
			<polygon class="st4" points="-516.4,91 -515.9,89.9 -514.7,90 -515.6,89.1 -515,88 -516.1,88.7 -517,87.9 -516.8,89.1 
				-517.9,89.7 -516.7,89.8 			"/>
			<polygon class="st4" points="-515.2,86.1 -514.7,85 -513.4,85.1 -514.3,84.3 -513.8,83.2 -514.9,83.8 -515.8,83 -515.6,84.2 
				-516.6,84.8 -515.4,84.9 			"/>
			
				<rect x="-479.5" y="58.2" transform="matrix(0.866 -0.5 0.5 0.866 -108.2632 -227.4401)" class="st3" width="1.9" height="60.2"/>
		</g>
		<g>
			<g>
				<path class="st2" d="M-543.6,57.6l6.5-11.3l3.3,1.9l-4.2,7.4l4.6,2.6l3.6-6.3l3.3,1.9l-3.6,6.3l8.3,4.7l-2.2,3.9L-543.6,57.6z"
					/>
				<path class="st2" d="M-529.5,37.2l5.2-4.4c3.8-3.1,7.7-3.1,10.4,0c1.7,2.1,2,4.5,0.9,6.7l11.7,3.1l-4.1,3.4l-10.4-3.1l-1.8,1.5
					l5.8,6.9l-3.5,2.9L-529.5,37.2z M-523.6,37.2l3.7,4.4l2-1.6c1.5-1.2,1.6-2.8,0.5-4.2c-1.1-1.3-2.7-1.5-4.1-0.2L-523.6,37.2z"/>
				<path class="st2" d="M-497.4,18.2l5.7-1.5l13.8,19.5l-4.7,1.2l-3.5-5.1l-8.6,2.3l-0.6,6.2l-4.7,1.2L-497.4,18.2z M-488.4,28.9
					l-5.1-7.3l-0.8,8.9L-488.4,28.9z"/>
				<path class="st2" d="M-470.1,14.5l5.7,1.2l6.5,17.8l3.3-15.8l4.4,0.9l-4.5,21.9l-5.7-1.2l-6.5-17.8l-3.3,15.8l-4.4-0.9
					L-470.1,14.5z"/>
				<path class="st2" d="M-432.9,48l1.1,4.4c-3.3,0.9-7,0.3-10.2-2.2c-5.5-4.4-6-11.6-2-16.6c3.9-5,11.1-6.3,16.6-1.9
					c3.2,2.5,4.7,6,4.6,9.4l-4.5,0c0.1-2.2-0.7-4.4-2.7-6c-3.3-2.6-7.7-1.9-10.3,1.5c-2.6,3.4-2.3,7.8,1,10.4
					C-437.3,48.3-435,48.6-432.9,48z"/>
				<path class="st2" d="M-412.8,48.1l6.3,11.4l-3.3,1.8l-4.1-7.4l-4.6,2.6l3.5,6.3l-3.3,1.8l-3.5-6.3l-5,2.8l4.1,7.4l-3.3,1.8
					l-6.3-11.4L-412.8,48.1z"/>
			</g>
		</g>
		<g>
			<g>
				<path class="st2" d="M-527.2,107.3l3,6.1c2.2,4.4,1.3,8.2-2.4,10.1c-2.4,1.2-4.8,0.9-6.8-0.7l-5.7,10.7l-2.4-4.8l5.4-9.4l-1-2.1
					l-8.1,4l-2-4.1L-527.2,107.3z M-528.6,113.1l-5.2,2.6l1.1,2.3c0.9,1.7,2.3,2.2,4,1.4c1.5-0.8,2-2.3,1.2-4L-528.6,113.1z"/>
				<path class="st2" d="M-517.3,125l9.4,9l-2.6,2.7l-6.1-5.9l-3.7,3.8l5.2,5l-2.6,2.7l-5.2-5l-4,4.1l6.1,5.9l-2.6,2.7l-9.4-9
					L-517.3,125z"/>
				<path class="st2" d="M-504,136.5l4.1,2l-8,16.4l7.6,3.7l-1.8,3.7l-11.7-5.7L-504,136.5z"/>
				<path class="st2" d="M-482.9,143.8l5.9,0.5l6.6,23l-4.8-0.4l-1.7-6l-8.9-0.7l-2.6,5.6l-4.8-0.4L-482.9,143.8z M-477.9,157
					l-2.4-8.6l-3.7,8.1L-477.9,157z"/>
				<path class="st2" d="M-466.6,144.5l5.5-2l14.9,11.7l-5.6-15.2l4.3-1.6l7.7,21l-5.5,2l-14.9-11.7l5.6,15.2l-4.3,1.6L-466.6,144.5
					z"/>
				<path class="st2" d="M-421.3,134.5l4.5-0.6c0.5,3.4-0.6,7-3.4,9.9c-5,5-12.2,4.5-16.7,0c-4.5-4.5-4.9-11.8,0.1-16.7
					c2.9-2.9,6.5-3.9,9.9-3.4l-0.6,4.5c-2.2-0.4-4.5,0.1-6.3,1.9c-3,3-2.8,7.4,0.2,10.4s7.5,3.2,10.4,0.3
					C-421.5,139-421,136.7-421.3,134.5z"/>
				<path class="st2" d="M-428.9,118.1l5.3-11.9l3.4,1.5l-3.5,7.7l4.8,2.2l3-6.6l3.4,1.5l-3,6.6l5.2,2.4l3.5-7.7l3.4,1.5l-5.3,11.9
					L-428.9,118.1z"/>
			</g>
		</g>
	</g>
	<g>
		<path class="st2" d="M90.4,180.8C40.6,180.8,0,140.3,0,90.4S40.6,0,90.4,0c49.9,0,90.4,40.6,90.4,90.4S140.3,180.8,90.4,180.8z
			 M90.4,5C43.3,5,5,43.3,5,90.4s38.3,85.4,85.4,85.4c47.1,0,85.4-38.3,85.4-85.4S137.5,5,90.4,5z"/>
		<path class="st2" d="M90.4,136.4c-25.4,0-46-20.6-46-46c0-25.4,20.6-46,46-46s46,20.6,46,46C136.4,115.8,115.8,136.4,90.4,136.4z
			 M90.4,46.2c-24.4,0-44.2,19.8-44.2,44.2s19.8,44.2,44.2,44.2s44.2-19.8,44.2-44.2S114.8,46.2,90.4,46.2z"/>
		<g>
			<rect x="119.9" y="89.1" transform="matrix(0.5 -0.866 0.866 0.5 -16.7009 165.6034)" class="st1" width="30.3" height="16.4"/>
			<rect x="105.7" y="80.9" transform="matrix(0.5 -0.866 0.866 0.5 -16.7009 149.2034)" class="st2" width="30.3" height="16.4"/>
			<rect x="91.5" y="72.7" transform="matrix(0.5 -0.866 0.866 0.5 -16.7013 132.8038)" class="st3" width="30.3" height="16.4"/>
			<path class="st3" d="M107.7,66l39.7,22.9L134,112.2L94.3,89.3L107.7,66 M107.1,63.7L92,89.9l42.6,24.6l15.1-26.2L107.1,63.7
				L107.1,63.7z"/>
			
				<rect x="63.3" y="87.4" transform="matrix(0.5001 -0.866 0.866 0.5001 -29.7551 125.0555)" class="st3" width="60.2" height="1.9"/>
			<rect x="35.4" y="73.8" transform="matrix(0.866 -0.5 0.5 0.866 -36.441 41.8992)" class="st3" width="49.2" height="30.3"/>
			<polygon class="st4" points="64.5,99.2 65,98.1 66.2,98.2 65.3,97.4 65.9,96.3 64.8,96.9 63.9,96.1 64.1,97.3 63.1,97.9 64.3,98 
							"/>
			<polygon class="st4" points="54.9,82.1 55.5,81 56.7,81.1 55.8,80.3 56.3,79.2 55.2,79.8 54.3,79 54.6,80.2 53.5,80.8 54.7,80.9 
							"/>
			<polygon class="st4" points="50.8,95.7 51.3,94.6 52.6,94.7 51.7,93.9 52.3,92.8 51.2,93.4 50.2,92.6 50.5,93.8 49.4,94.4 
				50.6,94.5 			"/>
			<polygon class="st4" points="68.6,85.4 69.1,84.3 70.3,84.4 69.4,83.6 70,82.5 68.9,83.1 68,82.3 68.2,83.5 67.1,84.2 68.3,84.2 
							"/>
			<polygon class="st4" points="60.1,80.7 60.7,79.5 61.9,79.7 61,78.8 61.5,77.7 60.5,78.4 59.5,77.6 59.7,78.8 58.7,79.4 
				59.9,79.5 			"/>
			<polygon class="st4" points="65.1,82 65.6,80.9 66.8,81 65.9,80.2 66.5,79.1 65.4,79.7 64.5,78.9 64.7,80.1 63.6,80.7 64.8,80.8 
							"/>
			<polygon class="st4" points="69.6,90.3 70.1,89.2 71.3,89.3 70.4,88.5 71,87.4 69.9,88 69,87.2 69.2,88.4 68.1,89.1 69.3,89.1 
							"/>
			<polygon class="st4" points="68.2,95.4 68.7,94.2 69.9,94.4 69,93.5 69.6,92.4 68.5,93 67.6,92.3 67.8,93.5 66.7,94.1 67.9,94.2 
							"/>
			<polygon class="st4" points="59.6,100.3 60.1,99.2 61.4,99.3 60.4,98.5 61,97.4 59.9,98 59,97.2 59.2,98.4 58.1,99 59.3,99.1 			
				"/>
			<polygon class="st4" points="54.7,98.9 55.3,97.8 56.5,97.9 55.6,97.1 56.1,96 55.1,96.6 54.1,95.8 54.4,97 53.3,97.6 54.5,97.7 
							"/>
			<polygon class="st4" points="49.5,91 50,89.9 51.3,90 50.4,89.1 50.9,88 49.9,88.7 48.9,87.9 49.1,89.1 48.1,89.7 49.3,89.8 			
				"/>
			<polygon class="st4" points="50.8,86.1 51.3,85 52.5,85.1 51.6,84.3 52.2,83.2 51.1,83.8 50.1,83 50.4,84.2 49.3,84.8 50.5,84.9 
							"/>
			<rect x="86.5" y="58.2" transform="matrix(0.866 -0.5 0.5 0.866 -32.4389 55.5364)" class="st3" width="1.9" height="60.2"/>
		</g>
		<g>
			<g>
				<path class="st2" d="M22.3,57.6l6.5-11.3l3.3,1.9l-4.2,7.4l4.6,2.6l3.6-6.3l3.3,1.9L35.7,60l8.3,4.7l-2.2,3.9L22.3,57.6z"/>
				<path class="st2" d="M36.4,37.2l5.2-4.4c3.8-3.1,7.7-3.1,10.4,0c1.7,2.1,2,4.5,0.9,6.7l11.7,3.1l-4.1,3.4l-10.4-3.1l-1.8,1.5
					l5.8,6.9l-3.5,2.9L36.4,37.2z M42.3,37.2l3.7,4.4l2-1.6c1.5-1.2,1.6-2.8,0.5-4.2c-1.1-1.3-2.7-1.5-4.1-0.2L42.3,37.2z"/>
				<path class="st2" d="M68.6,18.2l5.7-1.5l13.8,19.5l-4.7,1.2l-3.5-5.1l-8.6,2.3l-0.6,6.2L66,41.9L68.6,18.2z M77.6,28.9l-5.1-7.3
					l-0.8,8.9L77.6,28.9z"/>
				<path class="st2" d="M95.8,14.5l5.7,1.2l6.5,17.8l3.3-15.8l4.4,0.9l-4.5,21.9l-5.7-1.2L99,21.5l-3.3,15.8l-4.4-0.9L95.8,14.5z"
					/>
				<path class="st2" d="M133.1,48l1.1,4.4c-3.3,0.9-7,0.3-10.2-2.2c-5.5-4.4-6-11.6-2-16.6c3.9-5,11.1-6.3,16.6-1.9
					c3.2,2.5,4.7,6,4.6,9.4l-4.5,0c0.1-2.2-0.7-4.4-2.7-6c-3.3-2.6-7.7-1.9-10.3,1.5c-2.6,3.4-2.3,7.8,1,10.4
					C128.6,48.3,131,48.6,133.1,48z"/>
				<path class="st2" d="M153.2,48.1l6.3,11.4l-3.3,1.8l-4.1-7.4l-4.6,2.6l3.5,6.3l-3.3,1.8l-3.5-6.3l-5,2.8l4.1,7.4l-3.3,1.8
					l-6.3-11.4L153.2,48.1z"/>
			</g>
		</g>
		<g>
			<g>
				<path class="st2" d="M38.7,107.3l3,6.1c2.2,4.4,1.3,8.2-2.4,10.1c-2.4,1.2-4.8,0.9-6.8-0.7l-5.7,10.7l-2.4-4.8l5.4-9.4l-1-2.1
					l-8.1,4l-2-4.1L38.7,107.3z M37.3,113.1l-5.2,2.6l1.1,2.3c0.9,1.7,2.3,2.2,4,1.4c1.5-0.8,2-2.3,1.2-4L37.3,113.1z"/>
				<path class="st2" d="M48.7,125l9.4,9l-2.6,2.7l-6.1-5.9l-3.7,3.8l5.2,5l-2.6,2.7l-5.2-5l-4,4.1l6.1,5.9l-2.6,2.7l-9.4-9
					L48.7,125z"/>
				<path class="st2" d="M62,136.5l4.1,2l-8,16.4l7.6,3.7l-1.8,3.7l-11.7-5.7L62,136.5z"/>
				<path class="st2" d="M83.1,143.8l5.9,0.5l6.6,23l-4.8-0.4l-1.7-6l-8.9-0.7l-2.6,5.6l-4.8-0.4L83.1,143.8z M88.1,157l-2.4-8.6
					l-3.7,8.1L88.1,157z"/>
				<path class="st2" d="M99.3,144.5l5.5-2l14.9,11.7l-5.6-15.2l4.3-1.6l7.7,21l-5.5,2l-14.9-11.7l5.6,15.2l-4.3,1.6L99.3,144.5z"/>
				<path class="st2" d="M144.6,134.5l4.5-0.6c0.5,3.4-0.6,7-3.4,9.9c-5,5-12.2,4.5-16.7,0c-4.5-4.5-4.9-11.8,0.1-16.7
					c2.9-2.9,6.5-3.9,9.9-3.4l-0.6,4.5c-2.2-0.4-4.5,0.1-6.3,1.9c-3,3-2.8,7.4,0.2,10.4s7.5,3.2,10.4,0.3
					C144.5,139,145,136.7,144.6,134.5z"/>
				<path class="st2" d="M137,118.1l5.3-11.9l3.4,1.5l-3.5,7.7l4.8,2.2l3-6.6l3.4,1.5l-3,6.6l5.2,2.4l3.5-7.7l3.4,1.5l-5.3,11.9
					L137,118.1z"/>
			</g>
		</g>
	</g>
</g>
</svg>
