<?xml version="1.0" encoding="utf-8"?>
<!-- Generator: Adobe Illustrator 25.0.1, SVG Export Plug-In . SVG Version: 6.00 Build 0)  -->
<svg version="1.1" xmlns="http://www.w3.org/2000/svg" xmlns:xlink="http://www.w3.org/1999/xlink" x="0px" y="0px"
	 viewBox="0 0 452.91 254.76" style="enable-background:new 0 0 452.91 254.76;" xml:space="preserve">
<style type="text/css">
	.st0{fill:#FFFFFF;}
	.st1{fill:#01015B;}
	.st2{fill:#F7F6F0;}
	.st3{fill:#ABCDF5;}
	.st4{fill-rule:evenodd;clip-rule:evenodd;fill:#F7F6F0;}
	.st5{fill-rule:evenodd;clip-rule:evenodd;fill:#66BCD5;}
	.st6{fill:#D38742;}
	.st7{fill-rule:evenodd;clip-rule:evenodd;fill:#000090;}
	.st8{fill:#F4A086;}
	.st9{fill:#A0B5BF;}
	.st10{fill-rule:evenodd;clip-rule:evenodd;fill:#01015B;}
	.st11{fill:#F7B690;}
	.st12{fill:#0067E2;}
	.st13{fill:#FF2D2D;}
	.st14{fill:#04518A;stroke:#04518A;stroke-width:0.3287;stroke-miterlimit:10;}
	.st15{fill:#000090;}
	.st16{fill-rule:evenodd;clip-rule:evenodd;fill:#18898D;}
	.st17{fill-rule:evenodd;clip-rule:evenodd;fill:#0067E2;}
	.st18{clip-path:url(#SVGID_4_);}
	.st19{clip-path:url(#SVGID_6_);}
	.st20{fill:none;stroke:#000090;stroke-width:2.3368;stroke-linecap:round;stroke-miterlimit:10;}
	.st21{fill:none;stroke:#000090;stroke-width:2.3368;stroke-linecap:round;stroke-miterlimit:10;stroke-dasharray:4.0751,4.0751;}
	.st22{fill:none;stroke:#000090;stroke-width:4;stroke-linecap:round;stroke-miterlimit:10;}
	.st23{fill:none;stroke:#000090;stroke-width:3;stroke-linecap:round;stroke-miterlimit:10;}
	.st24{fill-rule:evenodd;clip-rule:evenodd;fill:#FF2D2D;}
	.st25{fill-rule:evenodd;clip-rule:evenodd;fill:#052E93;}
	.st26{fill:url(#SVGID_7_);}
	.st27{fill-rule:evenodd;clip-rule:evenodd;fill:#CCCCCC;stroke:#CCCCCC;stroke-miterlimit:10;}
	.st28{fill:#052E93;}
	.st29{fill:#FF921E;}
	.st30{fill:#04518C;}
	.st31{fill-rule:evenodd;clip-rule:evenodd;fill:url(#SVGID_14_);}
	.st32{fill-rule:evenodd;clip-rule:evenodd;fill:#D38742;}
	.st33{fill-rule:evenodd;clip-rule:evenodd;fill:none;stroke:#FF2D2D;stroke-width:2.2054;stroke-miterlimit:10;}
	.st34{clip-path:url(#SVGID_16_);fill:none;stroke:#FFFFFF;stroke-miterlimit:10;}
	.st35{clip-path:url(#SVGID_18_);fill:none;stroke:#FFFFFF;stroke-miterlimit:10;}
	.st36{clip-path:url(#SVGID_20_);fill:none;stroke:#109E7B;stroke-miterlimit:10;}
	.st37{clip-path:url(#SVGID_22_);fill:#007054;stroke:#109E7B;stroke-miterlimit:10;}
	.st38{clip-path:url(#SVGID_22_);fill:#052E93;}
	.st39{clip-path:url(#SVGID_24_);fill:#052E93;}
	.st40{clip-path:url(#SVGID_24_);fill:none;stroke:#007054;stroke-miterlimit:10;}
	.st41{fill:url(#SVGID_27_);}
	.st42{fill:url(#SVGID_28_);}
	.st43{fill:url(#SVGID_29_);}
	.st44{fill-rule:evenodd;clip-rule:evenodd;fill:#2F29FF;}
	.st45{fill-rule:evenodd;clip-rule:evenodd;fill:#0D59A1;}
	.st46{fill-rule:evenodd;clip-rule:evenodd;fill:#003566;}
	.st47{clip-path:url(#SVGID_33_);}
	.st48{fill:#0D59A1;}
	.st49{fill:none;stroke:#2A577F;stroke-miterlimit:10;}
	.st50{fill-rule:evenodd;clip-rule:evenodd;fill:#12A7DB;}
	.st51{fill:#12A7DB;}
	.st52{fill:#003566;}
	.st53{fill-rule:evenodd;clip-rule:evenodd;fill:#FF4C4E;}
	.st54{fill:#FF4C4E;}
	.st55{fill-rule:evenodd;clip-rule:evenodd;fill:#363A5B;}
	.st56{fill-rule:evenodd;clip-rule:evenodd;fill:#FF4C4E;stroke:#FF4C4E;stroke-miterlimit:10;}
	.st57{fill-rule:evenodd;clip-rule:evenodd;fill:#04518A;}
	.st58{fill:#04518A;}
	.st59{fill:none;stroke:#3153A6;stroke-miterlimit:10;}
	.st60{fill-rule:evenodd;clip-rule:evenodd;fill:none;stroke:#01015B;stroke-width:5;stroke-miterlimit:10;}
	.st61{fill:#E10A17;}
	.st62{fill:#253574;}
	.st63{fill:#FFE80C;}
	.st64{fill-rule:evenodd;clip-rule:evenodd;fill:#444871;}
	.st65{fill-rule:evenodd;clip-rule:evenodd;fill:#0A3C5F;}
	.st66{fill:#A1B4B1;}
	.st67{fill-rule:evenodd;clip-rule:evenodd;fill:#FFED33;}
	.st68{fill:#FFED33;}
	.st69{fill:#ECF0EF;}
</style>
<g id="Calque_1">
	<rect y="0" class="st0" width="452.91" height="254.76"/>
	<path class="st10" d="M364.94,196.05c0-17.46-36.73-14.02-53.29-8.63c-3.57,1.16-8.77,2.29-11.21,5.62
		c-2.18,2.98-8.46,30.17-3.8,36.1c27.94,6.83,66.23,5.02,66.61-0.63s1.5-21.52,1.44-28.42C364.85,198.8,364.94,197.46,364.94,196.05
		z"/>
	<path class="st10" d="M160.65,194.99c-6.08-16.88-37.75-14.4-54.77-8.87c-3.67,1.19-6.59,3.93-9.1,7.35
		c-2.24,3.07-15.99,34.98-7.12,37.15c28.72,7.02,68.86,3.53,69.25-2.27C159.29,222.54,162.39,199.82,160.65,194.99z"/>
	<path class="st8" d="M350.01,106.1c1.15,16.28,4.35,32.96,13.51,46.47c1.97,2.91,4.84,5.93,8.34,5.57
		c2.05-0.22,3.82-1.62,4.93-3.36c1.1-1.74,1.62-3.77,2-5.8c2.97-15.91-1.89-32.12-6.73-47.57c-1.99-6.36-4.64-17.62-11.12-21.05
		c-6.75-3.57-10.14,7.46-10.76,11.96C349.56,96.89,349.69,101.53,350.01,106.1z"/>
	<path class="st5" d="M349.23,82.97c0.31-2.69,1.03-5.87,3.53-7.04c2.64-1.24,5.47,0.57,7.52,2.41
		c12.44,11.16,17.15,26.9,19.4,43.81l-29.82,1.84C347.88,110.53,347.65,96.7,349.23,82.97z"/>
	<path class="st11" d="M390.73,150.09c0.84,1.88-0.03,4.17-1.54,5.56c-1.51,1.4-11.99,6.33-22.29,1.78
		c-5.18-2.29-5.97-7.28-4.15-12.02C365.28,138.83,389.73,147.87,390.73,150.09z"/>
	<path class="st7" d="M294.38,142.17c-4.83-15.51-10.77-34.66-8.09-50.87c6.56-8.01,19.99-26.62,46.6-26.62
		c18.67,0,32.65,18.85,35.89,23.64c3.61,5.34,2.3,12.95,1.4,19.12c-1.92,13.16-7.61,64.87-2.67,100.76h-75.39
		C292.27,191.08,299.25,157.8,294.38,142.17z"/>
	<path class="st6" d="M277.04,123.32c3.73-14.24,11.71-27.35,22.64-37.21c1.97-1.78,4.64-3.55,7.07-2.52
		c1.33,0.57,2.22,1.89,2.61,3.28c0.39,1.39-2.34,5.21-2.4,6.65c-0.67,16.85-1.04,31.16-4.09,47.74c-0.94,5.1-1.9,10.26-4.1,14.95
		c-2.2,4.69-5.82,8.94-10.67,10.77c-2.54,0.96-6.68,1.53-9.02-0.3c-1.88-1.47-2.19-5.21-2.67-7.34c-1.69-7.55-2.22-15.35-1.59-23.06
		C275.19,131.91,275.92,127.56,277.04,123.32z"/>
	<path class="st7" d="M310.13,82.97c-0.14-2.69,9.54-0.9,7.12-2.08c-2.56-1.24,5.15-14.78,2.32-14.52
		c-32.34,3.02-45.78,35.58-45.78,55.77l33.12,1.84C309.75,110.53,310.84,96.7,310.13,82.97z"/>
	<path class="st6" d="M340.37,46.02c-1.82-8.05-7.91-9.93-11.45-8c-2.27,15.06-4.58,21.76-10.48,29.97c7.34,4.71,19.87,3.83,22.58,0
		C341.12,66.78,341.31,50.18,340.37,46.02z"/>
	<path class="st6" d="M339.97,27.12c7.29-5.04,17.77-0.67,19.29,8.65c1.39,8.53-7.19,23.17-11.26,25.55
		c-7.12,4.15-16.68-5.82-17.02-10.6C330.49,43.72,333.85,31.36,339.97,27.12z"/>
	<path class="st10" d="M334.79,28.92c-0.57-0.38-1.33-0.34-1.96-0.07s-1.14,0.74-1.64,1.21c-1.7,1.57-2.52-0.81-3.87,1.08
		s-3.21,8.1-3.22,10.42c0,1.5,0.39,3.07-0.13,4.48c-0.46,1.27-1.64,2.43-1.29,3.73c0.26,0.97,1.36,1.54,2.36,1.43
		c1-0.11,1.86-0.76,2.49-1.53c0.63-0.78,1.07-1.69,1.58-2.55c1.69-2.86,4.16-5.19,5.93-8.01c1.76-2.82,2.74-6.52,1.15-9.44
		L334.79,28.92z"/>
	<path class="st10" d="M368.6,32.68c-1.57-0.64-3.15-1.27-4.72-1.91c0.72,0.9,1.47,1.83,1.75,2.94c0.28,1.12-0.03,2.47-1.02,3.05
		c-0.77,0.45-1.77,0.33-2.57-0.08c-0.8-0.41-1.43-1.07-2.05-1.72c0.32,0.6,0.66,1.23,0.66,1.91s-0.44,1.42-1.12,1.49
		c-0.54,0.06-1.03-0.29-1.45-0.63c-2.14-1.68-4.27-3.37-6.41-5.05c0.13,0.67,0.25,1.36,0.14,2.03c-0.11,0.67-0.5,1.34-1.13,1.59
		c-1.11,0.44-2.26-0.55-2.94-1.54s-1.38-2.17-2.57-2.35c-1.33-0.2-2.42,0.99-3.23,2.06c-0.15,0.19-0.29,0.38-0.44,0.58
		c-1.5,1.97-3,3.94-4.49,5.91c-0.46,0.6-0.93,1.22-1.55,1.65c-0.63,0.43-1.45,0.64-2.15,0.37c-1.21-0.46-14.25-19.71,2.44-25.59
		c2.42-0.85,5.83,0.09,8.27,0.86c2.44,0.77,4.76,1.99,7.28,2.44c2,0.36,4.05,0.22,6.07,0.42C363.03,21.68,368.45,26.87,368.6,32.68z
		"/>
	<path class="st6" d="M327.05,36.76c-0.75,1.89-0.74,4.07,0.05,5.94c2.25,5.36,7.5,0.55,7.75-3.33
		C335.16,34.75,329.11,31.63,327.05,36.76z"/>
	<path class="st12" d="M331.02,172.16h45.23c2.68,0,5.45-2.17,6.2-4.85l19.9-71.07c0.75-2.68-0.81-4.85-3.49-4.85h-45.23
		c-2.68,0-5.45,2.17-6.2,4.85l-19.9,71.07C326.78,169.99,328.35,172.16,331.02,172.16z"/>
	<path class="st3" d="M327.53,167.32l19.9-71.07c0.75-2.68,3.53-4.85,6.2-4.85h4.82c-2.68,0-5.45,2.17-6.2,4.85l-19.9,71.07
		c-0.75,2.68,0.81,4.85,3.49,4.85h-4.82C328.35,172.16,326.78,169.99,327.53,167.32z"/>
	<path class="st6" d="M334,151.07c2.21,1.44,2.58,4.72,1.44,7.1c-1.14,2.38-39.6,11.71-48.87,11.55c-2.82-0.05-6.06-0.32-7.72-2.6
		c-1.48-2.04-1.06-4.87-0.27-7.26c1.33-4.02,3.67-8.54,6.95-11.32C287.79,146.63,332.58,150.15,334,151.07z"/>
	<path class="st6" d="M347.87,144.27c0.93-1.29,1.86-3.06,0.92-4.34c-0.63-0.85-1.87-1.02-2.87-0.7c-1,0.32-1.83,1.02-2.65,1.69
		c-1.1,0.9-2.31,1.79-3.72,1.99c-1.41,0.2-3.05-0.53-3.38-1.92c-0.36-1.51,0.82-3.42-0.3-4.5c-0.58-0.57-1.57-0.53-2.28-0.14
		s-1.22,1.07-1.71,1.73c-2.58,3.49-5.22,7.09-6.26,11.31c-1.04,4.21-0.07,9.23,3.45,11.76c3.15,2.27,7.79,1.93,10.82-0.49
		c2.59-2.07,3.58-5.02,3.92-8.19C344.19,148.98,345.76,147.21,347.87,144.27z"/>
	<path class="st6" d="M393.15,140.66c-0.17-0.49-0.44-8.25-0.84-8.57c-0.73-0.59-3.46,8.54-2.89,9.3c-1.97-0.21-2.56-0.27-4.54-0.48
		c-1.44-0.15-3.31-0.04-3.75,1.34c-0.35,1.1,0.53,2.16,1.14,3.13c1.09,1.74-0.51,11.88,0.34,12.74c3.14,3.19,10.01-2.34,11.16-5.45
		C395.36,148.36,394.57,144.81,393.15,140.66z"/>
	<path class="st3" d="M368.94,123.46c0.51,0.95,1.04,1.62,2.3,1.95c1.77,0.46,3.48-0.87,3.48-1.95s-1.11-1.56-2.35-1.95
		C370.03,120.78,367.99,121.71,368.94,123.46z"/>
	<line class="st22" x1="421.53" y1="71.85" x2="408.71" y2="84.25"/>
	<line class="st22" x1="401.05" y1="62.98" x2="397.27" y2="79.41"/>
	<line class="st22" x1="426.11" y1="98.32" x2="413.6" y2="99.29"/>
	<path class="st6" d="M149.8,121.96c1.25,17.71,4.73,35.84,14.69,50.54c2.15,3.17,7.59,7.61,11.41,7.36
		c7.36-0.48,4.79-9.06,5.2-11.26c3.23-17.3-2.05-34.93-7.31-51.73c-2.17-6.92-5.05-19.16-12.09-22.89
		c-7.34-3.89-11.03,8.12-11.7,13.01C149.3,111.95,149.44,116.99,149.8,121.96z"/>
	<path class="st15" d="M148.95,96.81c0.34-2.93-7.42-17.85-4.64-16.73c32.6,13.14,35.31,40.95,37.76,59.32l-32.43,2
		C147.48,126.77,147.23,111.74,148.95,96.81z"/>
	<path class="st6" d="M203.5,121.91c1.98-1.76,4.43-3.65,6.99-3c2.17,0.54,5.31,1.88,5.49,4.11c0.18,2.23-25.07,49.81-35.89,55.53
		c-5.44,2.88-7.72-0.16-10.54-4.9C165.63,167.06,196.31,128.33,203.5,121.91z"/>
	<path class="st16" d="M65.84,146.5c-0.03,0.11-0.04,0.23-0.04,0.34C65.81,146.73,65.83,146.62,65.84,146.5z"/>
	<path class="st6" d="M210.16,105.28c2.36-2.57,8.34-7.17,10.91-4.81c2.13,1.96,3.19,8.48,0.82,13.68
		c-1.06,2.31-3.54,8.38-7.67,9.82c-1.15,0.4-1.73-0.66-3.28-0.92c-4.38-0.72-5.35-3.55-5.42-7.45
		C205.43,111.22,207.21,108.5,210.16,105.28z"/>
	<path class="st6" d="M206.29,113.45c1.96-3.75,4.62-8.41,5.85-10.72c0.33-0.61,0.79-1.14,1.02-1.8c0.23-0.65,0.13-1.5-0.47-1.85
		c-0.76-0.45-1.69,0.2-2.33,0.8c-3.15,2.93-6.47,6.18-7.22,10.41c-0.26,1.48,2.64,7.77,3.03,9.45
		C206.17,119.75,206.53,113.87,206.29,113.45z"/>
	<path class="st12" d="M205.27,50.86c11.61,4.63,25.49,8.7,37.21,13.58c0.6,0.23,0.89,0.9,0.66,1.49
		c-7.6,15.62-11.93,35.57-18.85,52.08c-0.19,0.54-0.75,0.85-1.31,0.73l-39.51-15.08c-0.53-0.19-0.84-0.75-0.73-1.31
		c3.4-15.37,15.01-42.01,18.71-50.07c0.69-1.31,2.23-1.93,3.65-1.48L205.27,50.86z"/>
	<path class="st0" d="M202,95.57l5.8,2.21l5.87,2.02l2.9,1.11c0.89,0.41,1.87,0.63,2.86,0.64c1.37-0.13,1.31-1.71,0.68-2.39
		c-0.88-0.56-1.87-0.93-2.9-1.11l-2.9-1.11l-5.94-1.83l-5.55-1.67l-2.97-0.92c-0.87-0.36-1.74-0.74-2.67-0.65
		c-0.78-0.3-1.29,1.13-0.51,1.43C196.66,93.31,200.14,95.18,202,95.57z M202.35,83.07l13.72,5.24c1.78,0.97,3.74,1.57,5.75,1.76
		c1.19-0.22,1.31-1.71,0.62-2.2c-0.84-0.65-1.8-1.09-2.83-1.3l-2.9-1.11l-5.49-1.88l-5.56-1.69c-1.78-0.82-3.68-1.31-5.63-1.48
		c-0.92,0.09-0.91,0.89-0.47,1.5C199.56,81.92,201.42,82.74,202.35,83.07z M205.54,69.47c1.48,0.9,3.09,1.58,4.76,2.03l15.65,5.97
		c1.31-0.02,1.92-1.62,0.96-2.5l-10.51-3.79l-5.21-1.99c-1.62-0.65-3.32-1.07-5.05-1.27C205.11,67.52,204.52,69.08,205.54,69.47z"/>
	<path class="st13" d="M193.76,51.82c-4.1,4.39-8.59,8.39-13.42,11.96c-1.06,0.62-0.1,0.79,0.34,0.75l11.7-0.47
		c0.21-0.12,0.46-0.02,0.54,0.21l0,9.67c0.04,2.07-0.06,2.86,1.04,2.66c1.1-0.19,10.24-13.07,14.19-18.56
		c0.15-0.29-0.09-0.62-0.41-0.56c-4.25-0.19-9.86-1.39-13.33-4.15L193.76,51.82z"/>
	<path class="st15" d="M161.81,165.94c2.89-14.25,7.82-28.17,9.91-42.53c0.98-6.71,2.4-14.98-1.52-20.79
		c-3.52-5.21-18.72-25.71-39.02-25.71c-28.94,0-43.84,9.91-50.98,18.63c-2.91,17.63,3.84,48.78,9.1,65.64
		c3.75,12.02,3.29,25.01,6.07,32.94c2.98,3.43,62.27,4.99,65.01,1.37C163.11,191.88,159.66,176.53,161.81,165.94z"/>
	<path class="st6" d="M80.71,167.34c-2.52-3.94-4.98-6.48-9.12-8.5c-2.46-1.2-5.46-2.06-7.87-0.76c-2.7,1.46,0.33,12.64-0.13,15.67
		c-0.64,4.23,1.62,8.88,5.27,14.52c3.5,5.4,9.76,11.66,11.55,7.25c1.99-4.9-5.75-18.27-5.24-21.89
		C75.57,170.71,82.44,170.06,80.71,167.34z"/>
	<path class="st6" d="M68.69,129.32c4.06-15.49,7.83-18.37,19.72-29.1c2.14-1.93,5.04-3.87,7.69-2.74c1.45,0.62,2.41,2.05,2.84,3.57
		c0.43,1.51,6.56,6.72,6.49,8.29c-0.73,18.32-17.26,48.08-23.33,62.31c-2.21,5.18-1,14.52-6.27,16.51
		c-2.76,1.05-14.44-9.56-16.23-20.23C57.97,158.24,67.47,133.94,68.69,129.32z"/>
	<path class="st15" d="M110.45,100.22c0.48-2.89,0.66-6.39-1.65-8.2c-2.43-1.91-26.55,1.21-28.6,3.52
		c-6.21,7-12.89,24.2-15.91,34.06l35.01,11.8C106.97,123.97,108.02,114.97,110.45,100.22z"/>
	<path class="st6" d="M90.35,227.69c-1.02,2.33-12.42-2.71-13.99-4.72c-3.69-4.71-14.96-32.86-16.77-55.04
		c-0.22-2.71,1.15,4.86,3.06,2.92c1.71-1.73,4.48-1.77,6.88-1.38c4.03,0.65,11.69-0.28,12.56,2.18
		C85.31,180.66,91,226.2,90.35,227.69z"/>
	<path class="st6" d="M75.63,229.84c-0.05-3.24,0.25-5.81,0.73-6.87c2.27-4.92,13.59-0.18,14.04,3.07c0.17,1.21,0.13,4.19,0.05,5.23
		C90.27,233.68,77.33,231.7,75.63,229.84z"/>
	<path class="st10" d="M152.85,45.34c-0.67,1.76-1.95,1.54-2.21-0.3c-0.84-5.9-0.8-6.86-4.39-11.65c-1.97-2.64-2.49-2.8-1.32-4.02
		C148.77,25.33,158.38,30.79,152.85,45.34z"/>
	<path class="st6" d="M139.31,56.63c-1.98-8.75-8.6-10.8-12.45-8.7c-2.47,16.38-4.98,23.66-11.4,32.59c3.61,4.73,21.04,9.55,24.55,0
		C140.13,79.2,140.34,61.15,139.31,56.63z"/>
	<path class="st6" d="M125.39,34.98c4.66-8.43,16.99-9.25,22.97-0.91c5.48,7.64,4.21,26.05,1.4,30.33
		c-4.92,7.49-19.06,2.41-21.7-2.08C124.19,55.73,121.48,42.07,125.39,34.98z"/>
	<path class="st10" d="M128.95,36.83c0.61,1.28,0.33,19.1,0.07,19.57c-2.1,3.7-0.22,4.18-4.39,3.61
		c-10.64-1.44-13.58-17.2-8.86-21.8C120.09,34.02,127.87,34.55,128.95,36.83z"/>
	<path class="st10" d="M112.81,31.06c9.58-9.62,27.01-15.7,32.74-13.57c8.54,3.18,5.48,18.23,1.13,18.23c-1.39,0-2.87-0.3-4.13-0.87
		c-6-2.7-8.86,1.13-12.75,2.59C122.91,40.01,104.64,39.25,112.81,31.06z"/>
	<path class="st6" d="M121.64,52c0.18,2.2,1.25,4.32,2.92,5.76c4.78,4.13,7.57-3.09,5.94-6.99C128.56,46.12,121.15,46.02,121.64,52z
		"/>
	<path class="st15" d="M194.3,41.73c-2.5,3.1-2.53,9.44,0.16,12.38c7.08,7.73,17.67,3.49,19.93,1.51c2.67-2.69,6.58-11.84-1.7-16.59
		C203.31,33.66,197.24,38.09,194.3,41.73z"/>
	<path class="st0" d="M198.88,45.97c-0.09-0.7,1.01-1.06,1.42-0.49c0.6,0.69,1.15,1.46,1.6,2.25l0.73,1.31l3.5-2.16l2.3-1.18
		c0.77-0.48,1.61-0.84,2.48-1.11c0.64-0.15,1.29,0.18,1.55,0.8c0.31,0.68,0,1.5-0.69,1.8l0.24-0.11c-3.15,1.46-7.88,4.06-9.45,4.54
		C201.32,50.88,199.02,47.11,198.88,45.97z"/>
</g>
<g id="Calque_2">
</g>
</svg>
