<?xml version="1.0" encoding="utf-8"?>
<!-- Generator: Adobe Illustrator 25.0.1, SVG Export Plug-In . SVG Version: 6.00 Build 0)  -->
<svg version="1.1" xmlns="http://www.w3.org/2000/svg" xmlns:xlink="http://www.w3.org/1999/xlink" x="0px" y="0px"
	 viewBox="0 0 452.91 254.76" style="enable-background:new 0 0 452.91 254.76;" xml:space="preserve">
<style type="text/css">
	.st0{fill:#FFFFFF;}
	.st1{fill:#01015B;}
	.st2{fill:#F7F6F0;}
	.st3{fill:#ABCDF5;}
	.st4{fill-rule:evenodd;clip-rule:evenodd;fill:#F7F6F0;}
	.st5{fill-rule:evenodd;clip-rule:evenodd;fill:#66BCD5;}
	.st6{fill:#D38742;}
	.st7{fill-rule:evenodd;clip-rule:evenodd;fill:#000090;}
	.st8{fill:#F4A086;}
	.st9{fill:#A0B5BF;}
	.st10{fill-rule:evenodd;clip-rule:evenodd;fill:#01015B;}
	.st11{fill:#F7B690;}
	.st12{fill:#0067E2;}
	.st13{fill:#FF2D2D;}
	.st14{fill:#04518A;stroke:#04518A;stroke-width:0.3287;stroke-miterlimit:10;}
	.st15{fill:#000090;}
	.st16{fill-rule:evenodd;clip-rule:evenodd;fill:#18898D;}
	.st17{fill-rule:evenodd;clip-rule:evenodd;fill:#0067E2;}
	.st18{clip-path:url(#SVGID_4_);}
	.st19{clip-path:url(#SVGID_6_);}
	.st20{fill:none;stroke:#000090;stroke-width:2.3368;stroke-linecap:round;stroke-miterlimit:10;}
	.st21{fill:none;stroke:#000090;stroke-width:2.3368;stroke-linecap:round;stroke-miterlimit:10;stroke-dasharray:4.0751,4.0751;}
	.st22{fill:none;stroke:#000090;stroke-width:4;stroke-linecap:round;stroke-miterlimit:10;}
	.st23{fill:none;stroke:#000090;stroke-width:3;stroke-linecap:round;stroke-miterlimit:10;}
	.st24{fill-rule:evenodd;clip-rule:evenodd;fill:#FF2D2D;}
	.st25{fill-rule:evenodd;clip-rule:evenodd;fill:#052E93;}
	.st26{fill:url(#SVGID_7_);}
	.st27{fill-rule:evenodd;clip-rule:evenodd;fill:#CCCCCC;stroke:#CCCCCC;stroke-miterlimit:10;}
	.st28{fill:#052E93;}
	.st29{fill:#FF921E;}
	.st30{fill:#04518C;}
	.st31{fill-rule:evenodd;clip-rule:evenodd;fill:url(#SVGID_14_);}
	.st32{fill-rule:evenodd;clip-rule:evenodd;fill:#D38742;}
	.st33{fill-rule:evenodd;clip-rule:evenodd;fill:none;stroke:#FF2D2D;stroke-width:2.2054;stroke-miterlimit:10;}
	.st34{clip-path:url(#SVGID_16_);fill:none;stroke:#FFFFFF;stroke-miterlimit:10;}
	.st35{clip-path:url(#SVGID_18_);fill:none;stroke:#FFFFFF;stroke-miterlimit:10;}
	.st36{clip-path:url(#SVGID_20_);fill:none;stroke:#109E7B;stroke-miterlimit:10;}
	.st37{clip-path:url(#SVGID_22_);fill:#007054;stroke:#109E7B;stroke-miterlimit:10;}
	.st38{clip-path:url(#SVGID_22_);fill:#052E93;}
	.st39{clip-path:url(#SVGID_24_);fill:#052E93;}
	.st40{clip-path:url(#SVGID_24_);fill:none;stroke:#007054;stroke-miterlimit:10;}
	.st41{fill:url(#SVGID_27_);}
	.st42{fill:url(#SVGID_28_);}
	.st43{fill:url(#SVGID_29_);}
	.st44{fill-rule:evenodd;clip-rule:evenodd;fill:#2F29FF;}
	.st45{fill-rule:evenodd;clip-rule:evenodd;fill:#0D59A1;}
	.st46{fill-rule:evenodd;clip-rule:evenodd;fill:#003566;}
	.st47{clip-path:url(#SVGID_33_);}
	.st48{fill:#0D59A1;}
	.st49{fill:none;stroke:#2A577F;stroke-miterlimit:10;}
	.st50{fill-rule:evenodd;clip-rule:evenodd;fill:#12A7DB;}
	.st51{fill:#12A7DB;}
	.st52{fill:#003566;}
	.st53{fill-rule:evenodd;clip-rule:evenodd;fill:#FF4C4E;}
	.st54{fill:#FF4C4E;}
	.st55{fill-rule:evenodd;clip-rule:evenodd;fill:#363A5B;}
	.st56{fill-rule:evenodd;clip-rule:evenodd;fill:#FF4C4E;stroke:#FF4C4E;stroke-miterlimit:10;}
	.st57{fill-rule:evenodd;clip-rule:evenodd;fill:#04518A;}
	.st58{fill:#04518A;}
	.st59{fill:none;stroke:#3153A6;stroke-miterlimit:10;}
	.st60{fill-rule:evenodd;clip-rule:evenodd;fill:none;stroke:#01015B;stroke-width:5;stroke-miterlimit:10;}
	.st61{fill:#E10A17;}
	.st62{fill:#253574;}
	.st63{fill:#FFE80C;}
	.st64{fill-rule:evenodd;clip-rule:evenodd;fill:#444871;}
	.st65{fill-rule:evenodd;clip-rule:evenodd;fill:#0A3C5F;}
	.st66{fill:#A1B4B1;}
	.st67{fill-rule:evenodd;clip-rule:evenodd;fill:#FFED33;}
	.st68{fill:#FFED33;}
	.st69{fill:#ECF0EF;}
</style>
<g id="Calque_1">
	<rect y="0" class="st0" width="452.91" height="254.76"/>
	<g>
		<g>
			<g>
				<polygon class="st1" points="314.37,130.67 293.57,130.67 283.16,107.09 303.97,107.09 				"/>
				<polygon class="st1" points="312.03,130.67 291.23,130.67 280.82,107.09 301.63,107.09 				"/>
				<path class="st1" d="M316.05,127.6h-39.93c-0.85,0-1.54,0.69-1.54,1.54l0,0c0,0.85,0.69,1.54,1.54,1.54h39.93
					c0.85,0,1.54-0.69,1.54-1.54l0,0C317.59,128.29,316.9,127.6,316.05,127.6z"/>
				<path class="st1" d="M254.74,115.1c-3.84,0-6.53-3.13-5.99-6.97l9.03-63.89c0.54-3.84,4.11-6.97,7.96-6.97h82.15
					c3.84,0,6.53,3.13,5.99,6.97l-9.03,63.89c-0.54,3.84-4.11,6.97-7.96,6.97H254.74z"/>
				<path class="st1" d="M250.94,115.1c-3.84,0-6.53-3.13-5.99-6.97l9.03-63.89c0.54-3.84,4.11-6.97,7.96-6.97h82.15
					c3.84,0,6.53,3.13,5.99,6.97l-9.03,63.89c-0.54,3.84-4.11,6.97-7.96,6.97H250.94z"/>
				<path class="st2" d="M251.66,109.96c-2.23,0-3.78-1.81-3.47-4.04l8.41-59.49c0.32-2.23,2.38-4.04,4.61-4.04h82.15
					c2.23,0,3.78,1.81,3.47,4.04l-8.41,59.49c-0.32,2.23-2.38,4.04-4.61,4.04H251.66z"/>
				<g>
					<path class="st3" d="M341.53,56.55h-82.39c-0.83,0-1.4-0.67-1.28-1.5l0.55-3.79c0.12-0.83,0.88-1.5,1.71-1.5h82.39
						c0.83,0,1.4,0.67,1.28,1.5l-0.55,3.79C343.13,55.88,342.36,56.55,341.53,56.55z"/>
					<path class="st3" d="M264.36,96.66h-10.89c-0.88,0-1.49-0.71-1.36-1.59l4.91-34.11c0.13-0.88,0.94-1.59,1.82-1.59h10.89
						c0.88,0,1.49,0.71,1.36,1.59l-4.91,34.11C266.05,95.95,265.24,96.66,264.36,96.66z"/>
					<path class="st3" d="M337,85.82h-28.95c-0.88,0-1.49-0.71-1.36-1.59l3.35-23.27c0.13-0.88,0.94-1.59,1.82-1.59h28.95
						c0.88,0,1.49,0.71,1.36,1.59l-3.35,23.27C338.69,85.11,337.88,85.82,337,85.82z"/>
					<path class="st3" d="M338.02,89.8c0.14-0.94-0.42-1.71-1.24-1.71h-29.17c-0.82,0-1.59,0.76-1.73,1.71l-1.84,12.8h32.14
						L338.02,89.8z"/>
					<path class="st3" d="M303.83,77.85c0.14-0.94-0.42-1.71-1.24-1.71h-11.11c-0.82,0-1.59,0.76-1.73,1.71l-3.56,24.75h14.07
						L303.83,77.85z"/>
					<path class="st3" d="M265.36,100.75c0.14-0.94-0.42-1.71-1.24-1.71h-11.11c-0.82,0-1.59,0.76-1.73,1.71l-0.27,1.85h14.07
						L265.36,100.75z"/>
					<path class="st3" d="M283.57,83.66h-10.89c-0.88,0-1.49-0.71-1.36-1.59l3.04-21.1c0.13-0.88,0.94-1.59,1.82-1.59h10.89
						c0.88,0,1.49,0.71,1.36,1.59l-3.04,21.1C285.26,82.94,284.45,83.66,283.57,83.66z"/>
					<path class="st3" d="M292.42,59.37l-1.85,12.89c-0.14,0.94,0.42,1.71,1.24,1.71h11.11c0.82,0,1.59-0.76,1.73-1.71l1.85-12.89
						H292.42z"/>
					<path class="st3" d="M285.1,87.53c0.14-0.94-0.42-1.71-1.24-1.71h-11.11c-0.82,0-1.59,0.76-1.73,1.71l-2.17,15.07h14.07
						L285.1,87.53z"/>
					<polygon class="st2" points="264.27,69.06 257.73,69.06 258.82,61.54 265.35,61.54 					"/>
					<path class="st2" d="M257.42,71.24l-0.19,1.29h10.55l0.19-1.29H257.42z M256.89,74.96h10.55l0.19-1.29h-10.55L256.89,74.96z
						 M256.54,77.38h10.55l0.19-1.29h-10.55L256.54,77.38z M256.19,79.8h10.55l0.19-1.29h-10.55L256.19,79.8z M255.84,82.22h5.15
						l0.19-1.29h-5.15L255.84,82.22z"/>
					<polygon class="st4" points="281.6,69.06 275.07,69.06 276.15,61.54 282.68,61.54 					"/>
					<path class="st3" d="M274.76,71.24l-0.19,1.29h10.55l0.19-1.29H274.76z M274.22,74.96h10.55l0.19-1.29h-10.55L274.22,74.96z
						 M273.87,77.38h10.55l0.19-1.29h-10.55L273.87,77.38z M273.53,79.8h10.55l0.19-1.29h-10.55L273.53,79.8z M273.18,82.22h5.15
						l0.19-1.29h-5.15L273.18,82.22z"/>
					<polygon class="st2" points="297.03,85.83 290.5,85.83 291.58,78.31 298.11,78.31 					"/>
					<path class="st2" d="M290.18,88.01L290,89.3h10.55l0.19-1.29H290.18z M289.65,91.72h10.55l0.19-1.29h-10.55L289.65,91.72z
						 M289.3,94.15h10.55l0.19-1.29h-10.55L289.3,94.15z M288.95,96.57h10.55l0.19-1.29h-10.55L288.95,96.57z M288.6,98.99h5.15
						l0.19-1.29h-5.15L288.6,98.99z"/>
					<path class="st2" d="M294.13,60.55l-0.19,1.29h10.55l0.19-1.29H294.13z M293.6,64.26h10.55l0.19-1.29h-10.55L293.6,64.26z
						 M293.25,66.68h4.9l0.19-1.29h-4.9L293.25,66.68z"/>
					<polygon class="st2" points="338.61,69.06 310.83,69.06 311.92,61.54 339.69,61.54 					"/>
					<path class="st2" d="M310.52,71.24l-0.19,1.29h27.77l0.19-1.29H310.52z M309.99,74.96h16.47l0.19-1.29h-16.47L309.99,74.96z"/>
					<polygon class="st4" points="277.78,95.61 271.25,95.61 272.33,88.09 278.86,88.09 					"/>
					<path class="st2" d="M270.94,97.8l-0.19,1.29h10.55l0.19-1.29H270.94z M270.4,101.51h6.78l0.19-1.29h-6.78L270.4,101.51z"/>
					<polygon class="st5" points="260.96,92.03 254.43,92.03 255.51,84.51 262.04,84.51 					"/>
					<path class="st2" d="M254.11,94.21l-0.19,1.29h10.55l0.19-1.29H254.11z"/>
				</g>
			</g>
		</g>
		<g>
			<g>
				<path class="st6" d="M229.25,78.17c2.25,9.4,5.59,18.54,9.96,27.16c1.18,2.34,2.88,4.93,5.49,5.08c3.02,0.17,5.53-2.9,6.04-5.88
					c1.39-8.17-0.66-21.27-2.89-32.37L229.25,78.17z"/>
				<path class="st7" d="M248.77,68.06c-1.44-6.81-3.68-24.26-12.83-25.03c-10.72-0.9-10.92,14.81-10.11,21.63
					c0.57,4.84,1.43,9.64,2.57,14.37l21.23-6.85C249.34,70.8,249.06,69.43,248.77,68.06z"/>
				<path class="st6" d="M276.02,68.65c1.63-0.98,3.67-1.97,5.33-1.05c2.45,1.36,1.47,5.08,0.07,7.52
					c-7.32,12.76-17.39,23.93-29.29,32.58c-6.59,4.79-9.7,3.79-13.18-3.55C235.12,96.05,265.86,74.74,276.02,68.65z"/>
				<path class="st6" d="M279.5,61.96c4.21-3.34,10.08-3.32,15.45-3.15c0.29,0.68-0.29,1.44-0.96,1.75
					c-0.67,0.31-1.44,0.35-2.11,0.65c-1.77,0.8-2.28,3.06-2.26,5s0.32,4.02-0.65,5.7c-0.99,1.71-3.06,2.52-5.04,2.66
					c-2.4,0.17-8.37-0.99-9.01-3.97C274.34,67.87,277.53,63.52,279.5,61.96z"/>
				<g>
					<path class="st8" d="M281.88,72.71c-1.72,0-3.43-0.44-4.91-1.32c-0.26-0.15-0.34-0.49-0.19-0.74c0.15-0.26,0.49-0.34,0.74-0.19
						c2.27,1.35,5.2,1.55,7.64,0.52c0.41-0.17,0.83-0.47,0.78-0.73c-0.05-0.33-0.83-0.47-1.25-0.54c-2.58-0.45-4.85-2.33-5.76-4.79
						c-0.1-0.28,0.04-0.59,0.32-0.7c0.28-0.1,0.59,0.04,0.7,0.32c0.78,2.1,2.72,3.71,4.94,4.1c0.69,0.12,1.96,0.34,2.14,1.44
						c0.12,0.76-0.41,1.47-1.43,1.9C284.41,72.46,283.15,72.71,281.88,72.71z"/>
				</g>
			</g>
			<g>
				<path class="st1" d="M215.67,99.62c-2.34-5.69-27.08,1.17-31.27,10.68c-2.74,1.9-5.01,4.88-6.1,7.9
					c-1.81,5.02-1.17,10.01-0.45,14.74c2.59,16.95,5.93,33.64,10.01,50.01c0.3,1.21,0.62,2.45,1.45,3.31
					c2.1,2.2,5.58,1.28,8.61-0.75c0.21,0.1,0.42,0.19,0.64,0.26c1.96,0.61,8.32-3.27,9.71-4.83
					C209.68,179.38,217.56,104.2,215.67,99.62z"/>
				<path class="st6" d="M187.17,247.95c2.92,0.44,6.06,0.19,9.1-0.72c0.4-3.53,0.8-7.06,1.21-10.59c0.05-0.45,0.1-0.91-0.08-1.29
					c-0.26-0.55-0.91-0.77-1.54-0.88c-2.37-0.43-6.07-0.57-6.68,2.5C188.46,240.62,187.84,244.29,187.17,247.95z"/>
				<path class="st1" d="M209.64,169.51c-2.04-6.25-10.17-10.53-17.37,0.31c-10.98,16.53-1.09,47.44-4.21,67.4h10.25
					C199.17,235.28,210.77,172.97,209.64,169.51z"/>
				<path class="st9" d="M162.61,117.93c2.5,1.97,5.79,2.27,8.89,2.27c25.48,0,40.22-8.29,36.7-19.99
					c-3.62-12.02-26.42-10.08-38.33-6.21c-2.57,0.83-6.31,1.64-8.06,4.04C159.26,101.51,156.55,113.15,162.61,117.93z"/>
				<path class="st1" d="M157.77,109.44c3.61-16.99,34.09-12.79,37.61,4.08c1.81,8.69-0.48,17.68-3.41,26.06
					c-2.4,6.87-5.23,13.6-8.47,20.11c-2.91,5.86-6.31,13.53-9.86,19.02c-0.39,0.61-15.49-0.21-16.05-3.43
					c-1.37-8-4.01-15.87-4.35-24.05C152.69,137.62,154.92,122.84,157.77,109.44z"/>
				<path class="st1" d="M216.39,253.13c0.13-1.47-1.26-2.68-2.69-3.02c-1.43-0.34-2.93-0.08-4.4-0.1c-4.2-0.05-8.28-2.57-10.2-6.3
					c-0.26-0.51-0.52-1.08-1.02-1.36c-0.67-0.38-1.54-0.1-2.13,0.39c-0.59,0.49-1.01,1.15-1.56,1.7c-0.97,0.98-2.36,1.52-3.74,1.5
					c-1.15-0.02-2.44-0.9-3.55-0.32c-0.98,0.51-1.24,1.87-1.49,2.83c-0.43,1.66-0.81,3.33-1.22,5c-0.09,0.37-0.18,0.75-0.21,1.13h8
					c0.37-0.52,0.68-2.05,0.83-2.68c0.03,0.65,0.28,2.18,0.69,2.68h21.99C216.08,254.18,216.34,253.69,216.39,253.13z"/>
				<g>
					<path class="st6" d="M127.33,243.65c2.6,1.54,5.56,2.48,8.58,2.73c1.15-3.34,2.3-6.69,3.44-10.03
						c0.14-0.42,0.29-0.87,0.21-1.31c-0.11-0.65-0.68-1.11-1.23-1.46c-2.1-1.32-5.49-2.86-6.73-0.05
						C130.14,236.88,128.76,240.28,127.33,243.65z"/>
					<path class="st1" d="M173.85,177.92c0.12-6.69-6.88-14.87-16.18-6.28c-14.98,13.83-20.55,41.37-27.14,61.72l9.49,3.88
						C141.44,235.73,173.78,181.64,173.85,177.92z"/>
					<path class="st1" d="M157.76,252.71c0.61-1.34-18.51-3.77-18.97-4.33c-0.45-0.55-1.8-1.47-1.65-5.3
						c0.07-1.75-2.83-3.43-5.44-1.44c-0.85,0.65-1.53,1.01-2.09,0.76c-0.46-0.21-0.65-1.24-1.32-0.88
						c-0.59,0.31-1.21,1.52-1.68,2.37c-0.8,1.47-1.59,2.95-2.39,4.43c-0.18,0.33-2,5.71-2.15,6.06l5.25,0.07l1.41-1.75l1.78,1.79
						l26.67,0.08C157.5,254.27,157.53,253.21,157.76,252.71z"/>
				</g>
			</g>
			<path class="st7" d="M216.4,113.36c-0.44-21.6,8.46-36.54,19.32-47.48c4.24-4.27,9.38-9.28,8.28-15.19
				c-0.94-5.03-6.03-8.03-10.7-10.12c-8.07-3.62-16.42-6.42-24.96-8.71c-5.11-1.37-18.24-8.63-23.56-7.23
				c-14.32,3.75-12.15,30.12-16.1,42.1c-3.18,9.63-10.7,39.82-10.61,40.52l56.61,17.86C217.81,122.96,216.5,118.25,216.4,113.36z"/>
			<g>
				<path class="st6" d="M226.74,24.87c-2.39-6.49-8.65-9.31-12.08-8.68c-1.24,10.83-1.45,11.48-6.82,16.31
					c-1.59,5.78,14.09,11.39,16.55,9.12C224.42,40.74,227.98,28.22,226.74,24.87z"/>
				<path class="st10" d="M234.86,10.68c0.89,1.07,1.75,2.32,1.67,3.71c-0.06,1.06-0.67,2.01-1.26,2.9
					c-0.76,1.15-1.52,2.3-2.28,3.45c-0.74-1.59-0.82-3.4-1-5.14c-0.18-1.75-0.53-3.57-1.69-4.9c-0.71-0.82-1.77-1.55-1.77-2.64
					c0-1.56,1.73-1.89,2.71-1.03C232.53,8.17,233.76,9.37,234.86,10.68z"/>
				<path class="st6" d="M217.82,9.2c4.1-4.88,12.2-3.84,15.02,2.34c2.58,5.66-0.59,17.44-2.96,19.86
					c-4.15,4.23-12.68-0.87-13.82-4.12C214.4,22.51,214.38,13.3,217.82,9.2z"/>
				<path class="st10" d="M219.9,10.86c0.23,0.91-2.13,12.85-2.45,12.71c-1.17-0.51-2.6-3.9-4.82-3.82c-0.71,0.03-1.7,0.47-1.7-0.95
					c0-9.01-0.37-8.56,1.25-9.35C215.75,7.69,219.49,9.24,219.9,10.86z"/>
				<path class="st6" d="M210.69,18.34c-0.17,1.45,0.26,2.96,1.16,4.11c2.58,3.29,5.31-1.04,4.75-3.78
					C215.93,15.4,211.14,14.39,210.69,18.34z"/>
				<path class="st10" d="M230.83,12.29c-0.22,0.79-0.68,1.65-1.49,1.76c-0.84,0.12-8.49-5.33-8.98-5.39s0.04,2.3-0.51,2.66
					c-0.46,0.31-1.08,0.08-1.59-0.14c-2.27-0.94-4.76-0.85-7.21-0.74c-0.15-0.71,0.06-1.99,0.44-2.62s0.9-1.15,1.45-1.63
					c2.43-2.13,5.53-3.72,8.76-3.61c1.93,0.07,3.82,0.62,5.59,1.37C234.11,6.87,231.16,11.1,230.83,12.29z"/>
			</g>
			<path class="st6" d="M193.04,61.32l-19.73,1.84c-0.01,8.75,0.66,17.5,1.91,26.05l16.48-1.65
				C191.85,78.86,192.32,70.21,193.04,61.32z"/>
			<path class="st7" d="M194.65,48.26c0.82-7.52,6.65-18.58-1.7-22.17c-7.7-3.31-14.86,1.86-16.42,9.16
				c-2.19,10.23-3.2,20.86-3.21,31.5l21.53-0.89C195.29,60.42,194.02,53.94,194.65,48.26z"/>
			<path class="st6" d="M191.78,83.77l-16.56,5.44c0.89,1.86,17.06,29.03,25.21,38.66c1.36,1.61,3.57,3.32,5.31,2.14
				c1.44-0.98,1.52-3.22,0.83-4.82C200.49,111.03,195.67,97.09,191.78,83.77z"/>
			<path class="st10" d="M211.26,11.12c-0.79,0.07-1.52,0.62-1.8,1.36c-0.18-1.9,0.68-3.86,2.2-5.01c-0.96,0.13-1.69-1.04-1.48-1.98
				c0.21-0.94,1.01-1.63,1.82-2.16c2.66-1.73,5.94-2.49,9.09-2.12c0.06-0.41,0.12-0.81,0.18-1.22c1.92,0.42,3.7,1.44,5.04,2.87
				c6.24-3.88,14.65,4.04,9.83,10.36c-1.66-1.94-3.79-3.49-6.15-4.47c-3.54-1.46-7.55-1.67-10.9-3.52c0.46,1.89-1.44,3.94-3.36,3.62
				c0.33-0.33,0.66-0.67,0.99-1L211.26,11.12z"/>
			<path class="st11" d="M210.33,121.31c1.43,0.33,2.53,1.43,3.55,2.48c1.48,1.52,2.96,3.05,4.43,4.57
				c0.59,0.61,1.23,1.46,0.88,2.23c-0.32,0.7-1.32,0.83-2,0.47c-0.68-0.36-1.11-1.05-1.5-1.71c-0.15,1.24-1.35,2.26-2.6,2.19
				c-0.58-0.63-1.15-1.26-1.73-1.89c-1.1,1.37-3.16,1.33-4.91,1.16c-2.85-0.26-6.37-1.18-4.32-4.47
				C203.62,123.95,207.25,120.61,210.33,121.31z"/>
		</g>
		<g>
			<path class="st6" d="M123.6,96.26l0,0.05c0.21-0.03,0.43-0.05,0.65-0.05c2.24,0,4.1,1.7,4.32,3.92l7.35,77.22
				c0.15,1.59,1.46,2.79,3.06,2.79h46.47c2.39,0,4.34,1.94,4.34,4.34c0,2.39-1.94,4.34-4.34,4.34h-46.47
				c-3.55,0-6.75-1.59-8.91-4.11c-2.56,0.19-12.46,1.04-12.46,1.04l-10.15-3.23l-9.22-86.3H123.6z"/>
			<path class="st6" d="M112.96,180.19c-1.59,0-2.91-1.2-3.06-2.79l-7.35-77.22c-0.21-2.23-2.08-3.92-4.32-3.92h0
				c-2.56,0-4.56,2.2-4.32,4.75l7.34,77.21c0.57,6.03,5.63,10.65,11.69,10.65h46.47c2.39,0,4.34-1.94,4.34-4.34l0,0
				c0-2.39-1.94-4.34-4.34-4.34H112.96z"/>
			<rect x="139.26" y="188.86" class="st6" width="7.05" height="65.53"/>
			<path class="st6" d="M146,195.6h-6.44c-2.2,0-4.24-1.12-5.43-2.96l-2.43-3.78h22.16l-2.43,3.78
				C150.25,194.49,148.2,195.6,146,195.6z"/>
		</g>
		<g>
			<path class="st12" d="M204.19,124.93c-3.41-1.61-22.94-4.34-26.4-5.84c-4.76-2.07-8.36-7.66-10.7-12.3
				c-1.29-2.56-2.32-5.24-3.35-7.92l-14.6,7.71c1.98,3.39,4.18,6.64,6.6,9.72c3.71,4.73,8.01,9.15,13.32,11.98
				c5.53,2.95,28.41,3.31,34.61,2.33C208.66,129.58,207.6,126.53,204.19,124.93z"/>
			<path class="st13" d="M153.44,83.02c-3.85-2.09-11.76-1.64-12.15,3.91c-0.22,3.27,1.65,6.84,2.89,9.77
				c1.39,3.28,2.98,6.47,4.76,9.55c0.06,0.11,0.13,0.22,0.2,0.33l16.09-6.71C161.7,95.42,158.39,85.69,153.44,83.02z"/>
			<path class="st6" d="M218.23,123.7c1.28,1.21,2.24,2.85,2.28,4.62c0.04,1.76-1.4,5.29-2.71,4.11c-1.08-0.97-1.35-2.6-2.81-2.56
				c-1.45,0.04-2.76,0.85-4.11,1.38c-3.99,1.59-16.08-0.57-10.93-6.88C203.89,119.53,213.93,119.61,218.23,123.7z"/>
			<path class="st12" d="M244.95,243.35c0.83,1.24,1.93,2.62,3.41,2.59c2.56-0.06,2.75-3.72,2.11-6.18
				c-0.69-2.66-1.38-5.31-2.08-7.97l-8.05,2.35C241.22,237.48,243.39,241.01,244.95,243.35z"/>
			<path class="st7" d="M224.65,166.44c-6.48-7.15-46.97-16.05-66.01-21.87c-14.22-4.35-28.85-6.8-31.02,12.41
				c-0.93,8.28,3.28,16.79,10.38,21.15c7.73,4.75,17.45,4.3,26.5,3.7c17.26-1.14,27.84-1.84,45.09-2.99
				c1.65,22.58,20.84,30.67,29.43,55.68l12.91-2.63C244.12,220.12,227.87,170.56,224.65,166.44z"/>
			<path class="st12" d="M156.46,231.69c-0.66,1.33-1.31,2.98-0.53,4.25c1.33,2.19,4.59,0.52,6.41-1.26
				c1.95-1.93,3.91-3.86,5.86-5.78l-7.9-4.72C159,226.66,157.71,229.16,156.46,231.69z"/>
			<path class="st7" d="M124.41,178.13c7.73,4.75,17.45,4.3,26.5,3.7c17.87-1.18,35.74-2.37,53.61-3.55
				c2.85-0.19,6.05-0.55,7.83-2.79c2.08-2.61,1.07-6.7-1.29-9.05c-2.37-2.36-5.69-3.41-8.89-4.39
				c-19.04-5.83-38.08-11.66-57.12-17.48c-14.22-4.35-28.85-6.8-31.02,12.41C113.09,165.26,117.31,173.77,124.41,178.13z"/>
			<path class="st7" d="M213.4,171.36c-3.94-12.19-28.49,11.87-32.78,18.34c-7.36,11.11-14.14,22.62-20.32,34.46l9.59,7.85
				c6.29-12.67,18.82-23.36,29.08-33.47c3.37-3.32,6.81-6.74,8.87-11.06C209.89,183.17,214.1,173.54,213.4,171.36z"/>
			<path class="st13" d="M124.79,97.41c0.97,7.27,3.77,14.32,3.65,21.66c-0.12,7.35-3.32,14.59-8.67,19.62
				c-3.3,3.1-7.83,6.62-6.65,10.99c1.06,3.93,5.98,5.1,10.03,5.56c8.83,1,18.89,1.62,25.39-4.44c3.98-3.71,5.7-9.2,6.96-14.49
				c2.24-9.37,3.56-18.96,3.92-28.59c0.31-8.2-0.24-16.94-4.95-23.66c-4.7-6.69-9.97-11.13-17.65-8.77
				C128.06,83.87,123.82,90.2,124.79,97.41z"/>
			<path class="st7" d="M241.31,237.76c0.5,0.88,2.81,1.29,3.76,1.33c0.75,0.03,4.2-1.54,4.94-1.28c0.54,0.19,2.54,7.38,5.02,8.9
				c2.48,1.53,5.24,2.37,7.88,3.5c0.92,0.4,1.85,0.84,2.6,1.55c0.74,0.7,1.26,1.72,1.1,2.61c-0.02,0.09-0.05,0.15-0.08,0.22h-16.24
				c-0.47-0.55-0.9-1.16-1.31-1.75c-1.49-2.13-2.97-4.25-4.46-6.38c-0.47,2.32-0.87,5.05-1.32,8.12l-1.81,0
				C240.81,252.11,239.21,240.33,241.31,237.76z"/>
			<path class="st7" d="M150.32,239.74c0.55-1.75,1.12-3.54,2.19-5.04c1.04-1.46,2.28-2.88,3.98-3.48c0.01,0.95,0.42,2.39,1.28,2.77
				c0.68,0.3,4.71,0.2,5.27,0.69c0.38,0.33-1.23,6.45-0.21,9.08c0,0,3.66,2.77,5.55,4.11c0.77,0.54,1.54,1.14,2.02,1.95
				c0.49,0.81,0.65,1.87,0.19,2.69c-0.04,0.08-0.1,0.13-0.15,0.2l-13.96-2.56l-1.9-0.75c-0.15-0.65-0.24-1.33-0.31-2
				c-0.28-2.39-0.56-4.79-0.84-7.18c-1.57,2.23-2.81,4.7-3.66,7.29l-1.69-0.66C148.83,244.48,149.57,242.11,150.32,239.74z"/>
			<path class="st12" d="M194.9,124.06c-3.41-1.61-22.94-3.47-26.4-4.97c-4.76-2.07-8.36-7.66-10.7-12.3
				c-1.29-2.56-2.32-5.24-3.35-7.92l-14.6,7.71c1.98,3.39,4.18,6.64,6.6,9.72c3.71,4.73,8.01,9.15,13.32,11.98
				c5.53,2.95,28.41,2.45,34.61,1.47C199.36,128.72,198.3,125.67,194.9,124.06z"/>
			<path class="st13" d="M151.81,92.42c-1.72-3.74-4.05-7.44-7.67-9.4c-3.85-2.09-11.76-1.64-12.15,3.91
				c-0.22,3.27,1.65,6.84,2.89,9.77c1.39,3.28,2.98,6.47,4.76,9.55c0.06,0.11,0.13,0.22,0.2,0.33l16.09-6.71
				C155.1,97.7,152.78,94.53,151.81,92.42z"/>
			<path class="st12" d="M208.87,117.29c1.61,0.71,3.07,1.93,3.71,3.57c0.63,1.64,0.48,5.45-1.15,4.78
				c-1.35-0.55-2.15-1.99-3.51-1.46c-1.35,0.53-2.31,1.73-3.4,2.7c-3.22,2.84-15.32,4.92-12.62-2.77
				C193.96,118.23,203.43,114.9,208.87,117.29z"/>
			<g>
				<path class="st12" d="M138.29,58.56c0.68-1.28,8.14,2.56,8.58,3.48c0.44,0.92,0.91,11.34,2.51,17.84
					c0.34,1.4-13.57-2.89-12.58-4.59C138.4,72.54,140.04,62.03,138.29,58.56z"/>
				<path class="st12" d="M159.79,49.17c-2.58-10.69-17.2-8.43-20.67-7.37c-3.47,1.07-3.56,5.98-3.9,9.59
					c-0.21,2.23,0.6,4.45,1.93,6.22c1.28,1.7,6.84,4.27,7.15,4.34c2.06,3.56,5.42,7.62,8.83,7.57c1.54-0.02,2.93-1.01,3.83-2.25
					c0.9-1.24,1.4-2.73,1.88-4.19C160.34,58.56,160.91,53.81,159.79,49.17z"/>
				<path class="st10" d="M134.49,55.38c-1.27-1.54-2.27-3.37-2.52-5.35c-0.3-2.34,0.48-4.74,1.8-6.7c2.35-3.5,8.44-8.02,13.35-8.12
					c5.25-0.11,14.26,5.12,13.41,11.61c-0.26,1.94-1.32,1.96-3.18,2.58c-2.45,0.82-5.74,1.38-7.77,2.98c-2.43,1.91-1.35,6.5-6.32,8
					c-1.61,0.48-3.26,3.32-4.33,5.53C137.66,64.48,135.72,56.87,134.49,55.38z"/>
				<path class="st10" d="M127.11,68.77c-0.47,2,0.24,4.09,0.12,6.14c-0.26,4.77-4.73,8.22-6.22,12.77
					c-0.57,1.75-0.67,3.73,0.14,5.38c0.81,1.65,2.67,2.85,4.48,2.52c2-0.36,3.29-2.31,4.04-4.2c0.75-1.89,1.24-3.97,2.64-5.44
					c2.16-2.27,5.9-2.48,7.98-4.82c2.01-2.26,3.5-8.53,3.5-13.16c0-8.93-2.86-17.07-7.15-15.78c-2.56,0.77-3.29,5.42-3.97,7.46
					C131.54,63.11,127.94,65.24,127.11,68.77z"/>
				<path class="st12" d="M141.1,56.2c-0.26,0.24-0.39,0.59-0.48,0.94c-0.26,1.09-0.05,2.27,0.55,3.22c0.6,0.94,1.59,1.63,2.69,1.85
					c0.43,0.09,0.91,0.1,1.29-0.13c1.3-0.79,0.64-3.56,0.02-4.63C144.51,56.35,142.21,55.17,141.1,56.2z"/>
			</g>
		</g>
		<path class="st1" d="M220.95,124.38l-28.48,2.28c-1.05,0.08-1.85,0.96-1.85,2.01v0c0,1.11,0.9,2.01,2.01,2.01h28.48
			c1.11,0,2.01-0.9,2.01-2.01v-2.28C223.12,125.21,222.12,124.28,220.95,124.38z"/>
		<g>
			<g>
				
					<rect x="160.81" y="194.37" transform="matrix(0.0918 -0.9958 0.9958 0.0918 4.3391 396.7556)" class="st14" width="117.72" height="3.25"/>
			</g>
			<g>
				
					<rect x="366.19" y="137.14" transform="matrix(0.9958 -0.0921 0.0921 0.9958 -16.4832 34.6973)" class="st14" width="3.25" height="117.72"/>
			</g>
			<path class="st14" d="M391.39,137.39H196.11c-1.85,0-3.36-1.5-3.36-3.36l0,0c0-1.85,1.5-3.36,3.36-3.36h195.28
				c1.85,0,3.36,1.5,3.36,3.36l0,0C394.75,135.88,393.24,137.39,391.39,137.39z"/>
		</g>
	</g>
	<path class="st6" d="M118.23,254.56L118.23,254.56c0-3.81,3.08-6.89,6.89-6.89h35.33c3.81,0,6.89,3.08,6.89,6.89v0H118.23z"/>
</g>
<g id="Calque_2">
</g>
</svg>
