<?xml version="1.0" encoding="utf-8"?>
<!-- Generator: Adobe Illustrator 25.0.1, SVG Export Plug-In . SVG Version: 6.00 Build 0)  -->
<svg version="1.1" xmlns="http://www.w3.org/2000/svg" xmlns:xlink="http://www.w3.org/1999/xlink" x="0px" y="0px"
	 viewBox="0 0 255 255" style="enable-background:new 0 0 255 255;" xml:space="preserve">
<style type="text/css">
	.st0{fill:#01015B;}
	.st1{fill:#F7F6F0;}
	.st2{fill:#ABCDF5;}
	.st3{fill-rule:evenodd;clip-rule:evenodd;fill:#F7F6F0;}
	.st4{fill-rule:evenodd;clip-rule:evenodd;fill:#66BCD5;}
	.st5{fill:#D38742;}
	.st6{fill-rule:evenodd;clip-rule:evenodd;fill:#000090;}
	.st7{fill:#F4A086;}
	.st8{fill:#A0B5BF;}
	.st9{fill-rule:evenodd;clip-rule:evenodd;fill:#01015B;}
	.st10{fill:#F7B690;}
	.st11{fill:#0067E2;}
	.st12{fill:#FF2D2D;}
	.st13{fill:#04518A;stroke:#04518A;stroke-width:0.3287;stroke-miterlimit:10;}
	.st14{fill:#000090;}
	.st15{fill-rule:evenodd;clip-rule:evenodd;fill:#18898D;}
	.st16{fill-rule:evenodd;clip-rule:evenodd;fill:#0067E2;}
	.st17{clip-path:url(#SVGID_4_);}
	.st18{clip-path:url(#SVGID_6_);}
	.st19{fill:none;stroke:#000090;stroke-width:2.3368;stroke-linecap:round;stroke-miterlimit:10;}
	.st20{fill:none;stroke:#000090;stroke-width:2.3368;stroke-linecap:round;stroke-miterlimit:10;stroke-dasharray:4.0751,4.0751;}
	.st21{fill:none;stroke:#000090;stroke-width:4;stroke-linecap:round;stroke-miterlimit:10;}
	.st22{fill:#FFFFFF;}
	.st23{fill:none;stroke:#000090;stroke-width:3;stroke-linecap:round;stroke-miterlimit:10;}
	.st24{fill-rule:evenodd;clip-rule:evenodd;fill:#FF2D2D;}
	.st25{fill-rule:evenodd;clip-rule:evenodd;fill:#052E93;}
	.st26{fill:url(#SVGID_7_);}
	.st27{fill-rule:evenodd;clip-rule:evenodd;fill:#CCCCCC;stroke:#CCCCCC;stroke-miterlimit:10;}
	.st28{fill:#052E93;}
	.st29{fill:#FF921E;}
	.st30{fill:#04518C;}
	.st31{fill-rule:evenodd;clip-rule:evenodd;fill:url(#SVGID_14_);}
	.st32{fill-rule:evenodd;clip-rule:evenodd;fill:#D38742;}
	.st33{fill-rule:evenodd;clip-rule:evenodd;fill:none;stroke:#FF2D2D;stroke-width:2.2054;stroke-miterlimit:10;}
	.st34{clip-path:url(#SVGID_16_);fill:none;stroke:#FFFFFF;stroke-miterlimit:10;}
	.st35{clip-path:url(#SVGID_18_);fill:none;stroke:#FFFFFF;stroke-miterlimit:10;}
	.st36{clip-path:url(#SVGID_20_);fill:none;stroke:#109E7B;stroke-miterlimit:10;}
	.st37{clip-path:url(#SVGID_22_);fill:#007054;stroke:#109E7B;stroke-miterlimit:10;}
	.st38{clip-path:url(#SVGID_22_);fill:#052E93;}
	.st39{clip-path:url(#SVGID_24_);fill:#052E93;}
	.st40{clip-path:url(#SVGID_24_);fill:none;stroke:#007054;stroke-miterlimit:10;}
	.st41{fill:url(#SVGID_27_);}
	.st42{fill:url(#SVGID_28_);}
	.st43{fill:url(#SVGID_29_);}
	.st44{fill-rule:evenodd;clip-rule:evenodd;fill:#2F29FF;}
	.st45{fill-rule:evenodd;clip-rule:evenodd;fill:#0D59A1;}
	.st46{fill-rule:evenodd;clip-rule:evenodd;fill:#003566;}
	.st47{clip-path:url(#SVGID_33_);}
	.st48{fill:#0D59A1;}
	.st49{fill:none;stroke:#2A577F;stroke-miterlimit:10;}
	.st50{fill-rule:evenodd;clip-rule:evenodd;fill:#12A7DB;}
	.st51{fill:#12A7DB;}
	.st52{fill:#003566;}
	.st53{fill-rule:evenodd;clip-rule:evenodd;fill:#FF4C4E;}
	.st54{fill:#FF4C4E;}
	.st55{fill-rule:evenodd;clip-rule:evenodd;fill:#363A5B;}
	.st56{fill-rule:evenodd;clip-rule:evenodd;fill:#FF4C4E;stroke:#FF4C4E;stroke-miterlimit:10;}
	.st57{fill-rule:evenodd;clip-rule:evenodd;fill:#04518A;}
	.st58{fill:#04518A;}
	.st59{fill:none;stroke:#3153A6;stroke-miterlimit:10;}
	.st60{fill-rule:evenodd;clip-rule:evenodd;fill:none;stroke:#01015B;stroke-width:5;stroke-miterlimit:10;}
	.st61{fill:#E10A17;}
	.st62{fill:#253574;}
	.st63{fill:#FFE80C;}
	.st64{fill-rule:evenodd;clip-rule:evenodd;fill:#444871;}
	.st65{fill-rule:evenodd;clip-rule:evenodd;fill:#0A3C5F;}
	.st66{fill:#A1B4B1;}
	.st67{fill-rule:evenodd;clip-rule:evenodd;fill:#FFED33;}
	.st68{fill:#FFED33;}
	.st69{fill:#ECF0EF;}
</style>
<g id="Calque_1">
	<g>
		<path class="st5" d="M141.41,145.71c1.39,19.59,5.23,39.66,16.25,55.92c2.38,3.5,8.4,8.42,12.62,8.14
			c8.15-0.53,5.3-10.03,5.75-12.46c3.57-19.14-2.27-38.65-8.09-57.23c-2.4-7.65-5.58-21.2-13.37-25.33
			c-8.12-4.3-12.2,8.98-12.95,14.39C140.87,134.63,141.02,140.21,141.41,145.71z"/>
		<path class="st14" d="M140.48,117.88c0.37-3.24-8.21-19.75-5.13-18.51c36.07,14.54,39.07,45.31,41.78,65.64l-35.88,2.21
			C138.85,151.04,138.57,134.4,140.48,117.88z"/>
		<path class="st5" d="M200.84,145.66c2.19-1.95,4.9-4.04,7.74-3.32c2.4,0.6,5.87,2.08,6.07,4.54c0.2,2.46-27.74,55.11-39.71,61.45
			c-6.02,3.19-8.54-0.18-11.66-5.42C158.93,195.61,192.88,152.75,200.84,145.66z"/>
		<path class="st15" d="M48.51,172.87c-0.03,0.12-0.05,0.25-0.05,0.38C48.48,173.12,48.5,172.99,48.51,172.87z"/>
		<path class="st5" d="M208.2,127.25c2.61-2.84,9.23-7.93,12.07-5.32c2.36,2.16,3.53,9.39,0.9,15.13
			c-1.17,2.56-3.92,9.27-8.48,10.87c-1.27,0.44-1.91-0.73-3.63-1.01c-4.84-0.79-5.92-3.93-6-8.24
			C202.98,133.83,204.94,130.81,208.2,127.25z"/>
		<path class="st5" d="M203.93,136.29c2.17-4.15,5.11-9.31,6.47-11.86c0.36-0.67,0.88-1.27,1.13-1.99c0.25-0.72,0.14-1.66-0.52-2.05
			c-0.85-0.49-1.86,0.22-2.58,0.88c-3.48,3.25-7.16,6.83-7.99,11.52c-0.29,1.63,2.92,8.6,3.35,10.46
			C203.79,143.26,204.19,136.76,203.93,136.29z"/>
		<path class="st11" d="M244.7,83.71c-8.41,17.28-13.2,39.36-20.86,57.62c-0.21,0.59-0.83,0.94-1.45,0.81l-43.72-16.69
			c-0.58-0.21-0.93-0.83-0.81-1.45c3.76-17,16.61-46.48,20.7-55.4c0.77-1.45,2.47-2.14,4.04-1.63l0.2,0.07
			c12.84,5.13,28.2,9.63,41.17,15.03C244.62,82.32,244.95,83.06,244.7,83.71"/>
		<path class="st22" d="M201.12,115.58l5.96,2.28l6.04,2.08l2.98,1.14c0.92,0.42,1.92,0.65,2.94,0.66c1.41-0.13,1.35-1.76,0.7-2.46
			c-0.91-0.57-1.92-0.96-2.98-1.14l-2.98-1.14l-6.11-1.88l-5.71-1.72l-3.06-0.94c-0.89-0.37-1.79-0.76-2.74-0.66
			c-0.8-0.3-1.33,1.16-0.53,1.47C195.62,113.26,199.21,115.18,201.12,115.58z M201.47,102.73l14.11,5.39c1.83,1,3.85,1.61,5.92,1.81
			c1.22-0.22,1.35-1.76,0.64-2.26c-0.86-0.66-1.85-1.12-2.91-1.33l-2.98-1.14l-5.64-1.93l-5.72-1.73c-1.83-0.84-3.79-1.35-5.79-1.52
			c-0.95,0.09-0.94,0.92-0.49,1.54C198.61,101.54,200.52,102.39,201.47,102.73z M204.76,88.73c1.52,0.92,3.17,1.63,4.89,2.09
			l16.1,6.14c1.35-0.02,1.98-1.66,0.98-2.58l-10.81-3.9l-5.36-2.05c-1.67-0.67-3.41-1.1-5.19-1.31
			C204.31,86.73,203.71,88.33,204.76,88.73z"/>
		<path class="st12" d="M191.22,66.94c-4.54,4.86-9.5,9.29-14.85,13.24c-1.18,0.69-0.11,0.87,0.37,0.83l12.95-0.52
			c0.23-0.13,0.51-0.02,0.6,0.23l0.01,10.7c0.04,2.29-0.07,3.16,1.15,2.94c1.22-0.21,9.04-12.94,13.41-19.01
			c0.17-0.32-0.1-0.69-0.45-0.62c-4.7-0.21-8.63-3.07-12.46-6.12L191.22,66.94z"/>
		<path class="st14" d="M154.71,194.37c3.2-15.77,8.65-31.16,10.97-47.05c1.08-7.43,2.66-16.58-1.68-23
			c-3.9-5.76-20.71-28.45-43.18-28.45c-32.02,0-48.51,10.97-56.41,20.61c-3.22,19.51,4.25,53.97,10.07,72.63
			c1.94,6.21,3.04,13.88,4,20.68c1.1,7.75,2.01,14.36,3.77,16.38c3.29,3.79,67.85,4.91,70.88,0.91c1.63-2.16,1.27-8.11,0.97-14.97
			C153.83,206.27,153.62,199.76,154.71,194.37z"/>
		<path class="st5" d="M64.97,195.92c-2.79-4.36-5.51-7.17-10.09-9.41c-2.72-1.33-5.9,2.44-8.57,3.89
			c-2.98,1.61,0.36,13.98-0.14,17.34c-0.71,4.68,1.66,5.1,5.69,11.33c3.87,5.98,7.36,7.51,9.34,2.64c2.2-5.43-2.93-14.83-2.36-18.83
			C56.9,216.52,60.51,188.95,64.97,195.92z"/>
		<path class="st5" d="M51.67,153.85c4.49-17.14,8.67-20.33,21.82-32.2c2.37-2.14,5.58-4.28,8.51-3.03c1.6,0.68,2.67,2.27,3.14,3.95
			c0.47,1.67,4.27,5.16,4.2,6.9c-0.81,20.27-17.34,55.74-24.07,71.48c-2.45,5.73,0.13,15.8-5.7,18.01
			c-3.05,1.16-15.85-5.85-17.82-17.66C39.95,190.58,50.33,158.96,51.67,153.85z"/>
		<path class="st14" d="M97.87,121.65c0.53-3.2,0.73-7.07-1.82-9.07c-2.69-2.11-29.37,1.34-31.64,3.9
			c-6.87,7.74-14.26,26.78-17.61,37.69l38.73,13.06C94.03,147.93,95.19,137.98,97.87,121.65z"/>
		<path class="st5" d="M43.32,214.88c-2.04-9.36-3.38-14.49-2.76-21.81c0.25-3,7.96-33.98,10.6-37.44
			c1.64-2.14-0.52,40.08,2.03,40.94c4.28,1.44,11.73,1.15,12.24,3.99c0.7,3.89,1.45,11.02,0,21.4
			C64.29,230.18,46.8,230.88,43.32,214.88z"/>
		<path class="st9" d="M144.79,60.93c-0.74,1.94-2.16,1.71-2.45-0.34c-0.93-6.53-0.89-7.59-4.85-12.89
			c-2.18-2.92-2.75-3.1-1.47-4.45C140.28,38.79,150.91,44.84,144.79,60.93z"/>
		<path class="st5" d="M129.81,73.42c-2.19-9.68-12.2-11.63-16.46-9.31c-2.73,18.12-1.9,24.48-7.14,34.89
			c8.83,5.66,21.12,5.46,24.38,0.85C130.72,98.4,130.95,78.42,129.81,73.42z"/>
		<path class="st5" d="M114.41,49.46c5.15-9.33,18.79-10.24,25.42-1.01c6.06,8.45,4.66,28.82,1.55,33.56
			c-5.44,8.29-21.09,2.67-24.01-2.3C113.08,72.42,110.08,57.31,114.41,49.46z"/>
		<path class="st9" d="M118.35,51.52c0.67,1.41,0.37,21.14,0.07,21.66c-2.32,4.1-0.39,5.33-4.85,4
			c-10.93-3.26-15.02-19.03-9.8-24.12C108.54,48.4,117.15,48.99,118.35,51.52z"/>
		<path class="st9" d="M100.48,45.13c10.6-10.64,29.88-17.38,36.23-15.01c9.45,3.52,6.07,20.17,1.26,20.17
			c-1.53,0-3.17-0.33-4.57-0.96c-6.64-2.99-9.8,1.25-14.11,2.86C111.66,55.03,91.45,54.2,100.48,45.13z"/>
		<path class="st5" d="M110.26,68.3c0.2,2.43,1.38,4.78,3.23,6.37c5.29,4.57,8.37-3.42,6.57-7.73
			C117.91,61.8,109.72,61.68,110.26,68.3z"/>
		<path class="st14" d="M191.82,55.77c-2.23,3.8-2.27,10.04,0.18,13.7c2.48,3.6,7.61,4.7,11.95,5.29c3.25,0.66,6.63-0.24,9.12-2.43
			c2.95-2.98,7.46-10.91-0.46-17.89C200.95,44.15,193.91,52.94,191.82,55.77z"/>
		<path class="st22" d="M196.89,60.46c-0.1-0.77,1.12-1.17,1.57-0.54c0.67,0.76,1.27,1.61,1.78,2.49l0.81,1.45l3.88-2.38l2.55-1.3
			c0.85-0.53,1.78-0.93,2.75-1.23c0.71-0.17,1.43,0.2,1.72,0.88c0.34,0.76,0,1.66-0.76,1.99l0.27-0.12
			c-3.49,1.62-8.72,4.49-10.46,5.02C199.59,65.89,197.05,61.72,196.89,60.46z"/>
	</g>
</g>
<g id="Calque_2">
</g>
</svg>
