<?xml version="1.0" encoding="utf-8"?>
<!-- Generator: Adobe Illustrator 25.0.1, SVG Export Plug-In . SVG Version: 6.00 Build 0)  -->
<svg version="1.1" xmlns="http://www.w3.org/2000/svg" xmlns:xlink="http://www.w3.org/1999/xlink" x="0px" y="0px"
	 viewBox="0 0 255 255" style="enable-background:new 0 0 255 255;" xml:space="preserve">
<style type="text/css">
	.st0{fill:#01015B;}
	.st1{fill:#F7F6F0;}
	.st2{fill:#ABCDF5;}
	.st3{fill-rule:evenodd;clip-rule:evenodd;fill:#F7F6F0;}
	.st4{fill-rule:evenodd;clip-rule:evenodd;fill:#66BCD5;}
	.st5{fill:#D38742;}
	.st6{fill-rule:evenodd;clip-rule:evenodd;fill:#000090;}
	.st7{fill:#F4A086;}
	.st8{fill:#A0B5BF;}
	.st9{fill-rule:evenodd;clip-rule:evenodd;fill:#01015B;}
	.st10{fill:#F7B690;}
	.st11{fill:#0067E2;}
	.st12{fill:#FF2D2D;}
	.st13{fill:#04518A;stroke:#04518A;stroke-width:0.3287;stroke-miterlimit:10;}
	.st14{fill:#000090;}
	.st15{fill-rule:evenodd;clip-rule:evenodd;fill:#18898D;}
	.st16{fill-rule:evenodd;clip-rule:evenodd;fill:#0067E2;}
	.st17{clip-path:url(#SVGID_4_);}
	.st18{clip-path:url(#SVGID_6_);}
	.st19{fill:none;stroke:#000090;stroke-width:2.3368;stroke-linecap:round;stroke-miterlimit:10;}
	.st20{fill:none;stroke:#000090;stroke-width:2.3368;stroke-linecap:round;stroke-miterlimit:10;stroke-dasharray:4.0751,4.0751;}
	.st21{fill:none;stroke:#000090;stroke-width:4;stroke-linecap:round;stroke-miterlimit:10;}
	.st22{fill:#FFFFFF;}
	.st23{fill:none;stroke:#000090;stroke-width:3;stroke-linecap:round;stroke-miterlimit:10;}
	.st24{fill-rule:evenodd;clip-rule:evenodd;fill:#FF2D2D;}
	.st25{fill-rule:evenodd;clip-rule:evenodd;fill:#052E93;}
	.st26{fill:url(#SVGID_7_);}
	.st27{fill-rule:evenodd;clip-rule:evenodd;fill:#CCCCCC;stroke:#CCCCCC;stroke-miterlimit:10;}
	.st28{fill:#052E93;}
	.st29{fill:#FF921E;}
	.st30{fill:#04518C;}
	.st31{fill-rule:evenodd;clip-rule:evenodd;fill:url(#SVGID_14_);}
	.st32{fill-rule:evenodd;clip-rule:evenodd;fill:#D38742;}
	.st33{fill-rule:evenodd;clip-rule:evenodd;fill:none;stroke:#FF2D2D;stroke-width:2.2054;stroke-miterlimit:10;}
	.st34{clip-path:url(#SVGID_16_);fill:none;stroke:#FFFFFF;stroke-miterlimit:10;}
	.st35{clip-path:url(#SVGID_18_);fill:none;stroke:#FFFFFF;stroke-miterlimit:10;}
	.st36{clip-path:url(#SVGID_20_);fill:none;stroke:#109E7B;stroke-miterlimit:10;}
	.st37{clip-path:url(#SVGID_22_);fill:#007054;stroke:#109E7B;stroke-miterlimit:10;}
	.st38{clip-path:url(#SVGID_22_);fill:#052E93;}
	.st39{clip-path:url(#SVGID_24_);fill:#052E93;}
	.st40{clip-path:url(#SVGID_24_);fill:none;stroke:#007054;stroke-miterlimit:10;}
	.st41{fill:url(#SVGID_27_);}
	.st42{fill:url(#SVGID_28_);}
	.st43{fill:url(#SVGID_29_);}
	.st44{fill-rule:evenodd;clip-rule:evenodd;fill:#2F29FF;}
	.st45{fill-rule:evenodd;clip-rule:evenodd;fill:#0D59A1;}
	.st46{fill-rule:evenodd;clip-rule:evenodd;fill:#003566;}
	.st47{clip-path:url(#SVGID_33_);}
	.st48{fill:#0D59A1;}
	.st49{fill:none;stroke:#2A577F;stroke-miterlimit:10;}
	.st50{fill-rule:evenodd;clip-rule:evenodd;fill:#12A7DB;}
	.st51{fill:#12A7DB;}
	.st52{fill:#003566;}
	.st53{fill-rule:evenodd;clip-rule:evenodd;fill:#FF4C4E;}
	.st54{fill:#FF4C4E;}
	.st55{fill-rule:evenodd;clip-rule:evenodd;fill:#363A5B;}
	.st56{fill-rule:evenodd;clip-rule:evenodd;fill:#FF4C4E;stroke:#FF4C4E;stroke-miterlimit:10;}
	.st57{fill-rule:evenodd;clip-rule:evenodd;fill:#04518A;}
	.st58{fill:#04518A;}
	.st59{fill:none;stroke:#3153A6;stroke-miterlimit:10;}
	.st60{fill-rule:evenodd;clip-rule:evenodd;fill:none;stroke:#01015B;stroke-width:5;stroke-miterlimit:10;}
	.st61{fill:#E10A17;}
	.st62{fill:#253574;}
	.st63{fill:#FFE80C;}
	.st64{fill-rule:evenodd;clip-rule:evenodd;fill:#444871;}
	.st65{fill-rule:evenodd;clip-rule:evenodd;fill:#0A3C5F;}
	.st66{fill:#A1B4B1;}
	.st67{fill-rule:evenodd;clip-rule:evenodd;fill:#FFED33;}
	.st68{fill:#FFED33;}
	.st69{fill:#ECF0EF;}
</style>
<g id="Calque_1">
	<g>
		<defs>
			<path id="SVGID_3_" d="M193.38,128.92c18.69,0,33.88-15.19,33.88-33.76c-0.06-18.67-15.22-33.77-33.88-33.77
				c-12.73-1.06-24.98,5.14-31.67,16.02c-6.69,10.89-6.69,24.61,0,35.5C168.4,123.78,180.64,129.98,193.38,128.92z"/>
		</defs>
		<use xlink:href="#SVGID_3_"  style="overflow:visible;fill:#ABCDF5;"/>
		<clipPath id="SVGID_2_">
			<use xlink:href="#SVGID_3_"  style="overflow:visible;"/>
		</clipPath>
		<g style="clip-path:url(#SVGID_2_);">
			<path class="st9" d="M173.31,297.48c-1.76,3.33-4.12,7.07-7.35,7.89c-2.24,0.57-8.27-3.88-9.45-5.62s6.15-82.54,9.14-87.35
				c4.02-6.45,33.1,3.94,31.59,15.37c-1.92,14.61-6.77,30.03-12.35,44.36C181.54,280.73,177.67,289.21,173.31,297.48z"/>
			<path class="st9" d="M213.69,234.21c-2.78,2-6.35,2.17-9.68,2.03c-27.44-1.17-42.93-10.77-38.6-23.22
				c4.45-12.78,28.92-9.64,41.56-4.92c2.73,1.02,6.72,2.06,8.5,4.72C218.05,216.68,220.44,229.34,213.69,234.21z"/>
			<path class="st5" d="M179.95,143.84c-1.43,12.57-4.46,25.39-12,35.55c-1.63,2.19-3.95,4.44-6.64,4.04
				c-1.58-0.23-2.91-1.38-3.71-2.76c-0.8-1.38-1.13-2.98-1.36-4.56c-1.77-12.42,2.53-24.82,6.78-36.62
				c1.75-4.86,4.18-13.5,9.31-15.94c5.34-2.54,7.61,6.12,7.94,9.62C180.61,136.72,180.36,140.31,179.95,143.84z"/>
			<path class="st14" d="M181.32,125.95c-0.15-2.1-0.6-4.58-2.5-5.57c-2-1.05-4.25,0.26-5.91,1.62c-10,8.23-14.17,20.27-16.48,33.29
				l23.04,2.41C181.46,147.34,182.09,136.64,181.32,125.95z"/>
			<path class="st9" d="M208.59,298.98c-1.07,3.36-2.66,7.14-5.7,7.96c-2.11,0.57-8.99-3.91-10.5-5.66
				c-1.51-1.75-11.33-70.22-9.33-75.07c2.68-6.51,8.89-10.54,15.12-11.26c9.06-1.05,19.29,2.19,20.1,13.72
				c1.03,14.74-0.66,30.29-3.31,44.75C213.38,282.09,211.25,290.65,208.59,298.98z"/>
			<path class="st5" d="M140.33,143.29c-1.49-1.16-3.31-2.4-5.11-1.83c-1.52,0.48-2.39,2.17-2.42,3.76
				c-0.03,1.59,17.8,33.67,25.75,37.26c4,1.81,7.29-0.32,9.09-3.81C170.14,173.81,145.74,147.53,140.33,143.29z"/>
			<path class="st14" d="M166,129.45c-2.97,4.02-2.21,9.95-1.72,14.76c1.05,10.29,4.14,20.35,5.77,30.59
				c1.63,10.24,1.69,21.03-3.03,30.42c-0.74,1.47-1.6,2.93-1.81,4.54c-0.21,1.61,0.42,3.43,2.01,4.23c0.94,0.47,2.05,0.52,3.12,0.56
				c14.41,0.52,28.83,1.05,43.24,1.57c0.96,0.03,1.98,0.05,2.79-0.4c1.78-1.01,1.28-3.38,0.73-5.2c-3.64-12.18,0.46-24.96,4.75-36.9
				c4.26-11.85,9.49-26.49,7.95-39.14c-4.82-6.43-14.6-21.28-35.22-22.16C180.12,111.7,168.67,125.84,166,129.45z"/>
			<path class="st5" d="M235.91,159.59c-2.42-11.16-8.16-21.57-16.3-29.57c-1.47-1.44-3.47-2.91-5.4-2.18
				c-1.05,0.39-1.78,1.39-2.13,2.46c-0.35,1.07-0.37,2.21-0.37,3.33c-0.04,13.07,1.78,26.07,3.6,39.02
				c0.56,3.98,1.13,8.01,2.68,11.71c1.55,3.71,4.21,7.11,7.91,8.7c1.93,0.83,5.13,1.4,7,0.07c1.51-1.08,1.87-3.96,2.31-5.59
				c1.56-5.79,2.23-11.82,1.99-17.81C237.06,166.31,236.63,162.92,235.91,159.59z"/>
			<path class="st15" d="M239.01,163.88c0.02,0.08,0.02,0.16,0.02,0.25C239.03,164.04,239.02,163.96,239.01,163.88z"/>
			<path class="st14" d="M211.61,127.24c0.2-2.08,0.71-4.52,2.62-5.35c2.02-0.88,5.63,1.09,7.25,2.59
				c9.81,9.08,14.97,21.11,16.98,34.31l-25.72,0.33C210.99,148.6,210.6,137.86,211.61,127.24z"/>
			<path class="st5" d="M201.6,152.48c-2.03-0.28-3.91,1.46-4.45,3.43c-0.54,1.97,21.65,34.59,27.16,39.21
				c1.68,1.4,3.71,2.89,5.84,2.4c1.9-0.44,3.1-2.32,3.84-4.12c1.26-3.03,2.19-6.87,1.68-10.16c-0.35-2.27-2.37-3.06-3.96-4.42
				C225.85,173.81,202.9,152.66,201.6,152.48z"/>
			<path class="st5" d="M196.18,129.84c-0.58-0.58-1.42-1.17-2.14-0.79c-0.46,0.24-0.67,0.81-0.65,1.34
				c0.02,0.52,0.21,1.02,0.35,1.52c0.72,2.6,0.08,5.34-0.2,8.02c-0.63,6,0.62,12.18,3.52,17.47c2.48,4.52,7.39-2.34,7.33-5.44
				c-0.1-5.05-0.97-10.54-3.2-15.11C199.91,134.26,198.22,131.87,196.18,129.84z"/>
			<g>
				<path class="st9" d="M177.32,91.13c0.64,1.18,1.52,0.91,1.54-0.42c0.04-4.25-0.08-4.92,2-8.65c1.15-2.05,1.49-2.21,0.56-2.96
					C178.32,76.6,172.04,81.37,177.32,91.13z"/>
				<path class="st5" d="M189.41,97.62c1.68-6.17,6.46-7.43,9.14-5.82c1.26,11.74,2.83,17,7.13,23.56
					c-5.84,3.4-15.52,2.31-17.49-0.75C188.14,113.68,188.54,100.81,189.41,97.62z"/>
				<path class="st5" d="M195.75,81.22c-4.08-5.52-12.88-4.94-16.32,1.52c-3.15,5.91-0.52,18.8,1.87,21.57
					c4.18,4.83,13.7-0.09,15.14-3.52C198.55,95.77,199.18,85.86,195.75,81.22z"/>
				<path class="st9" d="M193.4,82.87c-0.31,0.96,1.43,13.97,1.8,13.84c1.29-0.47,3.06-4.03,5.44-3.79c0.76,0.08,1.8,0.62,1.89-0.91
					c0.6-9.69,0.96-9.18-0.73-10.15C198.08,79.74,193.96,81.15,193.4,82.87z"/>
				<path class="st9" d="M204.27,77.26c-7.68-5.9-20.57-8.55-24.42-6.51c-5.73,3.05-2.02,12.62,0.06,13.22
					c0.95,0.28,1.86-0.44,2.7-0.96c3.98-2.47,7.36-0.31,10.25,0.35C197.98,84.54,210.81,82.29,204.27,77.26z"/>
				<path class="st5" d="M202.81,91.52c0.08,1.57-0.48,3.17-1.52,4.35c-2.99,3.37-5.64-1.47-4.86-4.38
					C197.37,88.02,202.59,87.25,202.81,91.52z"/>
			</g>
			<path class="st5" d="M136.78,131.71c-1.79-1.72-4.35-2.88-6.77-2.32c-2.26,0.52-4.02,2.52-4.59,4.77
				c-0.57,2.25-0.06,4.68,1.07,6.71c1.13,2.03,5.57,6.14,10.6,5c3.08-0.7,3.65-2.77,3.53-5.54
				C140.47,137.19,139.02,133.87,136.78,131.71z"/>
			<path class="st5" d="M134.74,137.45l7.88,1.05c-0.14,2.11-0.73,4.35-1.15,6.05c-0.53,2.12-8.47,2.4-8.67,0.68
				C132.62,143.72,133.91,139.79,134.74,137.45z"/>
			<path class="st0" d="M138.75,141.8l-9.58-0.41c-0.57-0.02-1.14-0.51-1.27-1.08l-4.98-20.58c-0.13-0.57,0.22-1.02,0.78-0.99
				l9.58,0.41c0.57,0.02,1.14,0.51,1.27,1.08l4.98,20.58C139.67,141.38,139.32,141.83,138.75,141.8z"/>
			<path class="st0" d="M139.69,141.84l-9.58-0.41c-0.57-0.02-1.14-0.51-1.27-1.08l-4.98-20.58c-0.13-0.57,0.22-1.02,0.78-0.99
				l9.58,0.41c0.57,0.02,1.14,0.51,1.27,1.08l4.98,20.58C140.6,141.42,140.25,141.87,139.69,141.84z"/>
			<path class="st16" d="M138.94,140.7l-8.63-0.37c-0.51-0.02-1.02-0.46-1.14-0.98l-4.49-18.55c-0.12-0.52,0.19-0.92,0.71-0.9
				l8.63,0.37c0.51,0.02,1.02,0.46,1.14,0.98l4.49,18.55C139.77,140.33,139.46,140.73,138.94,140.7z"/>
			<path class="st5" d="M140.49,138.62c-1.81-2.41-4.29-6.35-5.42-7.83c-0.3-0.39-0.69-0.71-0.92-1.15
				c-0.24-0.43-0.26-1.04,0.12-1.35c0.49-0.4,1.21-0.06,1.73,0.29c2.55,1.7,5.27,3.6,6.28,6.5c0.35,1.01,0.43,2.19,0.35,3.42
				C142.62,138.5,140.37,138.95,140.49,138.62z"/>
			<path class="st5" d="M131.33,140.24c0.19,0.51,0.42,1.02,0.47,1.56c0.05,0.54-0.13,1.14-0.6,1.43c-0.61,0.38-1.4,0.08-2.02-0.27
				c-3-1.68-5.3-4.56-6.28-7.86c-0.47-1.56-0.53-3.52,0.74-4.54c1.16-0.93,2.96-0.59,4.1,0.37
				C130.85,133.53,130.06,136.86,131.33,140.24z"/>
		</g>
	</g>
	<path class="st11" d="M75.57,147.02c3.51-4.32,30.26-37.62,37.27-46.15c6.89-8.65,11.92,0.12,6.43,7.95
		c-5.49,7.83-31.55,44.75-31.55,44.75s1.75-0.23,10.17-10.87c4.91-6.19,13.44,2.57,10.28,7.13c-7.83,11.33-7.48,13.2-7.48,13.2
		s5.37-7.13,10.05-13.09c4.79-5.96,11.45,3.15,9,5.73c-8.3,10.75-10.4,15.31-10.4,15.31s5.02-5.73,9.81-11.57
		c4.67-5.84,11.33,4.67,5.02,12.5c-6.31,7.83-19.16,23.72-29.09,36.1c-10.05,12.39-33.54,25.75-33.54,25.75l-26.51-13.11
		c0,0,4.08-34.71,7.12-45.23c3.04-10.63,11.03-35.82,12.55-44.7c1.52-8.88,11.06-4.96,9.89,2.17c-1.17,7.24-2.63,26.11-2.98,28.68
		C61.26,164.13,72.06,151.34,75.57,147.02z"/>
	<path class="st14" d="M73.89,210.88V88.43c0-6.43,4.83-11.57,10.86-11.57h56.15c6.03,0,10.86,5.14,10.86,11.57V211
		c0,8.53-6.47,15.54-14.59,15.54H88.48C80.47,226.42,73.89,219.53,73.89,210.88z"/>
	<path class="st2" d="M138.4,218.41H88.63c-2.92,0-5.32-2.89-5.32-6.4V90.22c0-3.52,2.4-6.4,5.32-6.4h49.67
		c2.92,0,5.32,2.89,5.32,6.4V212C143.72,215.52,141.32,218.41,138.4,218.41z"/>
	<path class="st14" d="M129.62,147.23H90.84c-0.75,0-1.39-0.7-1.39-1.52v-1.52c0-0.82,0.64-1.52,1.39-1.52h38.78
		c0.75,0,1.39,0.7,1.39,1.52v1.52C131.11,146.53,130.47,147.23,129.62,147.23z"/>
	<path class="st14" d="M129.62,156.55H90.84c-0.75,0-1.39-0.7-1.39-1.52v-1.52c0-0.82,0.64-1.52,1.39-1.52h38.78
		c0.75,0,1.39,0.7,1.39,1.52v1.52C131.11,155.85,130.47,156.55,129.62,156.55z"/>
	<path class="st14" d="M129.62,165.87H90.84c-0.75,0-1.39-0.7-1.39-1.52v-1.52c0-0.82,0.64-1.52,1.39-1.52h38.78
		c0.75,0,1.39,0.7,1.39,1.52v1.52C131.11,165.17,130.47,165.87,129.62,165.87z"/>
	<path class="st14" d="M100.77,109.67c-2.8,0-5.49-1.05-7.48-3.15c-1.99-1.99-3.15-4.67-3.15-7.48c0-2.8,1.05-5.49,3.15-7.48
		c1.99-1.99,4.67-3.15,7.48-3.15c2.8,0,5.49,1.05,7.48,3.15c1.99,1.99,3.15,4.67,3.15,7.48c0,2.8-1.05,5.49-3.15,7.48
		C106.27,108.62,103.7,109.67,100.77,109.67z"/>
	<path class="st2" d="M100.77,107.1c-4.44,0-7.95-3.62-7.95-7.95c0-4.32,3.62-7.95,7.95-7.95s7.95,3.62,7.95,7.95
		C108.72,103.48,105.21,107.1,100.77,107.1z"/>
	<path class="st14" d="M102.53,103.36h-2.34v-4.79h-1.05v-1.29h2.34v4.79h1.05V103.36z"/>
	<path class="st14" d="M100.19,94.83h1.29v1.29h-1.29V94.83z"/>
	<path class="st14" d="M136.33,119.25H90.84c-0.75,0-1.39-0.7-1.39-1.52v-1.52c0-0.82,0.64-1.52,1.39-1.52h45.49
		c0.75,0,1.39,0.7,1.39,1.52v1.52C137.72,118.55,137.08,119.25,136.33,119.25z"/>
	<path class="st14" d="M119.07,128.58H90.84c-0.75,0-1.39-0.7-1.39-1.52v-1.52c0-0.82,0.64-1.52,1.39-1.52h28.23
		c0.75,0,1.39,0.7,1.39,1.52v1.52C120.56,127.88,119.92,128.58,119.07,128.58z"/>
	<path class="st14" d="M136.33,137.96H90.84c-0.75,0-1.39-0.7-1.39-1.52v-1.64c0-0.82,0.64-1.52,1.39-1.52h45.49
		c0.75,0,1.39,0.7,1.39,1.52v1.52C137.72,137.26,137.08,137.96,136.33,137.96z"/>
	<g>
		<defs>
			<path id="SVGID_5_" d="M124.03,65.34c18.15,0,32.67-14.52,32.67-32.34c0-17.82-14.85-32.34-32.67-32.34
				c-17.89,0-32.41,14.45-32.5,32.34C91.53,50.81,106.05,65.34,124.03,65.34z"/>
		</defs>
		<use xlink:href="#SVGID_5_"  style="overflow:visible;fill:#ABCDF5;"/>
		<clipPath id="SVGID_4_">
			<use xlink:href="#SVGID_5_"  style="overflow:visible;"/>
		</clipPath>
		<g class="st17">
			<path class="st9" d="M115.75,205.5c-0.67-7.74-1.35-15.49-2.02-23.23c-0.72-8.31-1.44-16.77,0.03-25.21
				c1.48-8.44,3.41-19.47,10.05-24.26c8.49-6.12,21.25-7.55,22.77,4.13c5.35,41.1-21.78,103.84-27.43,118.03
				c-1.56,3.93-3.19,7.83-4.87,11.72l-11.13-0.97C106.86,243.26,109.02,217.16,115.75,205.5z"/>
			<path class="st9" d="M107.15,214.52c-1.68,3.57-4.24,7.53-7.75,7.35c-2.13-0.11-3.95-1.85-4.99-3.95s-1.43-4.54-1.8-6.93
				c-1.62-10.33-3.25-20.65-4.87-30.98c-1.31-8.36-2.63-16.87-1.77-25.37c0.86-8.5,4.24-17.14,10.5-21.96
				c8-6.16,21.4-4.16,23.02,7.67c2.15,15.68,0.49,32.76-3.21,48.11C114.11,197.48,111.05,206.25,107.15,214.52z"/>
			<path class="st9" d="M91.87,200.55c7.79-9.31,20.31-1.92,16.36,9.87c-4.77,14.25-11.66,28.15-18.52,41.49
				c-1.81,3.52-3.69,7.02-5.6,10.49l-10.54-4.45C79.26,235.66,83.91,210.06,91.87,200.55z"/>
			<path class="st9" d="M120.39,158.82c-5.68-0.66-48.03-0.67-21.53-35.55c3.69-4.86,11.96-4.7,18.06-4.93
				c8.26-0.32,24.17,1.15,27.44,8.91C154.59,151.46,126.68,159.54,120.39,158.82z"/>
			<path class="st12" d="M134.17,77.72c-1.2-6.17-1.92-13.14,0.61-19.09c0.79-1.86,0.94-2.15,2.56-1.05
				c1.28,0.87,2.39,2.35,3.36,3.54c1.97,2.44,3.59,5.15,4.93,7.98c1.41,2.96,2.52,6.04,3.52,9.16l-13.6,5.56
				C135.03,81.79,134.57,79.76,134.17,77.72z"/>
			<path class="st11" d="M149.15,78.25c0.66,2.07,1.27,4.15,1.88,6.23c3.34,11.44,6.69,22.89,10.03,34.33
				c0.32,1.08,0.63,2.26,0.22,3.31c-0.65,1.67-2.91,2.19-4.57,1.54c-1.66-0.66-2.85-2.13-3.91-3.57
				c-8.01-10.83-13.89-23.23-17.25-36.28L149.15,78.25z"/>
			<path class="st11" d="M171.26,84.05c-0.14-1.2-0.55-2.66-1.74-2.9c-1.13-0.23-2.06,0.84-2.7,1.8
				c-5.38,8.1-13.73,35.13-11.55,38.91c2.04,3.53,4.86,3.94,7.34,0.74C167.65,116.09,171.82,88.87,171.26,84.05z"/>
			<g>
				<path class="st0" d="M154.42,83.06l9.55,0.83c0.57,0.05,1.19-0.36,1.4-0.91l7.6-19.76c0.21-0.55-0.08-1.04-0.65-1.09l-9.55-0.83
					c-0.57-0.05-1.19,0.36-1.4,0.91l-7.6,19.76C153.57,82.52,153.86,83.01,154.42,83.06z"/>
				<path class="st0" d="M153.77,81.97l7.6-19.76c0.21-0.55,0.83-0.96,1.4-0.91l1.02,0.09c-0.57-0.05-1.19,0.36-1.4,0.91l-7.6,19.76
					c-0.21,0.55,0.08,1.04,0.65,1.09l-1.02-0.09C153.86,83.01,153.57,82.52,153.77,81.97z"/>
			</g>
			<path class="st11" d="M172.21,81.26c0.49-2.54,0.14-5.37-1.53-7.35c-1.34-1.59-3.37-2.46-5.42-2.82
				c-0.89-0.16-2.04-0.09-2.39,0.74c-0.31,0.74,0.25,1.53,0.5,2.29c0.58,1.73-0.44,3.55-0.8,5.34c-0.4,1.99,0.04,4.13,1.21,5.79
				c0.93,1.32,3.64,3.76,5.43,2.82C170.88,87.18,171.89,82.95,172.21,81.26z"/>
			<path class="st12" d="M109.18,106.16c2.75-14.12-11.51-27.41-8.82-41.54c1.83-9.64,12.12-16.48,21.88-15.49
				s18.12,8.87,20.82,18.31c1.28,4.48,1.42,9.27,0.43,13.81c-0.7,3.17-1.93,6.21-2.75,9.35c-1.69,6.44-1.6,13.17-0.62,19.71
				c0.86,5.71,3.29,11.29,4.26,16.94l-45.5-3.98C100.38,121.08,108.39,110.24,109.18,106.16z"/>
			<path class="st12" d="M92.18,69.35c1.86-4.57,4.85-8.83,9.1-11.33c1.05-0.61,2.36-1.11,3.43-0.54c1,0.54,1.35,1.79,1.53,2.92
				c1.18,7.39-0.51,14.86-2.43,22.13l-14.31-3.54C90.13,75.7,90.92,72.45,92.18,69.35z"/>
			<path class="st11" d="M88.65,83.69c0.27-1.57,0.54-3.13,0.84-4.7l14.31,3.54c-0.18,0.69-0.37,1.39-0.56,2.08
				c-1.96,7.26-3.91,14.52-5.87,21.79c-0.73,2.72-0.96,6.06-3.6,7.64c-1.9,1.14-4.55,1.21-6.33-0.2c-1.54-1.22-2.33-3.2-2.53-5.16
				c-0.19-1.96,0.14-3.93,0.47-5.87C86.48,96.44,87.57,90.06,88.65,83.69z"/>
			<path class="st11" d="M90.66,150.46c-0.1,1.72-0.42,5.77-2.14,5.76c-1.33-0.01-2.43-3.44-2.61-4.76
				c-1.27-9.17-1.68-39.57-0.99-41.61c1.13-3.37,9.74-5.32,11.46-0.59C98.12,114.04,91.55,134.83,90.66,150.46z"/>
			<path class="st11" d="M92.58,155.29c0.35,2.68,0.7,5.37,1.05,8.05c-0.26,0.53-1.13,0.32-1.44-0.19c-0.31-0.5-0.29-1.13-0.48-1.69
				c-0.18-0.56-0.75-1.11-1.3-0.88c-0.55,0.23-0.56,0.98-0.49,1.57c0.34,2.71,0.68,5.41,1.02,8.12c-1.87,1.06-4.37,0.3-5.84-1.28
				c-1.46-1.58-2.06-3.76-2.35-5.89c-0.39-2.96-0.25-6,0.4-8.91c0.38-1.68,1.02-3.45,2.43-4.43
				C89.22,147.24,92.21,152.45,92.58,155.29z"/>
			<path class="st9" d="M138.4,10.45c-0.94-3.11-3.67-5.6-6.84-6.27c-3.18-0.67-6.67,0.5-8.8,2.96c-1.08,1.25-1.86,2.82-3.26,3.69
				c-1.85,1.14-4.22,0.74-6.36,1.09c-3.26,0.53-6.12,3.01-7.1,6.16c-1.99,6.38,3.43,13.28,1.62,19.71c-0.83,2.93-3.04,5.24-5.3,7.28
				c-2.26,2.04-4.7,3.98-6.25,6.6c-1.55,2.62-2,6.17-0.18,8.61c1.3,1.74,3.46,2.59,5.53,3.24c2.31,0.73,4.71,1.01,7.13,1.22
				c5.59,0.49,6.59-11.01,7.65-19.88c0.61-5.13,12.58-4.65,14.46-9.46c1.03-2.64,0.38-5.63,0.9-8.42c0.51-2.72,2.08-4.53,4-6.38
				c1.43-1.38,2.51-3.6,2.94-5.51C138.89,13.55,138.85,11.94,138.4,10.45z"/>
			<path class="st11" d="M128.42,38.44c-0.91,3.55-1.01,7.31-0.29,10.91c0.22,1.11,0.48,2.41-0.25,3.27
				c-0.7,0.83-1.95,0.84-3.03,0.78c-1.81-0.1-3.66-0.21-5.35-0.87c-1.69-0.67-3.41-1.16-3.83-2.92c0.24-2,0.46-4.11,0.72-5.26
				c0.84-2.75,1.68-5.5,2.52-8.25c0.25-0.81,0.52-1.65,1.13-2.23c1.03-0.96,2.75-0.82,3.94-0.06s1.99,2,2.74,3.19L128.42,38.44z"/>
			<path class="st11" d="M133.85,37.69c1.06-1.73,1.47-3.77,1.85-5.77c0.52-2.75,1.03-5.53,0.8-8.32s-1.31-5.61-3.47-7.39
				c-2.61-2.14-6.35-2.4-9.63-1.6c-2.85,0.69-5.66,2.26-6.99,4.87c-0.72,1.42-0.95,3.03-1.16,4.61c-0.28,2.05-0.56,4.15-0.1,6.17
				c0.51,2.23,1.89,4.2,3.59,5.73s3.71,2.68,5.74,3.74c1.17,0.61,2.38,1.2,3.69,1.4C130.78,41.52,132.57,39.77,133.85,37.69z"/>
			<path class="st9" d="M124.04,19.63c-1.4,2.54-1.24,5.91-3.28,7.98c-1.65,1.68-4.58,1.89-6.46,0.45
				c-1.43-1.09-2.16-2.95-2.11-4.74c0.06-1.8,0.84-3.52,1.96-4.92c1.12-1.4,2.58-2.51,4.1-3.46c2.35-1.46,4.95-2.59,7.69-2.93
				c1.74-0.21,3.54-0.09,5.21,0.44c1.26,0.4,3.7,1.32,3.91,2.88c0.21,1.54-1.14,1.7-2.19,1.31c-1.59-0.59-3.04-0.85-4.72-0.34
				C126.43,16.82,124.92,18.04,124.04,19.63z"/>
			<path class="st11" d="M116.95,26.68c-0.49-0.23-1.02-0.42-1.56-0.45s-1.12,0.13-1.5,0.52c-0.52,0.52-0.59,1.34-0.47,2.06
				c0.31,1.82,1.77,3.25,3.69,3.04c1.45-0.16,2.12-1.4,1.98-2.8C118.96,27.87,117.96,27.15,116.95,26.68z"/>
		</g>
	</g>
	<path class="st14" d="M206.11,23.72c-6.4,6.15-10.5,10.86-14.53,15.75c-1.1,1.33-2.93,1.3-4.04,0c0,0-5.75-6.16-8.21-7.94
		c-1.19-0.87,0.84-3.09,2.55-2.15c1.69,0.93,3.34,2,4.83,3.21l2.42,2.02c0,0,7.46-10.68,12.93-14.92c1.09-0.84,2.67-0.61,3.64,0.4
		c1.11,1.11,1.11,2.94,0,4.04L206.11,23.72z"/>
	<path class="st5" d="M128.38,227.31c7.98,10.18,21.46,17.33,21.46,17.33l12.6,8.75c0,0,20.92-3.29,33.59-9.02
		c3.29-43.93-2.37-68.81-13.77-63.22c-0.81-7.72-12.53-10.05-14.37-4.47c0-7.01-13.45-9.34-16.41-2.42c0,0-8.09-21.27-16.61-34.48
		s-18.44-3.87-12.77,6.53c13.62,24.97,13.28,38.56,15.07,44.89c1.79,6.33-0.42,24.98-17.06,3.91c-7.18-9.1-16.23-4.69-12.18,3.41
		S120.4,217.13,128.38,227.31z"/>
	<g>
		<g>
			<path class="st19" d="M161.72,36.62c0.78,0,1.56,0.06,2.33,0.17"/>
			<path class="st20" d="M167.99,37.8c7.28,2.71,13.24,9.62,15.39,15.47"/>
			<path class="st19" d="M183.96,55.22c0.18,0.81,0.28,1.59,0.28,2.31"/>
		</g>
	</g>
</g>
<g id="Calque_2">
</g>
</svg>
