<?xml version="1.0" encoding="utf-8"?>
<!-- Generator: Adobe Illustrator 25.0.1, SVG Export Plug-In . SVG Version: 6.00 Build 0)  -->
<svg version="1.1" xmlns="http://www.w3.org/2000/svg" xmlns:xlink="http://www.w3.org/1999/xlink" x="0px" y="0px"
	 viewBox="0 0 255 255" style="enable-background:new 0 0 255 255;" xml:space="preserve">
<style type="text/css">
	.st0{fill:#01015B;}
	.st1{fill:#F7F6F0;}
	.st2{fill:#ABCDF5;}
	.st3{fill-rule:evenodd;clip-rule:evenodd;fill:#F7F6F0;}
	.st4{fill-rule:evenodd;clip-rule:evenodd;fill:#66BCD5;}
	.st5{fill:#D38742;}
	.st6{fill-rule:evenodd;clip-rule:evenodd;fill:#000090;}
	.st7{fill:#F4A086;}
	.st8{fill:#A0B5BF;}
	.st9{fill-rule:evenodd;clip-rule:evenodd;fill:#01015B;}
	.st10{fill:#F7B690;}
	.st11{fill:#0067E2;}
	.st12{fill:#FF2D2D;}
	.st13{fill:#04518A;stroke:#04518A;stroke-width:0.3287;stroke-miterlimit:10;}
	.st14{fill:#000090;}
	.st15{fill-rule:evenodd;clip-rule:evenodd;fill:#18898D;}
	.st16{fill-rule:evenodd;clip-rule:evenodd;fill:#0067E2;}
	.st17{clip-path:url(#SVGID_4_);}
	.st18{clip-path:url(#SVGID_6_);}
	.st19{fill:none;stroke:#000090;stroke-width:2.3368;stroke-linecap:round;stroke-miterlimit:10;}
	.st20{fill:none;stroke:#000090;stroke-width:2.3368;stroke-linecap:round;stroke-miterlimit:10;stroke-dasharray:4.0751,4.0751;}
	.st21{fill:none;stroke:#000090;stroke-width:4;stroke-linecap:round;stroke-miterlimit:10;}
	.st22{fill:#FFFFFF;}
	.st23{fill:none;stroke:#000090;stroke-width:3;stroke-linecap:round;stroke-miterlimit:10;}
	.st24{fill-rule:evenodd;clip-rule:evenodd;fill:#FF2D2D;}
	.st25{fill-rule:evenodd;clip-rule:evenodd;fill:#052E93;}
	.st26{fill:url(#SVGID_7_);}
	.st27{fill-rule:evenodd;clip-rule:evenodd;fill:#CCCCCC;stroke:#CCCCCC;stroke-miterlimit:10;}
	.st28{fill:#052E93;}
	.st29{fill:#FF921E;}
	.st30{fill:#04518C;}
	.st31{fill-rule:evenodd;clip-rule:evenodd;fill:url(#SVGID_14_);}
	.st32{fill-rule:evenodd;clip-rule:evenodd;fill:#D38742;}
	.st33{fill-rule:evenodd;clip-rule:evenodd;fill:none;stroke:#FF2D2D;stroke-width:2.2054;stroke-miterlimit:10;}
	.st34{clip-path:url(#SVGID_16_);fill:none;stroke:#FFFFFF;stroke-miterlimit:10;}
	.st35{clip-path:url(#SVGID_18_);fill:none;stroke:#FFFFFF;stroke-miterlimit:10;}
	.st36{clip-path:url(#SVGID_20_);fill:none;stroke:#109E7B;stroke-miterlimit:10;}
	.st37{clip-path:url(#SVGID_22_);fill:#007054;stroke:#109E7B;stroke-miterlimit:10;}
	.st38{clip-path:url(#SVGID_22_);fill:#052E93;}
	.st39{clip-path:url(#SVGID_24_);fill:#052E93;}
	.st40{clip-path:url(#SVGID_24_);fill:none;stroke:#007054;stroke-miterlimit:10;}
	.st41{fill:url(#SVGID_27_);}
	.st42{fill:url(#SVGID_28_);}
	.st43{fill:url(#SVGID_29_);}
	.st44{fill-rule:evenodd;clip-rule:evenodd;fill:#2F29FF;}
	.st45{fill-rule:evenodd;clip-rule:evenodd;fill:#0D59A1;}
	.st46{fill-rule:evenodd;clip-rule:evenodd;fill:#003566;}
	.st47{clip-path:url(#SVGID_33_);}
	.st48{fill:#0D59A1;}
	.st49{fill:none;stroke:#2A577F;stroke-miterlimit:10;}
	.st50{fill-rule:evenodd;clip-rule:evenodd;fill:#12A7DB;}
	.st51{fill:#12A7DB;}
	.st52{fill:#003566;}
	.st53{fill-rule:evenodd;clip-rule:evenodd;fill:#FF4C4E;}
	.st54{fill:#FF4C4E;}
	.st55{fill-rule:evenodd;clip-rule:evenodd;fill:#363A5B;}
	.st56{fill-rule:evenodd;clip-rule:evenodd;fill:#FF4C4E;stroke:#FF4C4E;stroke-miterlimit:10;}
	.st57{fill-rule:evenodd;clip-rule:evenodd;fill:#04518A;}
	.st58{fill:#04518A;}
	.st59{fill:none;stroke:#3153A6;stroke-miterlimit:10;}
	.st60{fill-rule:evenodd;clip-rule:evenodd;fill:none;stroke:#01015B;stroke-width:5;stroke-miterlimit:10;}
	.st61{fill:#E10A17;}
	.st62{fill:#253574;}
	.st63{fill:#FFE80C;}
	.st64{fill-rule:evenodd;clip-rule:evenodd;fill:#444871;}
	.st65{fill-rule:evenodd;clip-rule:evenodd;fill:#0A3C5F;}
	.st66{fill:#A1B4B1;}
	.st67{fill-rule:evenodd;clip-rule:evenodd;fill:#FFED33;}
	.st68{fill:#FFED33;}
	.st69{fill:#ECF0EF;}
</style>
<g id="Calque_1">
	<g>
		<path class="st9" d="M155.44,197.76c0-17.46-36.73-14.02-53.29-8.63c-3.57,1.16-8.77,2.29-11.21,5.62
			c-2.18,2.98-13.21,35.57-4.58,37.68c27.94,6.83,67,3.44,67.38-2.21c0.38-5.65,1.5-21.52,1.44-28.42
			C155.34,200.51,155.44,199.17,155.44,197.76z"/>
		<path class="st7" d="M140.51,107.81c1.15,16.28,4.35,32.96,13.51,46.47c1.97,2.91,4.84,5.93,8.34,5.57
			c2.05-0.22,3.82-1.62,4.93-3.36c1.1-1.74,1.62-3.77,2-5.8c2.97-15.91-1.89-32.12-6.73-47.57c-1.99-6.36-4.64-17.62-11.12-21.05
			c-6.75-3.57-10.14,7.46-10.76,11.96C140.05,98.6,140.18,103.23,140.51,107.81z"/>
		<path class="st4" d="M139.73,84.68c0.31-2.69,1.03-5.87,3.53-7.04c2.64-1.24,5.47,0.57,7.52,2.41
			c12.44,11.16,17.15,26.9,19.4,43.81l-29.82,1.84C138.38,112.23,138.15,98.41,139.73,84.68z"/>
		<path class="st10" d="M181.22,151.8c0.84,1.88-0.03,4.17-1.54,5.56s-11.99,6.33-22.29,1.78c-5.18-2.29-5.97-7.28-4.15-12.02
			C155.78,140.53,180.23,149.58,181.22,151.8z"/>
		<path class="st6" d="M84.87,143.88c-4.83-15.51-10.77-34.66-8.09-50.87c6.56-8.01,19.99-26.62,46.6-26.62
			c18.67,0,32.65,18.85,35.89,23.64c3.61,5.34,2.3,12.95,1.4,19.12c-1.92,13.16-7.61,64.87-2.67,100.76H82.62
			C82.77,192.79,89.74,159.5,84.87,143.88z"/>
		<path class="st5" d="M67.53,125.02c3.73-14.24,11.7-27.35,22.64-37.21c1.97-1.78,4.64-3.55,7.07-2.52
			c1.33,0.57,2.22,1.89,2.61,3.28c0.39,1.39,0.35,2.86,0.3,4.31c-0.67,16.85-3.73,33.5-6.79,50.09c-0.94,5.1-1.9,10.26-4.1,14.95
			c-2.2,4.69-5.82,8.94-10.67,10.77c-2.54,0.96-6.69,1.53-9.02-0.3c-1.88-1.47-2.19-5.21-2.67-7.34
			c-1.69-7.55-2.22-15.35-1.59-23.06C65.68,133.62,66.42,129.27,67.53,125.02z"/>
		<path class="st6" d="M100.62,84.68c-0.14-2.69-0.66-5.87-3.09-7.04c-2.56-1.24-7.32,1.1-9.48,2.94
			c-13.14,11.16-20.45,26.38-23.77,43.28l33.12,1.84C100.24,112.23,101.34,98.41,100.62,84.68z"/>
		<path class="st5" d="M130.87,47.72c-1.82-8.05-7.91-9.93-11.45-8c-2.27,15.06-4.58,21.76-10.48,29.97
			c7.34,4.71,19.87,3.83,22.58,0C131.62,68.49,131.81,51.88,130.87,47.72z"/>
		<path class="st5" d="M130.47,28.83c7.29-5.04,17.77-0.67,19.29,8.65c1.39,8.53-7.19,23.17-11.26,25.55
			c-7.12,4.15-16.68-5.82-17.02-10.6C120.99,45.43,124.34,33.07,130.47,28.83z"/>
		<path class="st9" d="M125.29,30.62c-0.57-0.38-1.33-0.34-1.96-0.07s-1.14,0.74-1.64,1.21c-1.7,1.57-3.42,3.16-4.77,5.05
			c-1.35,1.89-2.31,4.13-2.32,6.45c0,1.5,0.39,3.07-0.13,4.48c-0.46,1.27-1.64,2.43-1.29,3.73c0.26,0.97,1.36,1.54,2.36,1.43
			s1.86-0.76,2.49-1.53c0.63-0.78,1.07-1.69,1.58-2.55c1.69-2.86,4.16-5.19,5.93-8.01c1.76-2.82,2.74-6.52,1.15-9.44L125.29,30.62z"
			/>
		<path class="st9" d="M159.09,34.39c-1.57-0.64-3.15-1.27-4.72-1.91c0.72,0.9,1.47,1.83,1.75,2.94c0.28,1.12-0.03,2.47-1.02,3.05
			c-0.77,0.45-1.77,0.33-2.57-0.08c-0.8-0.41-1.43-1.07-2.05-1.72c0.32,0.6,0.66,1.23,0.66,1.91s-0.44,1.42-1.12,1.49
			c-0.54,0.06-1.03-0.29-1.45-0.63c-2.14-1.68-4.27-3.37-6.41-5.05c0.13,0.67,0.25,1.36,0.14,2.03s-0.5,1.34-1.13,1.59
			c-1.11,0.44-2.26-0.55-2.94-1.54s-1.38-2.17-2.57-2.35c-1.33-0.2-2.42,0.99-3.23,2.06c-0.15,0.19-0.29,0.38-0.44,0.58
			c-1.5,1.97-3,3.94-4.49,5.91c-0.46,0.6-0.93,1.22-1.55,1.65c-0.63,0.43-1.45,0.64-2.15,0.37c-1.21-0.46-14.25-19.71,2.44-25.59
			c2.42-0.85,5.83,0.09,8.27,0.86c2.44,0.77,4.76,1.99,7.28,2.44c2,0.36,4.05,0.22,6.07,0.42
			C153.52,23.39,158.94,28.57,159.09,34.39z"/>
		<path class="st5" d="M117.55,38.47c-0.75,1.89-0.74,4.07,0.05,5.94c2.25,5.36,7.5,0.55,7.75-3.33
			C125.66,36.46,119.6,33.34,117.55,38.47z"/>
		<path class="st11" d="M121.52,173.87h45.23c2.68,0,5.45-2.17,6.2-4.85l19.9-71.07c0.75-2.68-0.81-4.85-3.49-4.85h-45.23
			c-2.68,0-5.45,2.17-6.2,4.85l-19.9,71.07C117.28,171.7,118.84,173.87,121.52,173.87z"/>
		<path class="st2" d="M118.03,169.02l19.9-71.07c0.75-2.68,3.53-4.85,6.2-4.85h4.82c-2.68,0-5.45,2.17-6.2,4.85l-19.9,71.07
			c-0.75,2.68,0.81,4.85,3.49,4.85h-4.82C118.84,173.87,117.28,171.7,118.03,169.02z"/>
		<path class="st5" d="M124.49,152.78c2.21,1.44,2.58,4.72,1.44,7.1s-39.6,11.71-48.87,11.55c-2.82-0.05-6.06-0.32-7.72-2.6
			c-1.48-2.04-1.06-4.87-0.27-7.26c1.33-4.02,3.67-8.54,6.95-11.32C78.29,148.34,123.07,151.86,124.49,152.78z"/>
		<path class="st5" d="M138.37,145.98c0.93-1.29,1.86-3.06,0.92-4.34c-0.63-0.85-1.87-1.02-2.87-0.7c-1,0.32-1.83,1.02-2.65,1.69
			c-1.1,0.9-2.31,1.79-3.72,1.99s-3.05-0.53-3.38-1.92c-0.36-1.51,0.82-3.42-0.3-4.5c-0.58-0.57-1.57-0.53-2.28-0.14
			c-0.71,0.4-1.22,1.07-1.71,1.73c-2.58,3.49-5.22,7.09-6.26,11.31c-1.04,4.21-0.07,9.23,3.45,11.76c3.15,2.27,7.79,1.93,10.82-0.49
			c2.59-2.07,3.58-5.02,3.92-8.19C134.68,150.69,136.26,148.91,138.37,145.98z"/>
		<path class="st5" d="M183.65,142.37c-0.17-0.49-0.64-7.84-0.84-8.57c-0.24-0.91-4.15,2.34-2.89,9.3c-1.97-0.21-1.47-0.5-3.44-0.71
			c-1.44-0.15-4.22,0.08-5.83,2.39c-1.88,2.7-1.74,10.34,2.46,15.06c2.97,3.34,10.01-2.34,11.16-5.45
			C185.86,150.07,185.07,146.51,183.65,142.37z"/>
		<path class="st2" d="M159.33,124.61c-0.11,1.07,1.15,2.18,2.4,2.51c1.77,0.46,3.16-0.52,3.49-1.54c0.48-1.52-0.03-2.83-1.31-3.02
			C161.53,122.2,159.56,122.42,159.33,124.61z"/>
		<line class="st21" x1="212.03" y1="73.56" x2="199.21" y2="85.95"/>
		<line class="st21" x1="191.55" y1="64.69" x2="187.77" y2="81.12"/>
		<line class="st21" x1="216.61" y1="100.03" x2="204.1" y2="101"/>
	</g>
</g>
<g id="Calque_2">
</g>
</svg>
